M48
;GenerationSoftware,Autodesk,EAGLE,9.5.1*%
;CreationDate,2020-01-11T03:42:58Z*%
FMAT,2
ICI,OFF
METRIC,TZ,000.000
T9C0.700
T8C0.800
T7C0.813
T6C0.965
T5C1.000
T4C1.118
T3C3.000
T2C3.302
T1C5.000
%
G90
M71
T1
X15310Y6350
X8310Y6350
T2
X8890Y45974
X8890Y36576
T3
X2540Y0
X83820Y69850
X83820Y0
X2540Y69850
T4
X8890Y21590
X11430Y60960
X8890Y60960
X6350Y60960
X6350Y21590
X11430Y21590
T5
X74930Y66802
X72390Y66802
X69850Y66802
X67310Y66802
X64770Y66802
X62230Y66802
X59690Y66802
X54610Y66802
X50165Y6350
X57150Y66802
X35560Y3810
X47625Y57150
X37465Y6350
X40005Y6350
X42545Y6350
X45085Y6350
X47625Y6350
X40005Y24130
X42545Y24130
X45085Y24130
X47625Y24130
X29845Y57150
X32385Y57150
X34925Y57150
X37465Y57150
X40005Y57150
X42545Y57150
X45085Y57150
T6
X40640Y31750
X38100Y31750
X35560Y31750
X63500Y31750
X30480Y31750
X27940Y31750
X25400Y31750
X78740Y31750
X43180Y46990
X45720Y46990
X48260Y46990
X50800Y46990
X53340Y46990
X55880Y46990
X33020Y31750
X58420Y46990
X71120Y31750
X68580Y31750
X66040Y31750
X58420Y31750
X55880Y31750
X53340Y31750
X50800Y31750
X48260Y31750
X45720Y31750
X43180Y31750
X40640Y46990
X38100Y46990
X35560Y46990
X33020Y46990
X30480Y46990
X27940Y46990
X25400Y46990
X60960Y31750
X71120Y46990
X68580Y46990
X66040Y46990
X63500Y46990
X60960Y46990
X73660Y31750
X76200Y31750
X81280Y31750
X83820Y31750
X83820Y46990
X73660Y46990
X76200Y46990
X78740Y46990
X81280Y46990
T7
X38100Y17780
X48260Y17780
X38100Y12700
X48260Y12700
X34290Y20320
X24130Y20320
X24130Y26670
X34290Y26670
X20320Y34290
X20320Y24130
X26670Y36830
X36830Y36830
X21590Y6350
X21590Y16510
X5080Y16510
X7620Y16510
X12700Y16510
X15240Y16510
X15240Y68580
X12700Y68580
X7620Y67310
X7620Y69850
X19050Y20320
X21590Y20320
X57150Y55880
X67310Y55880
X64770Y52070
X74930Y52070
X80010Y54610
X82550Y54610
X80010Y59690
X82550Y59690
X80010Y64770
X82550Y64770
X64770Y59690
X74930Y59690
X78740Y21590
X76200Y21590
X78740Y16510
X76200Y16510
X78740Y11430
X76200Y11430
X50800Y66040
X40640Y66040
X40640Y62230
X50800Y62230
X25400Y59690
X15240Y59690
X26670Y63500
X36830Y63500
T8
X65930Y5510
X65930Y27510
X67930Y27510
X69930Y27510
X71930Y27510
X73930Y27510
X67930Y5510
X75930Y27510
X77930Y27510
X79930Y27510
X81930Y27510
X83930Y27510
X83930Y5510
X81930Y5510
X79930Y5510
X77930Y5510
X75930Y5510
X73930Y5510
X71930Y5510
X69930Y5510
T9
X22020Y54610
X18620Y54610
X22020Y63500
X18620Y63500
X30910Y7620
X27510Y7620
X30910Y15240
X27510Y15240
M30