G75*
%MOIN*%
%OFA0B0*%
%FSLAX25Y25*%
%IPPOS*%
%LPD*%
%AMOC8*
5,1,8,0,0,1.08239X$1,22.5*
%
%ADD10C,0.06600*%
%ADD11OC8,0.05600*%
%ADD12C,0.05512*%
%ADD13C,0.05200*%
%ADD14C,0.05150*%
%ADD15C,0.07600*%
%ADD16C,0.07000*%
%ADD17OC8,0.05200*%
%ADD18OC8,0.06600*%
%ADD19OC8,0.23685*%
%ADD20C,0.05800*%
%ADD21C,0.07500*%
%ADD22C,0.02000*%
%ADD23C,0.05000*%
%ADD24C,0.05906*%
%ADD25C,0.10000*%
%ADD26C,0.03200*%
%ADD27C,0.01600*%
D10*
X0068342Y0098700D02*
X0068342Y0105300D01*
X0078342Y0105300D02*
X0078342Y0098700D01*
X0088342Y0098700D02*
X0088342Y0105300D01*
X0088342Y0253700D02*
X0088342Y0260300D01*
X0078342Y0260300D02*
X0078342Y0253700D01*
X0068342Y0253700D02*
X0068342Y0260300D01*
D11*
X0073342Y0282000D03*
X0073342Y0292000D03*
X0093342Y0287000D03*
X0103342Y0287000D03*
X0103342Y0082000D03*
X0093342Y0082000D03*
X0073342Y0082000D03*
X0063342Y0082000D03*
X0343342Y0082000D03*
X0353342Y0082000D03*
X0353342Y0102000D03*
X0343342Y0102000D03*
X0343342Y0062000D03*
X0353342Y0062000D03*
D12*
X0165035Y0047000D03*
X0151649Y0047000D03*
X0151649Y0077000D03*
X0165035Y0077000D03*
X0130035Y0232000D03*
X0116649Y0232000D03*
X0116649Y0267000D03*
X0130035Y0267000D03*
D13*
X0128342Y0099600D02*
X0128342Y0094400D01*
X0118342Y0094400D02*
X0118342Y0099600D01*
D14*
X0302909Y0125307D03*
X0310783Y0125307D03*
X0318657Y0125307D03*
X0326531Y0125307D03*
X0334405Y0125307D03*
X0342279Y0125307D03*
X0350153Y0125307D03*
X0358027Y0125307D03*
X0365901Y0125307D03*
X0373775Y0125307D03*
X0373775Y0038693D03*
X0365901Y0038693D03*
X0358027Y0038693D03*
X0350153Y0038693D03*
X0342279Y0038693D03*
X0334405Y0038693D03*
X0326531Y0038693D03*
X0318657Y0038693D03*
X0310783Y0038693D03*
X0302909Y0038693D03*
D15*
X0240842Y0042000D03*
X0230842Y0042000D03*
X0220842Y0042000D03*
X0210842Y0042000D03*
X0200842Y0042000D03*
X0190842Y0042000D03*
X0200842Y0112000D03*
X0210842Y0112000D03*
X0220842Y0112000D03*
X0230842Y0112000D03*
D16*
X0230842Y0242000D03*
X0220842Y0242000D03*
X0210842Y0242000D03*
X0200842Y0242000D03*
X0190842Y0242000D03*
X0180842Y0242000D03*
X0170842Y0242000D03*
X0160842Y0242000D03*
X0258342Y0280000D03*
X0268342Y0280000D03*
X0278342Y0280000D03*
X0288342Y0280000D03*
X0298342Y0280000D03*
X0308342Y0280000D03*
X0318342Y0280000D03*
X0328342Y0280000D03*
X0338342Y0280000D03*
D17*
X0338342Y0252000D03*
X0308342Y0237000D03*
X0298342Y0222000D03*
X0268342Y0237000D03*
X0243342Y0262000D03*
X0243342Y0277000D03*
X0203342Y0277000D03*
X0188342Y0267000D03*
X0203342Y0262000D03*
X0148342Y0267000D03*
X0143342Y0252000D03*
X0103342Y0252000D03*
X0148342Y0162000D03*
X0123342Y0152000D03*
X0138342Y0122000D03*
X0123342Y0112000D03*
X0138342Y0097000D03*
X0128342Y0082000D03*
X0128342Y0042000D03*
X0178342Y0097000D03*
X0193342Y0087000D03*
X0193342Y0067000D03*
X0233342Y0067000D03*
X0233342Y0087000D03*
X0178342Y0122000D03*
X0188342Y0162000D03*
X0298342Y0252000D03*
X0338342Y0222000D03*
D18*
X0358342Y0232000D03*
X0368342Y0232000D03*
X0368342Y0252000D03*
X0358342Y0252000D03*
X0358342Y0272000D03*
X0368342Y0272000D03*
D19*
X0103617Y0042000D03*
X0076058Y0042000D03*
D20*
X0143342Y0142000D03*
X0153342Y0142000D03*
X0163342Y0142000D03*
X0173342Y0142000D03*
X0183342Y0142000D03*
X0193342Y0142000D03*
X0203342Y0142000D03*
X0213342Y0142000D03*
X0223342Y0142000D03*
X0233342Y0142000D03*
X0243342Y0142000D03*
X0253342Y0142000D03*
X0263342Y0142000D03*
X0273342Y0142000D03*
X0283342Y0142000D03*
X0293342Y0142000D03*
X0303342Y0142000D03*
X0313342Y0142000D03*
X0323342Y0142000D03*
X0333342Y0142000D03*
X0343342Y0142000D03*
X0353342Y0142000D03*
X0363342Y0142000D03*
X0373342Y0142000D03*
X0373342Y0202000D03*
X0363342Y0202000D03*
X0353342Y0202000D03*
X0343342Y0202000D03*
X0333342Y0202000D03*
X0323342Y0202000D03*
X0313342Y0202000D03*
X0303342Y0202000D03*
X0293342Y0202000D03*
X0283342Y0202000D03*
X0273342Y0202000D03*
X0263342Y0202000D03*
X0253342Y0202000D03*
X0243342Y0202000D03*
X0233342Y0202000D03*
X0223342Y0202000D03*
X0213342Y0202000D03*
X0203342Y0202000D03*
X0193342Y0202000D03*
X0183342Y0202000D03*
X0173342Y0202000D03*
X0163342Y0202000D03*
X0153342Y0202000D03*
X0143342Y0202000D03*
D21*
X0123342Y0112000D02*
X0118342Y0112000D01*
X0103342Y0097000D01*
X0103342Y0082000D01*
X0093342Y0082000D02*
X0093342Y0097000D01*
X0088342Y0102000D01*
X0078342Y0102000D02*
X0078342Y0087000D01*
X0073342Y0082000D01*
D22*
X0043342Y0021490D02*
X0043342Y0287510D01*
X0044615Y0285304D01*
X0046646Y0283273D01*
X0049132Y0281838D01*
X0051906Y0281094D01*
X0054778Y0281094D01*
X0057551Y0281838D01*
X0060038Y0283273D01*
X0062068Y0285304D01*
X0063504Y0287791D01*
X0064247Y0290564D01*
X0064247Y0293436D01*
X0063504Y0296209D01*
X0062068Y0298696D01*
X0060064Y0300701D01*
X0366620Y0300701D01*
X0364615Y0298696D01*
X0363179Y0296209D01*
X0362436Y0293436D01*
X0362436Y0290564D01*
X0363179Y0287791D01*
X0364615Y0285304D01*
X0366646Y0283273D01*
X0369132Y0281838D01*
X0371906Y0281094D01*
X0374778Y0281094D01*
X0377551Y0281838D01*
X0380038Y0283273D01*
X0382068Y0285304D01*
X0383263Y0287373D01*
X0383263Y0021627D01*
X0382068Y0023696D01*
X0380038Y0025727D01*
X0377551Y0027162D01*
X0374778Y0027905D01*
X0371906Y0027905D01*
X0369132Y0027162D01*
X0366646Y0025727D01*
X0364615Y0023696D01*
X0363179Y0021209D01*
X0362436Y0018436D01*
X0362436Y0015564D01*
X0363179Y0012791D01*
X0364615Y0010304D01*
X0366646Y0008273D01*
X0368851Y0007000D01*
X0057832Y0007000D01*
X0060038Y0008273D01*
X0062068Y0010304D01*
X0063504Y0012791D01*
X0064247Y0015564D01*
X0064247Y0018436D01*
X0063504Y0021209D01*
X0062068Y0023696D01*
X0060038Y0025727D01*
X0057551Y0027162D01*
X0054778Y0027905D01*
X0051906Y0027905D01*
X0049132Y0027162D01*
X0046646Y0025727D01*
X0044615Y0023696D01*
X0043342Y0021490D01*
X0043342Y0022996D02*
X0044211Y0022996D01*
X0043342Y0024994D02*
X0045913Y0024994D01*
X0043342Y0026993D02*
X0048838Y0026993D01*
X0043342Y0028991D02*
X0067511Y0028991D01*
X0065513Y0030990D02*
X0043342Y0030990D01*
X0043342Y0032988D02*
X0063514Y0032988D01*
X0061516Y0034987D02*
X0043342Y0034987D01*
X0043342Y0036985D02*
X0060816Y0036985D01*
X0060816Y0035686D02*
X0069745Y0026757D01*
X0082372Y0026757D01*
X0082606Y0026992D01*
X0091200Y0018398D01*
X0093368Y0017500D01*
X0160915Y0017500D01*
X0163084Y0018398D01*
X0164744Y0020058D01*
X0176989Y0032303D01*
X0176989Y0030736D01*
X0177956Y0028401D01*
X0179743Y0026614D01*
X0182078Y0025647D01*
X0184605Y0025647D01*
X0185698Y0026100D01*
X0274039Y0026100D01*
X0274536Y0025987D01*
X0275201Y0026100D01*
X0275876Y0026100D01*
X0276347Y0026295D01*
X0276850Y0026381D01*
X0277421Y0026740D01*
X0278045Y0026998D01*
X0278405Y0027359D01*
X0278837Y0027630D01*
X0279227Y0028181D01*
X0279704Y0028658D01*
X0279899Y0029129D01*
X0336824Y0109407D01*
X0374948Y0109407D01*
X0377117Y0110305D01*
X0378777Y0111965D01*
X0379675Y0114133D01*
X0379675Y0123938D01*
X0379750Y0124119D01*
X0379750Y0126496D01*
X0378840Y0128692D01*
X0377159Y0130372D01*
X0374963Y0131282D01*
X0372586Y0131282D01*
X0370390Y0130372D01*
X0369838Y0129820D01*
X0369285Y0130372D01*
X0368342Y0130763D01*
X0368342Y0138090D01*
X0369773Y0136659D01*
X0372089Y0135700D01*
X0374595Y0135700D01*
X0376910Y0136659D01*
X0378683Y0138431D01*
X0379642Y0140747D01*
X0379642Y0143253D01*
X0378683Y0145569D01*
X0376910Y0147341D01*
X0374595Y0148300D01*
X0372089Y0148300D01*
X0369773Y0147341D01*
X0368342Y0145910D01*
X0366910Y0147341D01*
X0364595Y0148300D01*
X0362089Y0148300D01*
X0359773Y0147341D01*
X0358342Y0145910D01*
X0356910Y0147341D01*
X0354595Y0148300D01*
X0352089Y0148300D01*
X0349773Y0147341D01*
X0348342Y0145910D01*
X0346910Y0147341D01*
X0344595Y0148300D01*
X0342089Y0148300D01*
X0339773Y0147341D01*
X0338342Y0145910D01*
X0336910Y0147341D01*
X0334595Y0148300D01*
X0332089Y0148300D01*
X0329773Y0147341D01*
X0328342Y0145910D01*
X0326910Y0147341D01*
X0324595Y0148300D01*
X0322089Y0148300D01*
X0319773Y0147341D01*
X0318342Y0145910D01*
X0316910Y0147341D01*
X0314595Y0148300D01*
X0312089Y0148300D01*
X0309773Y0147341D01*
X0308342Y0145910D01*
X0306910Y0147341D01*
X0304595Y0148300D01*
X0302089Y0148300D01*
X0299773Y0147341D01*
X0298342Y0145910D01*
X0296910Y0147341D01*
X0294595Y0148300D01*
X0292089Y0148300D01*
X0289773Y0147341D01*
X0288342Y0145910D01*
X0286910Y0147341D01*
X0284595Y0148300D01*
X0282089Y0148300D01*
X0279773Y0147341D01*
X0278342Y0145910D01*
X0276910Y0147341D01*
X0274595Y0148300D01*
X0272089Y0148300D01*
X0269773Y0147341D01*
X0268342Y0145910D01*
X0266910Y0147341D01*
X0264595Y0148300D01*
X0262089Y0148300D01*
X0259773Y0147341D01*
X0258342Y0145910D01*
X0256910Y0147341D01*
X0255493Y0147928D01*
X0270834Y0163270D01*
X0270834Y0163270D01*
X0272072Y0164508D01*
X0272742Y0166125D01*
X0272742Y0195700D01*
X0274595Y0195700D01*
X0276910Y0196659D01*
X0278683Y0198431D01*
X0279121Y0199490D01*
X0279151Y0199432D01*
X0279604Y0198808D01*
X0280150Y0198262D01*
X0280774Y0197809D01*
X0281461Y0197459D01*
X0282194Y0197221D01*
X0282956Y0197100D01*
X0283342Y0197100D01*
X0283727Y0197100D01*
X0284489Y0197221D01*
X0285223Y0197459D01*
X0285910Y0197809D01*
X0286534Y0198262D01*
X0287079Y0198808D01*
X0287533Y0199432D01*
X0287562Y0199490D01*
X0288001Y0198431D01*
X0289773Y0196659D01*
X0292089Y0195700D01*
X0294595Y0195700D01*
X0296910Y0196659D01*
X0298342Y0198090D01*
X0299773Y0196659D01*
X0302089Y0195700D01*
X0304595Y0195700D01*
X0306910Y0196659D01*
X0308342Y0198090D01*
X0309773Y0196659D01*
X0312089Y0195700D01*
X0314595Y0195700D01*
X0316910Y0196659D01*
X0318342Y0198090D01*
X0319773Y0196659D01*
X0322089Y0195700D01*
X0324595Y0195700D01*
X0326910Y0196659D01*
X0328342Y0198090D01*
X0329773Y0196659D01*
X0332089Y0195700D01*
X0334595Y0195700D01*
X0336910Y0196659D01*
X0338342Y0198090D01*
X0339773Y0196659D01*
X0342089Y0195700D01*
X0344595Y0195700D01*
X0346910Y0196659D01*
X0348342Y0198090D01*
X0349773Y0196659D01*
X0352089Y0195700D01*
X0354595Y0195700D01*
X0356910Y0196659D01*
X0358342Y0198090D01*
X0359773Y0196659D01*
X0362089Y0195700D01*
X0364595Y0195700D01*
X0366910Y0196659D01*
X0368342Y0198090D01*
X0369773Y0196659D01*
X0372089Y0195700D01*
X0374595Y0195700D01*
X0376910Y0196659D01*
X0378683Y0198431D01*
X0379642Y0200747D01*
X0379642Y0203253D01*
X0378683Y0205569D01*
X0376910Y0207341D01*
X0374595Y0208300D01*
X0372089Y0208300D01*
X0369773Y0207341D01*
X0368342Y0205910D01*
X0366910Y0207341D01*
X0364595Y0208300D01*
X0362089Y0208300D01*
X0359773Y0207341D01*
X0358342Y0205910D01*
X0356910Y0207341D01*
X0354595Y0208300D01*
X0352089Y0208300D01*
X0349773Y0207341D01*
X0348342Y0205910D01*
X0346910Y0207341D01*
X0344595Y0208300D01*
X0342089Y0208300D01*
X0339773Y0207341D01*
X0338342Y0205910D01*
X0336910Y0207341D01*
X0334595Y0208300D01*
X0332089Y0208300D01*
X0329773Y0207341D01*
X0328342Y0205910D01*
X0326910Y0207341D01*
X0324595Y0208300D01*
X0322089Y0208300D01*
X0319773Y0207341D01*
X0318342Y0205910D01*
X0317742Y0206510D01*
X0317742Y0242875D01*
X0317072Y0244492D01*
X0307072Y0254492D01*
X0305834Y0255730D01*
X0304217Y0256400D01*
X0302427Y0256400D01*
X0300827Y0258000D01*
X0295857Y0258000D01*
X0292742Y0254885D01*
X0292742Y0268177D01*
X0297664Y0273100D01*
X0299714Y0273100D01*
X0302250Y0274150D01*
X0303342Y0275242D01*
X0304433Y0274150D01*
X0306969Y0273100D01*
X0309714Y0273100D01*
X0312250Y0274150D01*
X0314191Y0276091D01*
X0314274Y0276290D01*
X0314759Y0275805D01*
X0315459Y0275296D01*
X0316231Y0274903D01*
X0317054Y0274635D01*
X0317909Y0274500D01*
X0318342Y0274500D01*
X0318775Y0274500D01*
X0319630Y0274635D01*
X0320453Y0274903D01*
X0321224Y0275296D01*
X0321925Y0275805D01*
X0322410Y0276290D01*
X0322492Y0276091D01*
X0324433Y0274150D01*
X0326969Y0273100D01*
X0329714Y0273100D01*
X0332250Y0274150D01*
X0333342Y0275242D01*
X0334433Y0274150D01*
X0336969Y0273100D01*
X0339714Y0273100D01*
X0342250Y0274150D01*
X0344191Y0276091D01*
X0345242Y0278627D01*
X0345242Y0281372D01*
X0344191Y0283909D01*
X0342250Y0285850D01*
X0339714Y0286900D01*
X0336969Y0286900D01*
X0334433Y0285850D01*
X0333342Y0284758D01*
X0332250Y0285850D01*
X0329714Y0286900D01*
X0326969Y0286900D01*
X0324433Y0285850D01*
X0322492Y0283909D01*
X0322410Y0283710D01*
X0321925Y0284195D01*
X0321224Y0284704D01*
X0320453Y0285097D01*
X0319630Y0285365D01*
X0318775Y0285500D01*
X0318342Y0285500D01*
X0318342Y0280000D01*
X0318342Y0280000D01*
X0318342Y0274500D01*
X0318342Y0280000D01*
X0318342Y0280000D01*
X0318342Y0285500D01*
X0317909Y0285500D01*
X0317054Y0285365D01*
X0316231Y0285097D01*
X0315459Y0284704D01*
X0314759Y0284195D01*
X0314274Y0283710D01*
X0314191Y0283909D01*
X0312250Y0285850D01*
X0309714Y0286900D01*
X0306969Y0286900D01*
X0304433Y0285850D01*
X0303342Y0284758D01*
X0302250Y0285850D01*
X0299714Y0286900D01*
X0296969Y0286900D01*
X0294433Y0285850D01*
X0293342Y0284758D01*
X0292250Y0285850D01*
X0289714Y0286900D01*
X0286969Y0286900D01*
X0284433Y0285850D01*
X0283342Y0284758D01*
X0282250Y0285850D01*
X0279714Y0286900D01*
X0276969Y0286900D01*
X0274433Y0285850D01*
X0273342Y0284758D01*
X0272250Y0285850D01*
X0269714Y0286900D01*
X0266969Y0286900D01*
X0264433Y0285850D01*
X0263342Y0284758D01*
X0262250Y0285850D01*
X0259714Y0286900D01*
X0256969Y0286900D01*
X0254433Y0285850D01*
X0252492Y0283909D01*
X0251442Y0281372D01*
X0251442Y0278627D01*
X0252492Y0276091D01*
X0254433Y0274150D01*
X0256969Y0273100D01*
X0259714Y0273100D01*
X0262250Y0274150D01*
X0263342Y0275242D01*
X0264433Y0274150D01*
X0266969Y0273100D01*
X0269714Y0273100D01*
X0272250Y0274150D01*
X0273342Y0275242D01*
X0274433Y0274150D01*
X0276969Y0273100D01*
X0279714Y0273100D01*
X0282250Y0274150D01*
X0283342Y0275242D01*
X0284433Y0274150D01*
X0285732Y0273613D01*
X0284612Y0272492D01*
X0283942Y0270875D01*
X0283942Y0238823D01*
X0264612Y0219492D01*
X0263942Y0217875D01*
X0263942Y0208300D01*
X0262089Y0208300D01*
X0259773Y0207341D01*
X0258342Y0205910D01*
X0256910Y0207341D01*
X0254595Y0208300D01*
X0252089Y0208300D01*
X0249773Y0207341D01*
X0248342Y0205910D01*
X0246910Y0207341D01*
X0244595Y0208300D01*
X0242089Y0208300D01*
X0239773Y0207341D01*
X0238342Y0205910D01*
X0236910Y0207341D01*
X0234595Y0208300D01*
X0232089Y0208300D01*
X0229773Y0207341D01*
X0228342Y0205910D01*
X0226910Y0207341D01*
X0224595Y0208300D01*
X0222089Y0208300D01*
X0219773Y0207341D01*
X0218342Y0205910D01*
X0216910Y0207341D01*
X0214595Y0208300D01*
X0212089Y0208300D01*
X0209773Y0207341D01*
X0208342Y0205910D01*
X0206910Y0207341D01*
X0204595Y0208300D01*
X0202089Y0208300D01*
X0200142Y0207494D01*
X0200142Y0235100D01*
X0202214Y0235100D01*
X0204750Y0236150D01*
X0205842Y0237242D01*
X0206933Y0236150D01*
X0209469Y0235100D01*
X0212214Y0235100D01*
X0214750Y0236150D01*
X0215842Y0237242D01*
X0216933Y0236150D01*
X0219469Y0235100D01*
X0222214Y0235100D01*
X0224750Y0236150D01*
X0225842Y0237242D01*
X0226933Y0236150D01*
X0229469Y0235100D01*
X0232214Y0235100D01*
X0234750Y0236150D01*
X0236691Y0238091D01*
X0237742Y0240627D01*
X0237742Y0243372D01*
X0236691Y0245909D01*
X0234750Y0247850D01*
X0232214Y0248900D01*
X0229469Y0248900D01*
X0226933Y0247850D01*
X0225842Y0246758D01*
X0224750Y0247850D01*
X0222214Y0248900D01*
X0219469Y0248900D01*
X0216933Y0247850D01*
X0215842Y0246758D01*
X0214750Y0247850D01*
X0212214Y0248900D01*
X0209469Y0248900D01*
X0206933Y0247850D01*
X0205842Y0246758D01*
X0204750Y0247850D01*
X0202214Y0248900D01*
X0200142Y0248900D01*
X0200142Y0252860D01*
X0203281Y0256000D01*
X0205827Y0256000D01*
X0209342Y0259515D01*
X0209342Y0261777D01*
X0220164Y0272600D01*
X0239257Y0272600D01*
X0240857Y0271000D01*
X0245827Y0271000D01*
X0249342Y0274515D01*
X0249342Y0279485D01*
X0245827Y0283000D01*
X0240857Y0283000D01*
X0239257Y0281400D01*
X0217467Y0281400D01*
X0215849Y0280730D01*
X0214612Y0279492D01*
X0203119Y0268000D01*
X0200857Y0268000D01*
X0197342Y0264485D01*
X0197342Y0261940D01*
X0193563Y0258161D01*
X0192381Y0256979D01*
X0191742Y0255435D01*
X0191742Y0248900D01*
X0189469Y0248900D01*
X0186933Y0247850D01*
X0184992Y0245909D01*
X0184910Y0245710D01*
X0184425Y0246195D01*
X0183724Y0246704D01*
X0182953Y0247097D01*
X0182130Y0247365D01*
X0181275Y0247500D01*
X0180842Y0247500D01*
X0180842Y0242000D01*
X0180842Y0242000D01*
X0180842Y0236500D01*
X0181275Y0236500D01*
X0182130Y0236635D01*
X0182953Y0236903D01*
X0183724Y0237296D01*
X0184425Y0237805D01*
X0184910Y0238290D01*
X0184992Y0238091D01*
X0186933Y0236150D01*
X0189469Y0235100D01*
X0191742Y0235100D01*
X0191742Y0208156D01*
X0189773Y0207341D01*
X0188342Y0205910D01*
X0186910Y0207341D01*
X0184595Y0208300D01*
X0183552Y0208300D01*
X0160142Y0231710D01*
X0160142Y0235100D01*
X0162214Y0235100D01*
X0164750Y0236150D01*
X0165842Y0237242D01*
X0166933Y0236150D01*
X0169469Y0235100D01*
X0172214Y0235100D01*
X0174750Y0236150D01*
X0176691Y0238091D01*
X0176774Y0238290D01*
X0177259Y0237805D01*
X0177959Y0237296D01*
X0178731Y0236903D01*
X0179554Y0236635D01*
X0180409Y0236500D01*
X0180842Y0236500D01*
X0180842Y0242000D01*
X0180842Y0242000D01*
X0180842Y0243300D01*
X0180842Y0242832D02*
X0180842Y0242832D01*
X0180842Y0242000D02*
X0180842Y0247500D01*
X0180409Y0247500D01*
X0179554Y0247365D01*
X0178731Y0247097D01*
X0177959Y0246704D01*
X0177259Y0246195D01*
X0176774Y0245710D01*
X0176691Y0245909D01*
X0174750Y0247850D01*
X0172214Y0248900D01*
X0169469Y0248900D01*
X0166933Y0247850D01*
X0165842Y0246758D01*
X0164750Y0247850D01*
X0162214Y0248900D01*
X0159469Y0248900D01*
X0156933Y0247850D01*
X0155324Y0246240D01*
X0149342Y0252223D01*
X0149342Y0254485D01*
X0145827Y0258000D01*
X0140857Y0258000D01*
X0138057Y0255200D01*
X0134435Y0258823D01*
X0134435Y0262694D01*
X0135253Y0263513D01*
X0136191Y0265776D01*
X0136191Y0268224D01*
X0135253Y0270487D01*
X0133522Y0272219D01*
X0131259Y0273156D01*
X0128810Y0273156D01*
X0126548Y0272219D01*
X0124816Y0270487D01*
X0123879Y0268224D01*
X0123879Y0265776D01*
X0124816Y0263513D01*
X0125635Y0262694D01*
X0125635Y0256125D01*
X0126305Y0254508D01*
X0144942Y0235870D01*
X0144942Y0228823D01*
X0119612Y0203492D01*
X0118942Y0201875D01*
X0118942Y0156085D01*
X0117342Y0154485D01*
X0117342Y0149515D01*
X0120857Y0146000D01*
X0125827Y0146000D01*
X0129342Y0149515D01*
X0129342Y0154485D01*
X0127742Y0156085D01*
X0127742Y0199177D01*
X0148842Y0220277D01*
X0161191Y0207928D01*
X0159773Y0207341D01*
X0158001Y0205569D01*
X0157562Y0204510D01*
X0157533Y0204568D01*
X0157079Y0205192D01*
X0156534Y0205737D01*
X0155910Y0206191D01*
X0155223Y0206541D01*
X0154489Y0206779D01*
X0153727Y0206900D01*
X0153342Y0206900D01*
X0153342Y0202000D01*
X0153342Y0202000D01*
X0153342Y0197100D01*
X0153727Y0197100D01*
X0154489Y0197221D01*
X0155223Y0197459D01*
X0155910Y0197809D01*
X0156534Y0198262D01*
X0157079Y0198808D01*
X0157533Y0199432D01*
X0157562Y0199490D01*
X0158001Y0198431D01*
X0159773Y0196659D01*
X0162089Y0195700D01*
X0164595Y0195700D01*
X0166910Y0196659D01*
X0168342Y0198090D01*
X0169773Y0196659D01*
X0172089Y0195700D01*
X0174595Y0195700D01*
X0176910Y0196659D01*
X0178342Y0198090D01*
X0179773Y0196659D01*
X0182089Y0195700D01*
X0184595Y0195700D01*
X0186910Y0196659D01*
X0188342Y0198090D01*
X0189773Y0196659D01*
X0192089Y0195700D01*
X0194595Y0195700D01*
X0196910Y0196659D01*
X0198342Y0198090D01*
X0199773Y0196659D01*
X0202089Y0195700D01*
X0204595Y0195700D01*
X0206910Y0196659D01*
X0208342Y0198090D01*
X0209773Y0196659D01*
X0212089Y0195700D01*
X0214595Y0195700D01*
X0216910Y0196659D01*
X0218342Y0198090D01*
X0219773Y0196659D01*
X0222089Y0195700D01*
X0224595Y0195700D01*
X0226685Y0196566D01*
X0192942Y0162823D01*
X0192942Y0163905D01*
X0190247Y0166600D01*
X0188342Y0166600D01*
X0188342Y0162000D01*
X0188342Y0162000D01*
X0188342Y0166600D01*
X0186436Y0166600D01*
X0183742Y0163905D01*
X0183742Y0162000D01*
X0188342Y0162000D01*
X0183742Y0162000D01*
X0183742Y0160095D01*
X0186436Y0157400D01*
X0187519Y0157400D01*
X0185849Y0155730D01*
X0184612Y0154492D01*
X0183942Y0152875D01*
X0183942Y0148300D01*
X0182089Y0148300D01*
X0179773Y0147341D01*
X0178342Y0145910D01*
X0176910Y0147341D01*
X0174595Y0148300D01*
X0172089Y0148300D01*
X0169773Y0147341D01*
X0168342Y0145910D01*
X0166910Y0147341D01*
X0164595Y0148300D01*
X0162089Y0148300D01*
X0159773Y0147341D01*
X0158342Y0145910D01*
X0156910Y0147341D01*
X0154595Y0148300D01*
X0152089Y0148300D01*
X0149773Y0147341D01*
X0148001Y0145569D01*
X0147562Y0144510D01*
X0147533Y0144568D01*
X0147079Y0145192D01*
X0146534Y0145738D01*
X0145910Y0146191D01*
X0145223Y0146541D01*
X0144489Y0146779D01*
X0143727Y0146900D01*
X0143342Y0146900D01*
X0143342Y0142000D01*
X0143342Y0142000D01*
X0143342Y0137100D01*
X0143727Y0137100D01*
X0144489Y0137221D01*
X0145223Y0137459D01*
X0145910Y0137809D01*
X0146534Y0138262D01*
X0147079Y0138808D01*
X0147533Y0139432D01*
X0147562Y0139490D01*
X0148001Y0138431D01*
X0149773Y0136659D01*
X0152089Y0135700D01*
X0154595Y0135700D01*
X0156910Y0136659D01*
X0158342Y0138090D01*
X0159773Y0136659D01*
X0162089Y0135700D01*
X0164595Y0135700D01*
X0166910Y0136659D01*
X0168342Y0138090D01*
X0169773Y0136659D01*
X0172089Y0135700D01*
X0174595Y0135700D01*
X0176910Y0136659D01*
X0178342Y0138090D01*
X0179773Y0136659D01*
X0180399Y0136400D01*
X0177467Y0136400D01*
X0175849Y0135730D01*
X0174612Y0134492D01*
X0150319Y0110200D01*
X0136067Y0110200D01*
X0134449Y0109530D01*
X0130231Y0105312D01*
X0129535Y0105600D01*
X0127148Y0105600D01*
X0124943Y0104687D01*
X0123342Y0103085D01*
X0121741Y0104687D01*
X0119535Y0105600D01*
X0117148Y0105600D01*
X0114943Y0104687D01*
X0113255Y0102999D01*
X0112342Y0100793D01*
X0112342Y0093207D01*
X0112442Y0092965D01*
X0112442Y0080826D01*
X0113340Y0078658D01*
X0115000Y0076998D01*
X0123340Y0068658D01*
X0125000Y0066998D01*
X0127168Y0066100D01*
X0145749Y0066100D01*
X0145749Y0048842D01*
X0145493Y0048224D01*
X0145493Y0045776D01*
X0146430Y0043513D01*
X0148162Y0041781D01*
X0150424Y0040844D01*
X0152873Y0040844D01*
X0155136Y0041781D01*
X0156868Y0043513D01*
X0157805Y0045776D01*
X0157805Y0048224D01*
X0157549Y0048842D01*
X0157549Y0075158D01*
X0157805Y0075776D01*
X0157805Y0078224D01*
X0156868Y0080487D01*
X0155136Y0082219D01*
X0152873Y0083156D01*
X0150424Y0083156D01*
X0148162Y0082219D01*
X0146430Y0080487D01*
X0146174Y0079869D01*
X0144205Y0077900D01*
X0132727Y0077900D01*
X0134342Y0079515D01*
X0134342Y0084485D01*
X0130827Y0088000D01*
X0125857Y0088000D01*
X0124242Y0086385D01*
X0124242Y0090015D01*
X0124943Y0089313D01*
X0127148Y0088400D01*
X0129535Y0088400D01*
X0131741Y0089313D01*
X0133428Y0091001D01*
X0134342Y0093207D01*
X0134342Y0094495D01*
X0136436Y0092400D01*
X0138342Y0092400D01*
X0140247Y0092400D01*
X0142942Y0095095D01*
X0142942Y0097000D01*
X0142942Y0098905D01*
X0140447Y0101400D01*
X0153017Y0101400D01*
X0154634Y0102070D01*
X0160635Y0108070D01*
X0160635Y0081306D01*
X0159816Y0080487D01*
X0158879Y0078224D01*
X0158879Y0075776D01*
X0159816Y0073513D01*
X0161548Y0071781D01*
X0163810Y0070844D01*
X0166259Y0070844D01*
X0168522Y0071781D01*
X0170253Y0073513D01*
X0171191Y0075776D01*
X0171191Y0078224D01*
X0170253Y0080487D01*
X0169435Y0081306D01*
X0169435Y0106870D01*
X0173942Y0111377D01*
X0173942Y0101085D01*
X0172342Y0099485D01*
X0172342Y0094515D01*
X0173942Y0092915D01*
X0173942Y0062130D01*
X0164968Y0053156D01*
X0163810Y0053156D01*
X0161548Y0052219D01*
X0159816Y0050487D01*
X0158879Y0048224D01*
X0158879Y0045776D01*
X0159816Y0043513D01*
X0161548Y0041781D01*
X0163810Y0040844D01*
X0166259Y0040844D01*
X0168522Y0041781D01*
X0170253Y0043513D01*
X0171191Y0045776D01*
X0171191Y0046933D01*
X0180834Y0056577D01*
X0182072Y0057815D01*
X0182742Y0059432D01*
X0182742Y0092915D01*
X0184342Y0094515D01*
X0184342Y0099485D01*
X0182742Y0101085D01*
X0182742Y0110177D01*
X0190164Y0117600D01*
X0196259Y0117600D01*
X0194738Y0116078D01*
X0193642Y0113432D01*
X0193642Y0110568D01*
X0194738Y0107922D01*
X0196763Y0105896D01*
X0199410Y0104800D01*
X0202274Y0104800D01*
X0204920Y0105896D01*
X0205842Y0106818D01*
X0206763Y0105896D01*
X0209410Y0104800D01*
X0212274Y0104800D01*
X0214920Y0105896D01*
X0215842Y0106818D01*
X0216763Y0105896D01*
X0219410Y0104800D01*
X0222274Y0104800D01*
X0224920Y0105896D01*
X0225842Y0106818D01*
X0226763Y0105896D01*
X0229410Y0104800D01*
X0232274Y0104800D01*
X0234920Y0105896D01*
X0236946Y0107922D01*
X0238042Y0110568D01*
X0238042Y0113432D01*
X0236946Y0116078D01*
X0234920Y0118104D01*
X0232274Y0119200D01*
X0229410Y0119200D01*
X0226763Y0118104D01*
X0225842Y0117182D01*
X0225071Y0117954D01*
X0225834Y0118270D01*
X0227072Y0119508D01*
X0232072Y0124508D01*
X0232742Y0126125D01*
X0232742Y0135700D01*
X0234595Y0135700D01*
X0236910Y0136659D01*
X0238342Y0138090D01*
X0239773Y0136659D01*
X0242089Y0135700D01*
X0244595Y0135700D01*
X0246910Y0136659D01*
X0248342Y0138090D01*
X0249773Y0136659D01*
X0252089Y0135700D01*
X0254595Y0135700D01*
X0256910Y0136659D01*
X0258342Y0138090D01*
X0259773Y0136659D01*
X0262089Y0135700D01*
X0264595Y0135700D01*
X0266910Y0136659D01*
X0268342Y0138090D01*
X0269773Y0136659D01*
X0272089Y0135700D01*
X0274595Y0135700D01*
X0276910Y0136659D01*
X0278342Y0138090D01*
X0279773Y0136659D01*
X0282089Y0135700D01*
X0284595Y0135700D01*
X0286910Y0136659D01*
X0288342Y0138090D01*
X0289773Y0136659D01*
X0292089Y0135700D01*
X0294595Y0135700D01*
X0296910Y0136659D01*
X0298342Y0138090D01*
X0299773Y0136659D01*
X0302089Y0135700D01*
X0304595Y0135700D01*
X0306910Y0136659D01*
X0308342Y0138090D01*
X0309773Y0136659D01*
X0312089Y0135700D01*
X0314595Y0135700D01*
X0316910Y0136659D01*
X0318342Y0138090D01*
X0319773Y0136659D01*
X0322089Y0135700D01*
X0324595Y0135700D01*
X0326910Y0136659D01*
X0328342Y0138090D01*
X0329773Y0136659D01*
X0332089Y0135700D01*
X0332571Y0135700D01*
X0338396Y0129874D01*
X0338342Y0129820D01*
X0337789Y0130372D01*
X0335593Y0131282D01*
X0333216Y0131282D01*
X0331020Y0130372D01*
X0330468Y0129820D01*
X0329915Y0130372D01*
X0327719Y0131282D01*
X0325342Y0131282D01*
X0323146Y0130372D01*
X0322594Y0129820D01*
X0322041Y0130372D01*
X0319845Y0131282D01*
X0317468Y0131282D01*
X0315272Y0130372D01*
X0314720Y0129820D01*
X0314167Y0130372D01*
X0311971Y0131282D01*
X0309594Y0131282D01*
X0307398Y0130372D01*
X0305851Y0128824D01*
X0305306Y0129220D01*
X0304665Y0129547D01*
X0303980Y0129769D01*
X0303269Y0129882D01*
X0302909Y0129882D01*
X0302909Y0125307D01*
X0302909Y0120732D01*
X0303269Y0120732D01*
X0303980Y0120845D01*
X0304665Y0121067D01*
X0305306Y0121394D01*
X0305851Y0121790D01*
X0307398Y0120242D01*
X0309594Y0119332D01*
X0311971Y0119332D01*
X0314167Y0120242D01*
X0314720Y0120794D01*
X0315272Y0120242D01*
X0317468Y0119332D01*
X0319845Y0119332D01*
X0322041Y0120242D01*
X0322594Y0120794D01*
X0323146Y0120242D01*
X0325342Y0119332D01*
X0327719Y0119332D01*
X0329915Y0120242D01*
X0330468Y0120794D01*
X0330801Y0120461D01*
X0330433Y0120309D01*
X0330072Y0119948D01*
X0329641Y0119677D01*
X0329250Y0119126D01*
X0328773Y0118649D01*
X0328578Y0118178D01*
X0271653Y0037900D01*
X0246924Y0037900D01*
X0246946Y0037922D01*
X0248042Y0040568D01*
X0248042Y0043432D01*
X0246946Y0046078D01*
X0244920Y0048104D01*
X0242274Y0049200D01*
X0239410Y0049200D01*
X0236763Y0048104D01*
X0235842Y0047182D01*
X0234920Y0048104D01*
X0232274Y0049200D01*
X0229410Y0049200D01*
X0226763Y0048104D01*
X0225842Y0047182D01*
X0224920Y0048104D01*
X0222274Y0049200D01*
X0219410Y0049200D01*
X0216763Y0048104D01*
X0214852Y0046192D01*
X0214620Y0046424D01*
X0213882Y0046961D01*
X0213068Y0047375D01*
X0212200Y0047657D01*
X0211298Y0047800D01*
X0210842Y0047800D01*
X0210842Y0042000D01*
X0210842Y0042000D01*
X0210842Y0047800D01*
X0210385Y0047800D01*
X0209484Y0047657D01*
X0208615Y0047375D01*
X0207802Y0046961D01*
X0207063Y0046424D01*
X0206832Y0046192D01*
X0204920Y0048104D01*
X0202274Y0049200D01*
X0199410Y0049200D01*
X0196763Y0048104D01*
X0195842Y0047182D01*
X0194920Y0048104D01*
X0193414Y0048728D01*
X0225786Y0081100D01*
X0230757Y0081100D01*
X0230857Y0081000D01*
X0235827Y0081000D01*
X0239342Y0084515D01*
X0239342Y0089485D01*
X0235827Y0093000D01*
X0230857Y0093000D01*
X0230757Y0092900D01*
X0222168Y0092900D01*
X0220000Y0092002D01*
X0218340Y0090342D01*
X0198413Y0070415D01*
X0195827Y0073000D01*
X0190857Y0073000D01*
X0187342Y0069485D01*
X0187342Y0064515D01*
X0189927Y0061929D01*
X0157298Y0029300D01*
X0110494Y0029300D01*
X0117460Y0036266D01*
X0117460Y0041000D01*
X0104617Y0041000D01*
X0104617Y0043000D01*
X0102617Y0043000D01*
X0102617Y0055843D01*
X0097884Y0055843D01*
X0090828Y0048787D01*
X0082372Y0057243D01*
X0069745Y0057243D01*
X0060816Y0048314D01*
X0060816Y0035686D01*
X0060816Y0038984D02*
X0043342Y0038984D01*
X0043342Y0040982D02*
X0060816Y0040982D01*
X0060816Y0042981D02*
X0043342Y0042981D01*
X0043342Y0044979D02*
X0060816Y0044979D01*
X0060816Y0046978D02*
X0043342Y0046978D01*
X0043342Y0048976D02*
X0061478Y0048976D01*
X0063477Y0050975D02*
X0043342Y0050975D01*
X0043342Y0052973D02*
X0065475Y0052973D01*
X0067474Y0054972D02*
X0043342Y0054972D01*
X0043342Y0056970D02*
X0069472Y0056970D01*
X0082644Y0056970D02*
X0145749Y0056970D01*
X0145749Y0054972D02*
X0110222Y0054972D01*
X0109351Y0055843D02*
X0104617Y0055842D01*
X0104617Y0043000D01*
X0117460Y0043000D01*
X0117460Y0047734D01*
X0109351Y0055843D01*
X0112220Y0052973D02*
X0145749Y0052973D01*
X0145749Y0050975D02*
X0114219Y0050975D01*
X0116217Y0048976D02*
X0145749Y0048976D01*
X0145493Y0046978D02*
X0117460Y0046978D01*
X0117460Y0044979D02*
X0124816Y0044979D01*
X0123742Y0043905D02*
X0126436Y0046600D01*
X0128342Y0046600D01*
X0128342Y0042000D01*
X0132942Y0042000D01*
X0132942Y0043905D01*
X0130247Y0046600D01*
X0128342Y0046600D01*
X0128342Y0042000D01*
X0128342Y0042000D01*
X0132942Y0042000D01*
X0132942Y0040095D01*
X0130247Y0037400D01*
X0128342Y0037400D01*
X0128342Y0042000D01*
X0128342Y0042000D01*
X0128342Y0042000D01*
X0128342Y0037400D01*
X0126436Y0037400D01*
X0123742Y0040095D01*
X0123742Y0042000D01*
X0128342Y0042000D01*
X0123742Y0042000D01*
X0123742Y0043905D01*
X0123742Y0042981D02*
X0104617Y0042981D01*
X0104617Y0044979D02*
X0102617Y0044979D01*
X0102617Y0046978D02*
X0104617Y0046978D01*
X0104617Y0048976D02*
X0102617Y0048976D01*
X0102617Y0050975D02*
X0104617Y0050975D01*
X0104617Y0052973D02*
X0102617Y0052973D01*
X0102617Y0054972D02*
X0104617Y0054972D01*
X0097013Y0054972D02*
X0084643Y0054972D01*
X0086641Y0052973D02*
X0095014Y0052973D01*
X0093016Y0050975D02*
X0088640Y0050975D01*
X0090638Y0048976D02*
X0091017Y0048976D01*
X0112183Y0030990D02*
X0158988Y0030990D01*
X0160986Y0032988D02*
X0114182Y0032988D01*
X0116180Y0034987D02*
X0162985Y0034987D01*
X0164983Y0036985D02*
X0117460Y0036985D01*
X0117460Y0038984D02*
X0124853Y0038984D01*
X0123742Y0040982D02*
X0117460Y0040982D01*
X0128342Y0040982D02*
X0128342Y0040982D01*
X0128342Y0042000D02*
X0128342Y0042000D01*
X0128342Y0042981D02*
X0128342Y0042981D01*
X0128342Y0044979D02*
X0128342Y0044979D01*
X0131868Y0044979D02*
X0145823Y0044979D01*
X0146962Y0042981D02*
X0132942Y0042981D01*
X0132942Y0040982D02*
X0150091Y0040982D01*
X0153207Y0040982D02*
X0163477Y0040982D01*
X0166592Y0040982D02*
X0168980Y0040982D01*
X0169721Y0042981D02*
X0170979Y0042981D01*
X0170861Y0044979D02*
X0172977Y0044979D01*
X0171235Y0046978D02*
X0174976Y0046978D01*
X0173233Y0048976D02*
X0176974Y0048976D01*
X0175232Y0050975D02*
X0178973Y0050975D01*
X0177230Y0052973D02*
X0180971Y0052973D01*
X0179229Y0054972D02*
X0182970Y0054972D01*
X0181227Y0056970D02*
X0184968Y0056970D01*
X0186967Y0058969D02*
X0182550Y0058969D01*
X0182742Y0060967D02*
X0188965Y0060967D01*
X0188891Y0062966D02*
X0182742Y0062966D01*
X0182742Y0064964D02*
X0187342Y0064964D01*
X0187342Y0066963D02*
X0182742Y0066963D01*
X0182742Y0068961D02*
X0187342Y0068961D01*
X0188816Y0070960D02*
X0182742Y0070960D01*
X0182742Y0072958D02*
X0190815Y0072958D01*
X0195869Y0072958D02*
X0200956Y0072958D01*
X0198958Y0070960D02*
X0197867Y0070960D01*
X0202955Y0074957D02*
X0182742Y0074957D01*
X0182742Y0076955D02*
X0204953Y0076955D01*
X0206952Y0078954D02*
X0182742Y0078954D01*
X0182742Y0080952D02*
X0208950Y0080952D01*
X0210949Y0082951D02*
X0197778Y0082951D01*
X0199342Y0084515D02*
X0195827Y0081000D01*
X0190857Y0081000D01*
X0187342Y0084515D01*
X0187342Y0089485D01*
X0190857Y0093000D01*
X0195827Y0093000D01*
X0199342Y0089485D01*
X0199342Y0084515D01*
X0199342Y0084949D02*
X0212947Y0084949D01*
X0214946Y0086948D02*
X0199342Y0086948D01*
X0199342Y0088946D02*
X0216944Y0088946D01*
X0218340Y0090342D02*
X0218340Y0090342D01*
X0218943Y0090945D02*
X0197882Y0090945D01*
X0195884Y0092943D02*
X0230800Y0092943D01*
X0235884Y0092943D02*
X0310684Y0092943D01*
X0309267Y0090945D02*
X0237882Y0090945D01*
X0239342Y0088946D02*
X0307850Y0088946D01*
X0306433Y0086948D02*
X0239342Y0086948D01*
X0239342Y0084949D02*
X0305016Y0084949D01*
X0303599Y0082951D02*
X0237778Y0082951D01*
X0235247Y0071600D02*
X0233342Y0071600D01*
X0233342Y0067000D01*
X0237942Y0067000D01*
X0237942Y0068905D01*
X0235247Y0071600D01*
X0235887Y0070960D02*
X0295096Y0070960D01*
X0296513Y0072958D02*
X0217644Y0072958D01*
X0215645Y0070960D02*
X0230796Y0070960D01*
X0231436Y0071600D02*
X0228742Y0068905D01*
X0228742Y0067000D01*
X0233342Y0067000D01*
X0233342Y0067000D01*
X0237942Y0067000D01*
X0237942Y0065095D01*
X0235247Y0062400D01*
X0233342Y0062400D01*
X0233342Y0067000D01*
X0233342Y0067000D01*
X0233342Y0067000D01*
X0233342Y0062400D01*
X0231436Y0062400D01*
X0228742Y0065095D01*
X0228742Y0067000D01*
X0233342Y0067000D01*
X0233342Y0071600D01*
X0231436Y0071600D01*
X0233342Y0070960D02*
X0233342Y0070960D01*
X0233342Y0068961D02*
X0233342Y0068961D01*
X0233342Y0067000D02*
X0233342Y0067000D01*
X0233342Y0066963D02*
X0233342Y0066963D01*
X0233342Y0064964D02*
X0233342Y0064964D01*
X0233342Y0062966D02*
X0233342Y0062966D01*
X0235813Y0062966D02*
X0289427Y0062966D01*
X0288010Y0060967D02*
X0205653Y0060967D01*
X0203654Y0058969D02*
X0286593Y0058969D01*
X0285176Y0056970D02*
X0201656Y0056970D01*
X0199657Y0054972D02*
X0283759Y0054972D01*
X0282342Y0052973D02*
X0197659Y0052973D01*
X0195660Y0050975D02*
X0280925Y0050975D01*
X0279508Y0048976D02*
X0242814Y0048976D01*
X0246046Y0046978D02*
X0278090Y0046978D01*
X0276673Y0044979D02*
X0247401Y0044979D01*
X0248042Y0042981D02*
X0275256Y0042981D01*
X0273839Y0040982D02*
X0248042Y0040982D01*
X0247386Y0038984D02*
X0272422Y0038984D01*
X0282636Y0032988D02*
X0301068Y0032988D01*
X0301720Y0032718D02*
X0299524Y0033628D01*
X0297844Y0035308D01*
X0296934Y0037504D01*
X0296934Y0039881D01*
X0297844Y0042077D01*
X0299524Y0043758D01*
X0301720Y0044668D01*
X0304097Y0044668D01*
X0306293Y0043758D01*
X0306846Y0043206D01*
X0307398Y0043758D01*
X0309594Y0044668D01*
X0311971Y0044668D01*
X0314167Y0043758D01*
X0314720Y0043206D01*
X0315272Y0043758D01*
X0317468Y0044668D01*
X0319845Y0044668D01*
X0322041Y0043758D01*
X0323589Y0042210D01*
X0324133Y0042606D01*
X0324775Y0042933D01*
X0325459Y0043155D01*
X0326171Y0043268D01*
X0326531Y0043268D01*
X0326531Y0038693D01*
X0326531Y0038693D01*
X0326531Y0034118D01*
X0326891Y0034118D01*
X0327602Y0034231D01*
X0328287Y0034453D01*
X0328928Y0034780D01*
X0329473Y0035175D01*
X0331020Y0033628D01*
X0333216Y0032718D01*
X0335593Y0032718D01*
X0337789Y0033628D01*
X0338342Y0034180D01*
X0338894Y0033628D01*
X0341090Y0032718D01*
X0343467Y0032718D01*
X0345663Y0033628D01*
X0346216Y0034180D01*
X0346768Y0033628D01*
X0348964Y0032718D01*
X0351341Y0032718D01*
X0353537Y0033628D01*
X0354090Y0034180D01*
X0354642Y0033628D01*
X0356838Y0032718D01*
X0359215Y0032718D01*
X0361411Y0033628D01*
X0361964Y0034180D01*
X0362516Y0033628D01*
X0364712Y0032718D01*
X0367089Y0032718D01*
X0369285Y0033628D01*
X0369838Y0034180D01*
X0370390Y0033628D01*
X0372586Y0032718D01*
X0374963Y0032718D01*
X0377159Y0033628D01*
X0378840Y0035308D01*
X0379750Y0037504D01*
X0379750Y0039881D01*
X0378840Y0042077D01*
X0377159Y0043758D01*
X0374963Y0044668D01*
X0372586Y0044668D01*
X0370390Y0043758D01*
X0369838Y0043206D01*
X0369285Y0043758D01*
X0367089Y0044668D01*
X0364712Y0044668D01*
X0362516Y0043758D01*
X0361964Y0043206D01*
X0361411Y0043758D01*
X0359215Y0044668D01*
X0356838Y0044668D01*
X0354642Y0043758D01*
X0354090Y0043206D01*
X0353537Y0043758D01*
X0351341Y0044668D01*
X0348964Y0044668D01*
X0346768Y0043758D01*
X0346216Y0043206D01*
X0345663Y0043758D01*
X0343467Y0044668D01*
X0341090Y0044668D01*
X0338894Y0043758D01*
X0338342Y0043206D01*
X0337789Y0043758D01*
X0335593Y0044668D01*
X0333216Y0044668D01*
X0331020Y0043758D01*
X0329473Y0042210D01*
X0328928Y0042606D01*
X0328287Y0042933D01*
X0327602Y0043155D01*
X0326891Y0043268D01*
X0326531Y0043268D01*
X0326531Y0038693D01*
X0326531Y0038693D01*
X0326531Y0034118D01*
X0326171Y0034118D01*
X0325459Y0034231D01*
X0324775Y0034453D01*
X0324133Y0034780D01*
X0323589Y0035175D01*
X0322041Y0033628D01*
X0319845Y0032718D01*
X0317468Y0032718D01*
X0315272Y0033628D01*
X0314720Y0034180D01*
X0314167Y0033628D01*
X0311971Y0032718D01*
X0309594Y0032718D01*
X0307398Y0033628D01*
X0306846Y0034180D01*
X0306293Y0033628D01*
X0304097Y0032718D01*
X0301720Y0032718D01*
X0304749Y0032988D02*
X0308942Y0032988D01*
X0312623Y0032988D02*
X0316816Y0032988D01*
X0320497Y0032988D02*
X0332565Y0032988D01*
X0329661Y0034987D02*
X0329213Y0034987D01*
X0326531Y0034987D02*
X0326531Y0034987D01*
X0326531Y0036985D02*
X0326531Y0036985D01*
X0326531Y0038984D02*
X0326531Y0038984D01*
X0326531Y0040982D02*
X0326531Y0040982D01*
X0326531Y0042981D02*
X0326531Y0042981D01*
X0328139Y0042981D02*
X0330243Y0042981D01*
X0324923Y0042981D02*
X0322819Y0042981D01*
X0323400Y0034987D02*
X0323849Y0034987D01*
X0336245Y0032988D02*
X0340439Y0032988D01*
X0344119Y0032988D02*
X0348313Y0032988D01*
X0351993Y0032988D02*
X0356187Y0032988D01*
X0359867Y0032988D02*
X0364061Y0032988D01*
X0367741Y0032988D02*
X0371935Y0032988D01*
X0375615Y0032988D02*
X0383263Y0032988D01*
X0383263Y0030990D02*
X0281219Y0030990D01*
X0279842Y0028991D02*
X0383263Y0028991D01*
X0383263Y0026993D02*
X0377845Y0026993D01*
X0380770Y0024994D02*
X0383263Y0024994D01*
X0383263Y0022996D02*
X0382473Y0022996D01*
X0383263Y0034987D02*
X0378518Y0034987D01*
X0379535Y0036985D02*
X0383263Y0036985D01*
X0383263Y0038984D02*
X0379750Y0038984D01*
X0379294Y0040982D02*
X0383263Y0040982D01*
X0383263Y0042981D02*
X0377937Y0042981D01*
X0383263Y0044979D02*
X0291139Y0044979D01*
X0292556Y0046978D02*
X0383263Y0046978D01*
X0383263Y0048976D02*
X0293973Y0048976D01*
X0295390Y0050975D02*
X0383263Y0050975D01*
X0383263Y0052973D02*
X0296807Y0052973D01*
X0298224Y0054972D02*
X0383263Y0054972D01*
X0383263Y0056970D02*
X0357080Y0056970D01*
X0355910Y0055800D02*
X0359542Y0059432D01*
X0359542Y0064568D01*
X0355910Y0068200D01*
X0350774Y0068200D01*
X0347352Y0064778D01*
X0345330Y0066800D01*
X0343342Y0066800D01*
X0343342Y0062000D01*
X0343342Y0062000D01*
X0343342Y0057200D01*
X0345330Y0057200D01*
X0347352Y0059222D01*
X0350774Y0055800D01*
X0355910Y0055800D01*
X0359079Y0058969D02*
X0383263Y0058969D01*
X0383263Y0060967D02*
X0359542Y0060967D01*
X0359542Y0062966D02*
X0383263Y0062966D01*
X0383263Y0064964D02*
X0359146Y0064964D01*
X0357147Y0066963D02*
X0383263Y0066963D01*
X0383263Y0068961D02*
X0308144Y0068961D01*
X0306727Y0066963D02*
X0349536Y0066963D01*
X0347538Y0064964D02*
X0347166Y0064964D01*
X0343342Y0064964D02*
X0343342Y0064964D01*
X0343342Y0066800D02*
X0341354Y0066800D01*
X0338542Y0063988D01*
X0338542Y0062000D01*
X0343342Y0062000D01*
X0343342Y0062000D01*
X0343342Y0066800D01*
X0343342Y0062966D02*
X0343342Y0062966D01*
X0343342Y0062000D02*
X0343342Y0062000D01*
X0343342Y0057200D01*
X0341354Y0057200D01*
X0338542Y0060012D01*
X0338542Y0062000D01*
X0343342Y0062000D01*
X0343342Y0060967D02*
X0343342Y0060967D01*
X0343342Y0058969D02*
X0343342Y0058969D01*
X0347099Y0058969D02*
X0347605Y0058969D01*
X0349603Y0056970D02*
X0299641Y0056970D01*
X0301059Y0058969D02*
X0339585Y0058969D01*
X0338542Y0060967D02*
X0302476Y0060967D01*
X0303893Y0062966D02*
X0338542Y0062966D01*
X0339518Y0064964D02*
X0305310Y0064964D01*
X0309561Y0070960D02*
X0383263Y0070960D01*
X0383263Y0072958D02*
X0310978Y0072958D01*
X0312396Y0074957D02*
X0383263Y0074957D01*
X0383263Y0076955D02*
X0357065Y0076955D01*
X0355910Y0075800D02*
X0359542Y0079432D01*
X0359542Y0084568D01*
X0355910Y0088200D01*
X0350774Y0088200D01*
X0347352Y0084778D01*
X0345330Y0086800D01*
X0343342Y0086800D01*
X0343342Y0082000D01*
X0343342Y0082000D01*
X0343342Y0077200D01*
X0345330Y0077200D01*
X0347352Y0079222D01*
X0350774Y0075800D01*
X0355910Y0075800D01*
X0359064Y0078954D02*
X0383263Y0078954D01*
X0383263Y0080952D02*
X0359542Y0080952D01*
X0359542Y0082951D02*
X0383263Y0082951D01*
X0383263Y0084949D02*
X0359161Y0084949D01*
X0357162Y0086948D02*
X0383263Y0086948D01*
X0383263Y0088946D02*
X0322315Y0088946D01*
X0320898Y0086948D02*
X0349522Y0086948D01*
X0347523Y0084949D02*
X0347181Y0084949D01*
X0343342Y0084949D02*
X0343342Y0084949D01*
X0343342Y0086800D02*
X0343342Y0082000D01*
X0343342Y0082000D01*
X0343342Y0077200D01*
X0341354Y0077200D01*
X0338542Y0080012D01*
X0338542Y0082000D01*
X0343342Y0082000D01*
X0338542Y0082000D01*
X0338542Y0083988D01*
X0341354Y0086800D01*
X0343342Y0086800D01*
X0343342Y0082951D02*
X0343342Y0082951D01*
X0343342Y0082000D02*
X0343342Y0082000D01*
X0343342Y0080952D02*
X0343342Y0080952D01*
X0343342Y0078954D02*
X0343342Y0078954D01*
X0347084Y0078954D02*
X0347620Y0078954D01*
X0349618Y0076955D02*
X0313813Y0076955D01*
X0315230Y0078954D02*
X0339600Y0078954D01*
X0338542Y0080952D02*
X0316647Y0080952D01*
X0318064Y0082951D02*
X0338542Y0082951D01*
X0339503Y0084949D02*
X0319481Y0084949D01*
X0323733Y0090945D02*
X0383263Y0090945D01*
X0383263Y0092943D02*
X0325150Y0092943D01*
X0326567Y0094942D02*
X0383263Y0094942D01*
X0383263Y0096940D02*
X0357050Y0096940D01*
X0355910Y0095800D02*
X0359542Y0099432D01*
X0359542Y0104568D01*
X0355910Y0108200D01*
X0350774Y0108200D01*
X0347352Y0104778D01*
X0345330Y0106800D01*
X0343342Y0106800D01*
X0343342Y0102000D01*
X0343342Y0102000D01*
X0343342Y0097200D01*
X0345330Y0097200D01*
X0347352Y0099222D01*
X0350774Y0095800D01*
X0355910Y0095800D01*
X0359049Y0098939D02*
X0383263Y0098939D01*
X0383263Y0100937D02*
X0359542Y0100937D01*
X0359542Y0102936D02*
X0383263Y0102936D01*
X0383263Y0104934D02*
X0359175Y0104934D01*
X0357177Y0106933D02*
X0383263Y0106933D01*
X0383263Y0108932D02*
X0336487Y0108932D01*
X0335070Y0106933D02*
X0349507Y0106933D01*
X0347508Y0104934D02*
X0347196Y0104934D01*
X0343342Y0104934D02*
X0343342Y0104934D01*
X0343342Y0106800D02*
X0343342Y0102000D01*
X0343342Y0102000D01*
X0343342Y0097200D01*
X0341354Y0097200D01*
X0338542Y0100012D01*
X0338542Y0102000D01*
X0343342Y0102000D01*
X0338542Y0102000D01*
X0338542Y0103988D01*
X0341354Y0106800D01*
X0343342Y0106800D01*
X0343342Y0102936D02*
X0343342Y0102936D01*
X0343342Y0102000D02*
X0343342Y0102000D01*
X0343342Y0100937D02*
X0343342Y0100937D01*
X0343342Y0098939D02*
X0343342Y0098939D01*
X0347069Y0098939D02*
X0347635Y0098939D01*
X0349633Y0096940D02*
X0327984Y0096940D01*
X0329401Y0098939D02*
X0339615Y0098939D01*
X0338542Y0100937D02*
X0330818Y0100937D01*
X0332235Y0102936D02*
X0338542Y0102936D01*
X0339488Y0104934D02*
X0333652Y0104934D01*
X0323438Y0110930D02*
X0238042Y0110930D01*
X0238042Y0112929D02*
X0324856Y0112929D01*
X0326273Y0114927D02*
X0237423Y0114927D01*
X0236099Y0116926D02*
X0327690Y0116926D01*
X0329048Y0118924D02*
X0232940Y0118924D01*
X0228744Y0118924D02*
X0226488Y0118924D01*
X0228487Y0120923D02*
X0301598Y0120923D01*
X0301837Y0120845D02*
X0302549Y0120732D01*
X0302909Y0120732D01*
X0302909Y0125307D01*
X0302909Y0125307D01*
X0298842Y0129374D01*
X0298842Y0186500D01*
X0283342Y0202000D01*
X0283342Y0197100D01*
X0283342Y0202000D01*
X0283342Y0202000D01*
X0283342Y0200863D02*
X0283342Y0200863D01*
X0283342Y0198865D02*
X0283342Y0198865D01*
X0287120Y0198865D02*
X0287821Y0198865D01*
X0289566Y0196866D02*
X0277117Y0196866D01*
X0278862Y0198865D02*
X0279563Y0198865D01*
X0273342Y0202000D02*
X0293342Y0222000D01*
X0298342Y0222000D01*
X0288342Y0237000D02*
X0288342Y0270000D01*
X0298342Y0280000D01*
X0303299Y0284801D02*
X0303384Y0284801D01*
X0306726Y0286799D02*
X0299958Y0286799D01*
X0296726Y0286799D02*
X0289958Y0286799D01*
X0286726Y0286799D02*
X0279958Y0286799D01*
X0276726Y0286799D02*
X0269958Y0286799D01*
X0266726Y0286799D02*
X0259958Y0286799D01*
X0256726Y0286799D02*
X0109542Y0286799D01*
X0109542Y0284801D02*
X0253384Y0284801D01*
X0252034Y0282802D02*
X0246025Y0282802D01*
X0248024Y0280803D02*
X0251442Y0280803D01*
X0251442Y0278805D02*
X0249342Y0278805D01*
X0249342Y0276806D02*
X0252196Y0276806D01*
X0253776Y0274808D02*
X0249342Y0274808D01*
X0247637Y0272809D02*
X0284929Y0272809D01*
X0283942Y0270811D02*
X0218375Y0270811D01*
X0216377Y0268812D02*
X0283942Y0268812D01*
X0283942Y0266814D02*
X0214378Y0266814D01*
X0212380Y0264815D02*
X0239652Y0264815D01*
X0238742Y0263905D02*
X0238742Y0262000D01*
X0243342Y0262000D01*
X0247942Y0262000D01*
X0247942Y0263905D01*
X0245247Y0266600D01*
X0243342Y0266600D01*
X0243342Y0262000D01*
X0243342Y0262000D01*
X0247942Y0262000D01*
X0247942Y0260095D01*
X0245247Y0257400D01*
X0243342Y0257400D01*
X0243342Y0262000D01*
X0243342Y0262000D01*
X0243342Y0262000D01*
X0243342Y0257400D01*
X0241436Y0257400D01*
X0238742Y0260095D01*
X0238742Y0262000D01*
X0243342Y0262000D01*
X0243342Y0266600D01*
X0241436Y0266600D01*
X0238742Y0263905D01*
X0238742Y0262817D02*
X0210381Y0262817D01*
X0209342Y0260818D02*
X0238742Y0260818D01*
X0240017Y0258820D02*
X0208647Y0258820D01*
X0206648Y0256821D02*
X0283942Y0256821D01*
X0283942Y0254823D02*
X0202104Y0254823D01*
X0200142Y0252824D02*
X0283942Y0252824D01*
X0283942Y0250826D02*
X0200142Y0250826D01*
X0202390Y0248827D02*
X0209294Y0248827D01*
X0212390Y0248827D02*
X0219294Y0248827D01*
X0222390Y0248827D02*
X0229294Y0248827D01*
X0232390Y0248827D02*
X0283942Y0248827D01*
X0283942Y0246829D02*
X0235771Y0246829D01*
X0237138Y0244830D02*
X0283942Y0244830D01*
X0283942Y0242832D02*
X0270995Y0242832D01*
X0270827Y0243000D02*
X0265857Y0243000D01*
X0262342Y0239485D01*
X0262342Y0234515D01*
X0265857Y0231000D01*
X0270827Y0231000D01*
X0274342Y0234515D01*
X0274342Y0239485D01*
X0270827Y0243000D01*
X0272994Y0240833D02*
X0283942Y0240833D01*
X0283942Y0238835D02*
X0274342Y0238835D01*
X0274342Y0236836D02*
X0281956Y0236836D01*
X0279957Y0234838D02*
X0274342Y0234838D01*
X0272666Y0232839D02*
X0277958Y0232839D01*
X0275960Y0230841D02*
X0200142Y0230841D01*
X0200142Y0232839D02*
X0264017Y0232839D01*
X0262342Y0234838D02*
X0200142Y0234838D01*
X0205436Y0236836D02*
X0206247Y0236836D01*
X0215436Y0236836D02*
X0216247Y0236836D01*
X0225436Y0236836D02*
X0226247Y0236836D01*
X0235436Y0236836D02*
X0262342Y0236836D01*
X0262342Y0238835D02*
X0236999Y0238835D01*
X0237742Y0240833D02*
X0263690Y0240833D01*
X0265688Y0242832D02*
X0237742Y0242832D01*
X0225913Y0246829D02*
X0225771Y0246829D01*
X0215913Y0246829D02*
X0215771Y0246829D01*
X0205913Y0246829D02*
X0205771Y0246829D01*
X0191742Y0250826D02*
X0150738Y0250826D01*
X0149342Y0252824D02*
X0191742Y0252824D01*
X0191742Y0254823D02*
X0149004Y0254823D01*
X0147006Y0256821D02*
X0192316Y0256821D01*
X0194222Y0258820D02*
X0134437Y0258820D01*
X0134435Y0260818D02*
X0196221Y0260818D01*
X0197342Y0262817D02*
X0190664Y0262817D01*
X0190247Y0262400D02*
X0192942Y0265095D01*
X0192942Y0267000D01*
X0192942Y0268905D01*
X0190247Y0271600D01*
X0188342Y0271600D01*
X0188342Y0267000D01*
X0192942Y0267000D01*
X0188342Y0267000D01*
X0188342Y0267000D01*
X0188342Y0267000D01*
X0188342Y0262400D01*
X0190247Y0262400D01*
X0188342Y0262400D02*
X0188342Y0267000D01*
X0188342Y0267000D01*
X0188342Y0271600D01*
X0186436Y0271600D01*
X0183742Y0268905D01*
X0183742Y0267000D01*
X0188342Y0267000D01*
X0183742Y0267000D01*
X0183742Y0265095D01*
X0186436Y0262400D01*
X0188342Y0262400D01*
X0188342Y0262817D02*
X0188342Y0262817D01*
X0188342Y0264815D02*
X0188342Y0264815D01*
X0188342Y0266814D02*
X0188342Y0266814D01*
X0188342Y0267000D02*
X0188342Y0267000D01*
X0188342Y0268812D02*
X0188342Y0268812D01*
X0188342Y0270811D02*
X0188342Y0270811D01*
X0191036Y0270811D02*
X0205930Y0270811D01*
X0205827Y0271000D02*
X0209342Y0274515D01*
X0209342Y0279485D01*
X0205827Y0283000D01*
X0200857Y0283000D01*
X0197342Y0279485D01*
X0197342Y0274515D01*
X0200857Y0271000D01*
X0205827Y0271000D01*
X0207637Y0272809D02*
X0207929Y0272809D01*
X0209342Y0274808D02*
X0209927Y0274808D01*
X0209342Y0276806D02*
X0211926Y0276806D01*
X0213924Y0278805D02*
X0209342Y0278805D01*
X0208024Y0280803D02*
X0216027Y0280803D01*
X0218342Y0277000D02*
X0243342Y0277000D01*
X0240659Y0282802D02*
X0206025Y0282802D01*
X0200659Y0282802D02*
X0107912Y0282802D01*
X0109542Y0284432D02*
X0105910Y0280800D01*
X0100774Y0280800D01*
X0097352Y0284222D01*
X0095330Y0282200D01*
X0093342Y0282200D01*
X0093342Y0287000D01*
X0093342Y0287000D01*
X0093342Y0291800D01*
X0095330Y0291800D01*
X0097352Y0289778D01*
X0100774Y0293200D01*
X0105910Y0293200D01*
X0109542Y0289568D01*
X0109542Y0284432D01*
X0109542Y0288798D02*
X0362910Y0288798D01*
X0362436Y0290796D02*
X0108314Y0290796D01*
X0106315Y0292795D02*
X0362436Y0292795D01*
X0362800Y0294793D02*
X0077337Y0294793D01*
X0078142Y0293988D02*
X0075330Y0296800D01*
X0073342Y0296800D01*
X0073342Y0292000D01*
X0078142Y0292000D01*
X0078142Y0293988D01*
X0078142Y0292795D02*
X0100368Y0292795D01*
X0098370Y0290796D02*
X0096334Y0290796D01*
X0093342Y0290796D02*
X0093342Y0290796D01*
X0093342Y0291800D02*
X0091354Y0291800D01*
X0088542Y0288988D01*
X0088542Y0287000D01*
X0093342Y0287000D01*
X0093342Y0287000D01*
X0093342Y0291800D01*
X0093342Y0288798D02*
X0093342Y0288798D01*
X0093342Y0287000D02*
X0093342Y0287000D01*
X0093342Y0282200D01*
X0091354Y0282200D01*
X0088542Y0285012D01*
X0088542Y0287000D01*
X0093342Y0287000D01*
X0093342Y0286799D02*
X0093342Y0286799D01*
X0093342Y0284801D02*
X0093342Y0284801D01*
X0093342Y0282802D02*
X0093342Y0282802D01*
X0095932Y0282802D02*
X0098772Y0282802D01*
X0100770Y0280803D02*
X0079542Y0280803D01*
X0079542Y0279432D02*
X0079542Y0284568D01*
X0076120Y0287990D01*
X0078142Y0290012D01*
X0078142Y0292000D01*
X0073342Y0292000D01*
X0073342Y0292000D01*
X0073342Y0292000D01*
X0073342Y0296800D01*
X0071354Y0296800D01*
X0068542Y0293988D01*
X0068542Y0292000D01*
X0068542Y0290012D01*
X0070564Y0287990D01*
X0067142Y0284568D01*
X0067142Y0279432D01*
X0067442Y0279132D01*
X0067442Y0270826D01*
X0068340Y0268658D01*
X0070227Y0266771D01*
X0069675Y0267000D01*
X0067009Y0267000D01*
X0064547Y0265980D01*
X0062662Y0264095D01*
X0062028Y0262566D01*
X0053584Y0254121D01*
X0051221Y0251758D01*
X0049942Y0248671D01*
X0049942Y0150329D01*
X0051221Y0147242D01*
X0053584Y0144879D01*
X0079942Y0118521D01*
X0079942Y0110353D01*
X0079583Y0110469D01*
X0078759Y0110600D01*
X0078442Y0110600D01*
X0078442Y0102100D01*
X0078242Y0102100D01*
X0078242Y0110600D01*
X0077925Y0110600D01*
X0077101Y0110469D01*
X0076307Y0110212D01*
X0075564Y0109833D01*
X0074889Y0109343D01*
X0074299Y0108753D01*
X0074213Y0108634D01*
X0074022Y0109095D01*
X0072137Y0110980D01*
X0069675Y0112000D01*
X0067009Y0112000D01*
X0064547Y0110980D01*
X0062662Y0109095D01*
X0061642Y0106633D01*
X0061642Y0097367D01*
X0062662Y0094905D01*
X0064547Y0093020D01*
X0067009Y0092000D01*
X0069675Y0092000D01*
X0072137Y0093020D01*
X0074022Y0094905D01*
X0074213Y0095366D01*
X0074299Y0095247D01*
X0074889Y0094657D01*
X0075564Y0094167D01*
X0076307Y0093788D01*
X0077101Y0093530D01*
X0077925Y0093400D01*
X0078242Y0093400D01*
X0078242Y0101900D01*
X0078442Y0101900D01*
X0078442Y0093400D01*
X0078759Y0093400D01*
X0079583Y0093530D01*
X0080376Y0093788D01*
X0081120Y0094167D01*
X0081795Y0094657D01*
X0082384Y0095247D01*
X0082471Y0095366D01*
X0082662Y0094905D01*
X0084547Y0093020D01*
X0086192Y0092339D01*
X0086192Y0080578D01*
X0087280Y0077950D01*
X0089292Y0075939D01*
X0091920Y0074850D01*
X0094764Y0074850D01*
X0097392Y0075939D01*
X0099403Y0077950D01*
X0099755Y0078799D01*
X0101354Y0077200D01*
X0103342Y0077200D01*
X0105330Y0077200D01*
X0108142Y0080012D01*
X0108142Y0082000D01*
X0108142Y0083988D01*
X0105330Y0086800D01*
X0103342Y0086800D01*
X0103342Y0082000D01*
X0108142Y0082000D01*
X0103342Y0082000D01*
X0103342Y0082000D01*
X0103342Y0082000D01*
X0103342Y0077200D01*
X0103342Y0082000D01*
X0103342Y0082000D01*
X0103342Y0086800D01*
X0101354Y0086800D01*
X0100492Y0085938D01*
X0100492Y0098422D01*
X0099403Y0101050D01*
X0097392Y0103061D01*
X0096742Y0103712D01*
X0096742Y0123671D01*
X0095463Y0126758D01*
X0073905Y0148316D01*
X0076578Y0147600D01*
X0080106Y0147600D01*
X0083514Y0148513D01*
X0086570Y0150277D01*
X0089064Y0152772D01*
X0090829Y0155828D01*
X0091742Y0159236D01*
X0091742Y0162764D01*
X0090829Y0166172D01*
X0089064Y0169228D01*
X0086570Y0171723D01*
X0083514Y0173487D01*
X0080106Y0174400D01*
X0076578Y0174400D01*
X0073170Y0173487D01*
X0070114Y0171723D01*
X0067619Y0169228D01*
X0066742Y0167708D01*
X0066742Y0191292D01*
X0067619Y0189772D01*
X0070114Y0187277D01*
X0073170Y0185513D01*
X0076578Y0184600D01*
X0080106Y0184600D01*
X0083514Y0185513D01*
X0086570Y0187277D01*
X0089064Y0189772D01*
X0090829Y0192828D01*
X0091742Y0196236D01*
X0091742Y0199764D01*
X0090829Y0203172D01*
X0089064Y0206228D01*
X0086570Y0208723D01*
X0083514Y0210487D01*
X0080106Y0211400D01*
X0076578Y0211400D01*
X0073170Y0210487D01*
X0070114Y0208723D01*
X0067619Y0206228D01*
X0066742Y0204708D01*
X0066742Y0240256D01*
X0070000Y0236998D01*
X0072168Y0236100D01*
X0094515Y0236100D01*
X0096684Y0236998D01*
X0098344Y0238658D01*
X0105686Y0246000D01*
X0105827Y0246000D01*
X0109342Y0249515D01*
X0109342Y0254485D01*
X0105827Y0258000D01*
X0100857Y0258000D01*
X0097342Y0254485D01*
X0097342Y0254344D01*
X0090898Y0247900D01*
X0081847Y0247900D01*
X0082137Y0248020D01*
X0084022Y0249905D01*
X0084213Y0250366D01*
X0084299Y0250247D01*
X0084889Y0249657D01*
X0085564Y0249167D01*
X0086307Y0248788D01*
X0087101Y0248530D01*
X0087925Y0248400D01*
X0088242Y0248400D01*
X0088242Y0256900D01*
X0088442Y0256900D01*
X0088442Y0257100D01*
X0093642Y0257100D01*
X0093642Y0260717D01*
X0093511Y0261541D01*
X0093253Y0262334D01*
X0092875Y0263078D01*
X0092384Y0263753D01*
X0091795Y0264343D01*
X0091120Y0264833D01*
X0090376Y0265212D01*
X0089583Y0265469D01*
X0088759Y0265600D01*
X0088442Y0265600D01*
X0088442Y0257100D01*
X0088242Y0257100D01*
X0088242Y0265600D01*
X0087925Y0265600D01*
X0087101Y0265469D01*
X0086307Y0265212D01*
X0085564Y0264833D01*
X0084889Y0264343D01*
X0084299Y0263753D01*
X0084242Y0263674D01*
X0084242Y0264556D01*
X0085786Y0266100D01*
X0109205Y0266100D01*
X0111174Y0264131D01*
X0111430Y0263513D01*
X0113162Y0261781D01*
X0115424Y0260844D01*
X0117873Y0260844D01*
X0120136Y0261781D01*
X0121868Y0263513D01*
X0122805Y0265776D01*
X0122805Y0268224D01*
X0121868Y0270487D01*
X0120136Y0272219D01*
X0119518Y0272475D01*
X0114991Y0277002D01*
X0112822Y0277900D01*
X0082168Y0277900D01*
X0080000Y0277002D01*
X0079242Y0276244D01*
X0079242Y0279132D01*
X0079542Y0279432D01*
X0079242Y0278805D02*
X0197342Y0278805D01*
X0197342Y0276806D02*
X0115186Y0276806D01*
X0117185Y0274808D02*
X0197342Y0274808D01*
X0199047Y0272809D02*
X0151018Y0272809D01*
X0150827Y0273000D02*
X0145857Y0273000D01*
X0142342Y0269485D01*
X0142342Y0264515D01*
X0145857Y0261000D01*
X0150827Y0261000D01*
X0154342Y0264515D01*
X0154342Y0269485D01*
X0150827Y0273000D01*
X0153016Y0270811D02*
X0185647Y0270811D01*
X0183742Y0268812D02*
X0154342Y0268812D01*
X0154342Y0266814D02*
X0183742Y0266814D01*
X0184021Y0264815D02*
X0154342Y0264815D01*
X0152644Y0262817D02*
X0186020Y0262817D01*
X0192663Y0264815D02*
X0197672Y0264815D01*
X0199670Y0266814D02*
X0192942Y0266814D01*
X0192942Y0268812D02*
X0203932Y0268812D01*
X0203342Y0262000D02*
X0218342Y0277000D01*
X0198660Y0280803D02*
X0105913Y0280803D01*
X0119183Y0272809D02*
X0127974Y0272809D01*
X0125140Y0270811D02*
X0121544Y0270811D01*
X0122561Y0268812D02*
X0124122Y0268812D01*
X0123879Y0266814D02*
X0122805Y0266814D01*
X0122407Y0264815D02*
X0124277Y0264815D01*
X0125512Y0262817D02*
X0121172Y0262817D01*
X0125635Y0260818D02*
X0093626Y0260818D01*
X0093642Y0258820D02*
X0125635Y0258820D01*
X0125635Y0256821D02*
X0107006Y0256821D01*
X0109004Y0254823D02*
X0126174Y0254823D01*
X0127988Y0252824D02*
X0109342Y0252824D01*
X0109342Y0250826D02*
X0129986Y0250826D01*
X0131985Y0248827D02*
X0108654Y0248827D01*
X0106656Y0246829D02*
X0133983Y0246829D01*
X0135982Y0244830D02*
X0104516Y0244830D01*
X0102517Y0242832D02*
X0137980Y0242832D01*
X0139979Y0240833D02*
X0100519Y0240833D01*
X0098520Y0238835D02*
X0141977Y0238835D01*
X0143976Y0236836D02*
X0133904Y0236836D01*
X0133522Y0237219D02*
X0131259Y0238156D01*
X0128810Y0238156D01*
X0126548Y0237219D01*
X0124816Y0235487D01*
X0123879Y0233224D01*
X0123879Y0230776D01*
X0124816Y0228513D01*
X0126548Y0226781D01*
X0128810Y0225844D01*
X0131259Y0225844D01*
X0133522Y0226781D01*
X0135253Y0228513D01*
X0136191Y0230776D01*
X0136191Y0233224D01*
X0135253Y0235487D01*
X0133522Y0237219D01*
X0135522Y0234838D02*
X0144942Y0234838D01*
X0144942Y0232839D02*
X0136191Y0232839D01*
X0136191Y0230841D02*
X0144942Y0230841D01*
X0144942Y0228842D02*
X0135390Y0228842D01*
X0133584Y0226844D02*
X0142963Y0226844D01*
X0140964Y0224845D02*
X0066742Y0224845D01*
X0066742Y0222847D02*
X0138966Y0222847D01*
X0136967Y0220848D02*
X0066742Y0220848D01*
X0066742Y0218850D02*
X0134969Y0218850D01*
X0132970Y0216851D02*
X0066742Y0216851D01*
X0066742Y0214853D02*
X0130972Y0214853D01*
X0128973Y0212854D02*
X0066742Y0212854D01*
X0066742Y0210856D02*
X0074546Y0210856D01*
X0070347Y0208857D02*
X0066742Y0208857D01*
X0066742Y0206859D02*
X0068250Y0206859D01*
X0066829Y0204860D02*
X0066742Y0204860D01*
X0066742Y0190870D02*
X0066985Y0190870D01*
X0066742Y0188872D02*
X0068519Y0188872D01*
X0066742Y0186873D02*
X0070814Y0186873D01*
X0066742Y0184875D02*
X0075552Y0184875D01*
X0081132Y0184875D02*
X0118942Y0184875D01*
X0118942Y0186873D02*
X0085870Y0186873D01*
X0088164Y0188872D02*
X0118942Y0188872D01*
X0118942Y0190870D02*
X0089699Y0190870D01*
X0090840Y0192869D02*
X0118942Y0192869D01*
X0118942Y0194868D02*
X0091375Y0194868D01*
X0091742Y0196866D02*
X0118942Y0196866D01*
X0118942Y0198865D02*
X0091742Y0198865D01*
X0091447Y0200863D02*
X0118942Y0200863D01*
X0119350Y0202862D02*
X0090912Y0202862D01*
X0089854Y0204860D02*
X0120979Y0204860D01*
X0122978Y0206859D02*
X0088434Y0206859D01*
X0086337Y0208857D02*
X0124976Y0208857D01*
X0126975Y0210856D02*
X0082138Y0210856D01*
X0066742Y0226844D02*
X0113099Y0226844D01*
X0113162Y0226781D02*
X0115424Y0225844D01*
X0117873Y0225844D01*
X0120136Y0226781D01*
X0121868Y0228513D01*
X0122805Y0230776D01*
X0122805Y0233224D01*
X0121868Y0235487D01*
X0120136Y0237219D01*
X0117873Y0238156D01*
X0115424Y0238156D01*
X0113162Y0237219D01*
X0111430Y0235487D01*
X0110493Y0233224D01*
X0110493Y0230776D01*
X0111430Y0228513D01*
X0113162Y0226781D01*
X0111294Y0228842D02*
X0066742Y0228842D01*
X0066742Y0230841D02*
X0110493Y0230841D01*
X0110493Y0232839D02*
X0066742Y0232839D01*
X0066742Y0234838D02*
X0111161Y0234838D01*
X0112779Y0236836D02*
X0096293Y0236836D01*
X0089583Y0248530D02*
X0088759Y0248400D01*
X0088442Y0248400D01*
X0088442Y0256900D01*
X0093642Y0256900D01*
X0093642Y0253283D01*
X0093511Y0252459D01*
X0093253Y0251666D01*
X0092875Y0250922D01*
X0092384Y0250247D01*
X0091795Y0249657D01*
X0091120Y0249167D01*
X0090376Y0248788D01*
X0089583Y0248530D01*
X0090453Y0248827D02*
X0091825Y0248827D01*
X0092805Y0250826D02*
X0093824Y0250826D01*
X0093569Y0252824D02*
X0095822Y0252824D01*
X0097679Y0254823D02*
X0093642Y0254823D01*
X0093642Y0256821D02*
X0099678Y0256821D01*
X0093008Y0262817D02*
X0112126Y0262817D01*
X0110490Y0264815D02*
X0091144Y0264815D01*
X0088442Y0264815D02*
X0088242Y0264815D01*
X0088242Y0262817D02*
X0088442Y0262817D01*
X0088442Y0260818D02*
X0088242Y0260818D01*
X0088242Y0258820D02*
X0088442Y0258820D01*
X0088442Y0256821D02*
X0088242Y0256821D01*
X0088242Y0254823D02*
X0088442Y0254823D01*
X0088442Y0252824D02*
X0088242Y0252824D01*
X0088242Y0250826D02*
X0088442Y0250826D01*
X0088442Y0248827D02*
X0088242Y0248827D01*
X0086231Y0248827D02*
X0082944Y0248827D01*
X0084501Y0264815D02*
X0085540Y0264815D01*
X0079804Y0276806D02*
X0079242Y0276806D01*
X0079542Y0282802D02*
X0090752Y0282802D01*
X0088753Y0284801D02*
X0079309Y0284801D01*
X0077311Y0286799D02*
X0088542Y0286799D01*
X0088542Y0288798D02*
X0076928Y0288798D01*
X0078142Y0290796D02*
X0090350Y0290796D01*
X0075338Y0296792D02*
X0363516Y0296792D01*
X0364709Y0298790D02*
X0061974Y0298790D01*
X0063168Y0296792D02*
X0071345Y0296792D01*
X0073342Y0296792D02*
X0073342Y0296792D01*
X0073342Y0294793D02*
X0073342Y0294793D01*
X0073342Y0292795D02*
X0073342Y0292795D01*
X0073342Y0292000D02*
X0068542Y0292000D01*
X0073342Y0292000D01*
X0073342Y0292000D01*
X0069756Y0288798D02*
X0063774Y0288798D01*
X0064247Y0290796D02*
X0068542Y0290796D01*
X0068542Y0292795D02*
X0064247Y0292795D01*
X0063884Y0294793D02*
X0069347Y0294793D01*
X0069373Y0286799D02*
X0062932Y0286799D01*
X0061565Y0284801D02*
X0067374Y0284801D01*
X0067142Y0282802D02*
X0059221Y0282802D01*
X0067142Y0280803D02*
X0043342Y0280803D01*
X0043342Y0278805D02*
X0067442Y0278805D01*
X0067442Y0276806D02*
X0043342Y0276806D01*
X0043342Y0274808D02*
X0067442Y0274808D01*
X0067442Y0272809D02*
X0043342Y0272809D01*
X0043342Y0270811D02*
X0067448Y0270811D01*
X0068276Y0268812D02*
X0043342Y0268812D01*
X0043342Y0266814D02*
X0066560Y0266814D01*
X0070124Y0266814D02*
X0070184Y0266814D01*
X0063382Y0264815D02*
X0043342Y0264815D01*
X0043342Y0262817D02*
X0062132Y0262817D01*
X0060281Y0260818D02*
X0043342Y0260818D01*
X0043342Y0258820D02*
X0058282Y0258820D01*
X0056284Y0256821D02*
X0043342Y0256821D01*
X0043342Y0254823D02*
X0054285Y0254823D01*
X0052287Y0252824D02*
X0043342Y0252824D01*
X0043342Y0250826D02*
X0050834Y0250826D01*
X0050007Y0248827D02*
X0043342Y0248827D01*
X0043342Y0246829D02*
X0049942Y0246829D01*
X0049942Y0244830D02*
X0043342Y0244830D01*
X0043342Y0242832D02*
X0049942Y0242832D01*
X0049942Y0240833D02*
X0043342Y0240833D01*
X0043342Y0238835D02*
X0049942Y0238835D01*
X0049942Y0236836D02*
X0043342Y0236836D01*
X0043342Y0234838D02*
X0049942Y0234838D01*
X0049942Y0232839D02*
X0043342Y0232839D01*
X0043342Y0230841D02*
X0049942Y0230841D01*
X0049942Y0228842D02*
X0043342Y0228842D01*
X0043342Y0226844D02*
X0049942Y0226844D01*
X0049942Y0224845D02*
X0043342Y0224845D01*
X0043342Y0222847D02*
X0049942Y0222847D01*
X0049942Y0220848D02*
X0043342Y0220848D01*
X0043342Y0218850D02*
X0049942Y0218850D01*
X0049942Y0216851D02*
X0043342Y0216851D01*
X0043342Y0214853D02*
X0049942Y0214853D01*
X0049942Y0212854D02*
X0043342Y0212854D01*
X0043342Y0210856D02*
X0049942Y0210856D01*
X0049942Y0208857D02*
X0043342Y0208857D01*
X0043342Y0206859D02*
X0049942Y0206859D01*
X0049942Y0204860D02*
X0043342Y0204860D01*
X0043342Y0202862D02*
X0049942Y0202862D01*
X0049942Y0200863D02*
X0043342Y0200863D01*
X0043342Y0198865D02*
X0049942Y0198865D01*
X0049942Y0196866D02*
X0043342Y0196866D01*
X0043342Y0194868D02*
X0049942Y0194868D01*
X0049942Y0192869D02*
X0043342Y0192869D01*
X0043342Y0190870D02*
X0049942Y0190870D01*
X0049942Y0188872D02*
X0043342Y0188872D01*
X0043342Y0186873D02*
X0049942Y0186873D01*
X0049942Y0184875D02*
X0043342Y0184875D01*
X0043342Y0182876D02*
X0049942Y0182876D01*
X0049942Y0180878D02*
X0043342Y0180878D01*
X0043342Y0178879D02*
X0049942Y0178879D01*
X0049942Y0176881D02*
X0043342Y0176881D01*
X0043342Y0174882D02*
X0049942Y0174882D01*
X0049942Y0172884D02*
X0043342Y0172884D01*
X0043342Y0170885D02*
X0049942Y0170885D01*
X0049942Y0168887D02*
X0043342Y0168887D01*
X0043342Y0166888D02*
X0049942Y0166888D01*
X0049942Y0164890D02*
X0043342Y0164890D01*
X0043342Y0162891D02*
X0049942Y0162891D01*
X0049942Y0160893D02*
X0043342Y0160893D01*
X0043342Y0158894D02*
X0049942Y0158894D01*
X0049942Y0156896D02*
X0043342Y0156896D01*
X0043342Y0154897D02*
X0049942Y0154897D01*
X0049942Y0152899D02*
X0043342Y0152899D01*
X0043342Y0150900D02*
X0049942Y0150900D01*
X0050533Y0148902D02*
X0043342Y0148902D01*
X0043342Y0146903D02*
X0051559Y0146903D01*
X0053558Y0144905D02*
X0043342Y0144905D01*
X0043342Y0142906D02*
X0055556Y0142906D01*
X0057555Y0140908D02*
X0043342Y0140908D01*
X0043342Y0138909D02*
X0059553Y0138909D01*
X0061552Y0136911D02*
X0043342Y0136911D01*
X0043342Y0134912D02*
X0063550Y0134912D01*
X0065549Y0132914D02*
X0043342Y0132914D01*
X0043342Y0130915D02*
X0067547Y0130915D01*
X0069546Y0128917D02*
X0043342Y0128917D01*
X0043342Y0126918D02*
X0071544Y0126918D01*
X0073543Y0124920D02*
X0043342Y0124920D01*
X0043342Y0122921D02*
X0075541Y0122921D01*
X0077540Y0120923D02*
X0043342Y0120923D01*
X0043342Y0118924D02*
X0079538Y0118924D01*
X0079942Y0116926D02*
X0043342Y0116926D01*
X0043342Y0114927D02*
X0079942Y0114927D01*
X0079942Y0112929D02*
X0043342Y0112929D01*
X0043342Y0110930D02*
X0064497Y0110930D01*
X0062594Y0108932D02*
X0043342Y0108932D01*
X0043342Y0106933D02*
X0061766Y0106933D01*
X0061642Y0104934D02*
X0043342Y0104934D01*
X0043342Y0102936D02*
X0061642Y0102936D01*
X0061642Y0100937D02*
X0043342Y0100937D01*
X0043342Y0098939D02*
X0061642Y0098939D01*
X0061819Y0096940D02*
X0043342Y0096940D01*
X0043342Y0094942D02*
X0062646Y0094942D01*
X0064731Y0092943D02*
X0043342Y0092943D01*
X0043342Y0090945D02*
X0086192Y0090945D01*
X0086192Y0088946D02*
X0043342Y0088946D01*
X0043342Y0086948D02*
X0059522Y0086948D01*
X0060774Y0088200D02*
X0057142Y0084568D01*
X0057142Y0079432D01*
X0060774Y0075800D01*
X0065910Y0075800D01*
X0069332Y0079222D01*
X0071354Y0077200D01*
X0073342Y0077200D01*
X0075330Y0077200D01*
X0078142Y0080012D01*
X0078142Y0082000D01*
X0078142Y0083988D01*
X0075330Y0086800D01*
X0073342Y0086800D01*
X0073342Y0082000D01*
X0078142Y0082000D01*
X0073342Y0082000D01*
X0073342Y0082000D01*
X0073342Y0082000D01*
X0073342Y0077200D01*
X0073342Y0082000D01*
X0073342Y0082000D01*
X0073342Y0086800D01*
X0071354Y0086800D01*
X0069332Y0084778D01*
X0065910Y0088200D01*
X0060774Y0088200D01*
X0057523Y0084949D02*
X0043342Y0084949D01*
X0043342Y0082951D02*
X0057142Y0082951D01*
X0057142Y0080952D02*
X0043342Y0080952D01*
X0043342Y0078954D02*
X0057620Y0078954D01*
X0059618Y0076955D02*
X0043342Y0076955D01*
X0043342Y0074957D02*
X0091662Y0074957D01*
X0095022Y0074957D02*
X0117041Y0074957D01*
X0115043Y0076955D02*
X0098409Y0076955D01*
X0103342Y0078954D02*
X0103342Y0078954D01*
X0103342Y0080952D02*
X0103342Y0080952D01*
X0103342Y0082951D02*
X0103342Y0082951D01*
X0103342Y0084949D02*
X0103342Y0084949D01*
X0100492Y0086948D02*
X0112442Y0086948D01*
X0112442Y0088946D02*
X0100492Y0088946D01*
X0100492Y0090945D02*
X0112442Y0090945D01*
X0112442Y0092943D02*
X0100492Y0092943D01*
X0100492Y0094942D02*
X0112342Y0094942D01*
X0112342Y0096940D02*
X0100492Y0096940D01*
X0100278Y0098939D02*
X0112342Y0098939D01*
X0112401Y0100937D02*
X0099450Y0100937D01*
X0097517Y0102936D02*
X0113229Y0102936D01*
X0115542Y0104934D02*
X0096742Y0104934D01*
X0096742Y0106933D02*
X0131852Y0106933D01*
X0133851Y0108932D02*
X0126779Y0108932D01*
X0127942Y0110095D02*
X0127942Y0112000D01*
X0127942Y0113905D01*
X0125247Y0116600D01*
X0123342Y0116600D01*
X0123342Y0112000D01*
X0127942Y0112000D01*
X0123342Y0112000D01*
X0123342Y0112000D01*
X0123342Y0112000D01*
X0123342Y0107400D01*
X0125247Y0107400D01*
X0127942Y0110095D01*
X0127942Y0110930D02*
X0151049Y0110930D01*
X0153048Y0112929D02*
X0127942Y0112929D01*
X0126920Y0114927D02*
X0155046Y0114927D01*
X0157045Y0116926D02*
X0096742Y0116926D01*
X0096742Y0118924D02*
X0134912Y0118924D01*
X0133742Y0120095D02*
X0136436Y0117400D01*
X0138342Y0117400D01*
X0140247Y0117400D01*
X0142942Y0120095D01*
X0142942Y0122000D01*
X0142942Y0123905D01*
X0140247Y0126600D01*
X0138342Y0126600D01*
X0138342Y0122000D01*
X0142942Y0122000D01*
X0138342Y0122000D01*
X0138342Y0122000D01*
X0138342Y0122000D01*
X0138342Y0117400D01*
X0138342Y0122000D01*
X0138342Y0122000D01*
X0138342Y0126600D01*
X0136436Y0126600D01*
X0133742Y0123905D01*
X0133742Y0122000D01*
X0138342Y0122000D01*
X0133742Y0122000D01*
X0133742Y0120095D01*
X0133742Y0120923D02*
X0096742Y0120923D01*
X0096742Y0122921D02*
X0133742Y0122921D01*
X0134756Y0124920D02*
X0096225Y0124920D01*
X0095303Y0126918D02*
X0167037Y0126918D01*
X0165039Y0124920D02*
X0141928Y0124920D01*
X0142942Y0122921D02*
X0163040Y0122921D01*
X0161042Y0120923D02*
X0142942Y0120923D01*
X0141771Y0118924D02*
X0159043Y0118924D01*
X0165035Y0108693D02*
X0178342Y0122000D01*
X0188342Y0122000D02*
X0223342Y0122000D01*
X0228342Y0127000D01*
X0228342Y0147000D01*
X0233342Y0152000D01*
X0246978Y0152000D01*
X0263342Y0168364D01*
X0263342Y0202000D01*
X0259291Y0206859D02*
X0257393Y0206859D01*
X0263942Y0208857D02*
X0200142Y0208857D01*
X0200142Y0210856D02*
X0263942Y0210856D01*
X0263942Y0212854D02*
X0200142Y0212854D01*
X0200142Y0214853D02*
X0263942Y0214853D01*
X0263942Y0216851D02*
X0200142Y0216851D01*
X0200142Y0218850D02*
X0264345Y0218850D01*
X0265967Y0220848D02*
X0200142Y0220848D01*
X0200142Y0222847D02*
X0267966Y0222847D01*
X0269964Y0224845D02*
X0200142Y0224845D01*
X0200142Y0226844D02*
X0271963Y0226844D01*
X0273961Y0228842D02*
X0200142Y0228842D01*
X0191742Y0228842D02*
X0163010Y0228842D01*
X0165008Y0226844D02*
X0191742Y0226844D01*
X0191742Y0224845D02*
X0167007Y0224845D01*
X0169005Y0222847D02*
X0191742Y0222847D01*
X0191742Y0220848D02*
X0171004Y0220848D01*
X0173002Y0218850D02*
X0191742Y0218850D01*
X0191742Y0216851D02*
X0175001Y0216851D01*
X0176999Y0214853D02*
X0191742Y0214853D01*
X0191742Y0212854D02*
X0178998Y0212854D01*
X0180996Y0210856D02*
X0191742Y0210856D01*
X0191742Y0208857D02*
X0182995Y0208857D01*
X0187393Y0206859D02*
X0189291Y0206859D01*
X0183342Y0202287D02*
X0155742Y0229887D01*
X0155742Y0239600D01*
X0143342Y0252000D01*
X0139678Y0256821D02*
X0136436Y0256821D01*
X0130035Y0257000D02*
X0149342Y0237693D01*
X0149342Y0227000D01*
X0149342Y0226000D01*
X0173342Y0202000D01*
X0177117Y0196866D02*
X0179566Y0196866D01*
X0183342Y0202000D02*
X0183342Y0202287D01*
X0187117Y0196866D02*
X0189566Y0196866D01*
X0197117Y0196866D02*
X0199566Y0196866D01*
X0207117Y0196866D02*
X0209566Y0196866D01*
X0217117Y0196866D02*
X0219566Y0196866D01*
X0222988Y0192869D02*
X0127742Y0192869D01*
X0127742Y0190870D02*
X0220990Y0190870D01*
X0218991Y0188872D02*
X0127742Y0188872D01*
X0127742Y0186873D02*
X0216993Y0186873D01*
X0214994Y0184875D02*
X0127742Y0184875D01*
X0127742Y0182876D02*
X0212996Y0182876D01*
X0210997Y0180878D02*
X0127742Y0180878D01*
X0127742Y0178879D02*
X0208999Y0178879D01*
X0207000Y0176881D02*
X0127742Y0176881D01*
X0127742Y0174882D02*
X0205002Y0174882D01*
X0203003Y0172884D02*
X0127742Y0172884D01*
X0127742Y0170885D02*
X0201005Y0170885D01*
X0199006Y0168887D02*
X0127742Y0168887D01*
X0127742Y0166888D02*
X0144745Y0166888D01*
X0145857Y0168000D02*
X0142342Y0164485D01*
X0142342Y0159515D01*
X0145857Y0156000D01*
X0150827Y0156000D01*
X0154342Y0159515D01*
X0154342Y0164485D01*
X0150827Y0168000D01*
X0145857Y0168000D01*
X0142746Y0164890D02*
X0127742Y0164890D01*
X0127742Y0162891D02*
X0142342Y0162891D01*
X0142342Y0160893D02*
X0127742Y0160893D01*
X0127742Y0158894D02*
X0142962Y0158894D01*
X0144961Y0156896D02*
X0127742Y0156896D01*
X0128930Y0154897D02*
X0185017Y0154897D01*
X0183952Y0152899D02*
X0129342Y0152899D01*
X0129342Y0150900D02*
X0183942Y0150900D01*
X0183942Y0148902D02*
X0128729Y0148902D01*
X0126730Y0146903D02*
X0149336Y0146903D01*
X0147726Y0144905D02*
X0147288Y0144905D01*
X0143342Y0144905D02*
X0143342Y0144905D01*
X0143342Y0146900D02*
X0143342Y0142000D01*
X0143342Y0142000D01*
X0143342Y0137100D01*
X0142956Y0137100D01*
X0142194Y0137221D01*
X0141461Y0137459D01*
X0140774Y0137809D01*
X0140150Y0138262D01*
X0139604Y0138808D01*
X0139151Y0139432D01*
X0138801Y0140119D01*
X0138562Y0140853D01*
X0138442Y0141614D01*
X0138442Y0142000D01*
X0143342Y0142000D01*
X0138442Y0142000D01*
X0138442Y0142386D01*
X0138562Y0143147D01*
X0138801Y0143881D01*
X0139151Y0144568D01*
X0139604Y0145192D01*
X0140150Y0145738D01*
X0140774Y0146191D01*
X0141461Y0146541D01*
X0142194Y0146779D01*
X0142956Y0146900D01*
X0143342Y0146900D01*
X0139395Y0144905D02*
X0077316Y0144905D01*
X0075318Y0146903D02*
X0119953Y0146903D01*
X0117955Y0148902D02*
X0084187Y0148902D01*
X0087193Y0150900D02*
X0117342Y0150900D01*
X0117342Y0152899D02*
X0089138Y0152899D01*
X0090291Y0154897D02*
X0117754Y0154897D01*
X0118942Y0156896D02*
X0091115Y0156896D01*
X0091650Y0158894D02*
X0118942Y0158894D01*
X0118942Y0160893D02*
X0091742Y0160893D01*
X0091708Y0162891D02*
X0118942Y0162891D01*
X0118942Y0164890D02*
X0091172Y0164890D01*
X0090415Y0166888D02*
X0118942Y0166888D01*
X0118942Y0168887D02*
X0089261Y0168887D01*
X0087407Y0170885D02*
X0118942Y0170885D01*
X0118942Y0172884D02*
X0084558Y0172884D01*
X0072125Y0172884D02*
X0066742Y0172884D01*
X0066742Y0174882D02*
X0118942Y0174882D01*
X0118942Y0176881D02*
X0066742Y0176881D01*
X0066742Y0178879D02*
X0118942Y0178879D01*
X0118942Y0180878D02*
X0066742Y0180878D01*
X0066742Y0182876D02*
X0118942Y0182876D01*
X0127742Y0194868D02*
X0224987Y0194868D01*
X0233342Y0197000D02*
X0233342Y0202000D01*
X0237393Y0206859D02*
X0239291Y0206859D01*
X0247393Y0206859D02*
X0249291Y0206859D01*
X0233342Y0197000D02*
X0188342Y0152000D01*
X0188342Y0137000D01*
X0183342Y0132000D01*
X0178342Y0132000D01*
X0152142Y0105800D01*
X0136942Y0105800D01*
X0128542Y0097400D01*
X0128342Y0097000D01*
X0134233Y0092943D02*
X0135893Y0092943D01*
X0138342Y0092943D02*
X0138342Y0092943D01*
X0138342Y0092400D02*
X0138342Y0097000D01*
X0142942Y0097000D01*
X0138342Y0097000D01*
X0138342Y0097000D01*
X0138342Y0097000D01*
X0138342Y0092400D01*
X0140791Y0092943D02*
X0160635Y0092943D01*
X0160635Y0090945D02*
X0133372Y0090945D01*
X0130854Y0088946D02*
X0160635Y0088946D01*
X0160635Y0086948D02*
X0131879Y0086948D01*
X0133878Y0084949D02*
X0160635Y0084949D01*
X0160635Y0082951D02*
X0153368Y0082951D01*
X0149929Y0082951D02*
X0134342Y0082951D01*
X0134342Y0080952D02*
X0146895Y0080952D01*
X0145259Y0078954D02*
X0133781Y0078954D01*
X0124804Y0086948D02*
X0124242Y0086948D01*
X0124242Y0088946D02*
X0125829Y0088946D01*
X0138342Y0094942D02*
X0138342Y0094942D01*
X0138342Y0096940D02*
X0138342Y0096940D01*
X0142942Y0096940D02*
X0160635Y0096940D01*
X0160635Y0094942D02*
X0142789Y0094942D01*
X0142908Y0098939D02*
X0160635Y0098939D01*
X0160635Y0100937D02*
X0140910Y0100937D01*
X0155500Y0102936D02*
X0160635Y0102936D01*
X0160635Y0104934D02*
X0157499Y0104934D01*
X0159497Y0106933D02*
X0160635Y0106933D01*
X0165035Y0108693D02*
X0165035Y0077000D01*
X0171191Y0076955D02*
X0173942Y0076955D01*
X0173942Y0074957D02*
X0170852Y0074957D01*
X0169699Y0072958D02*
X0173942Y0072958D01*
X0173942Y0070960D02*
X0166539Y0070960D01*
X0163531Y0070960D02*
X0157549Y0070960D01*
X0157549Y0072958D02*
X0160371Y0072958D01*
X0159218Y0074957D02*
X0157549Y0074957D01*
X0157805Y0076955D02*
X0158879Y0076955D01*
X0159181Y0078954D02*
X0157503Y0078954D01*
X0156402Y0080952D02*
X0160281Y0080952D01*
X0169435Y0082951D02*
X0173942Y0082951D01*
X0173942Y0084949D02*
X0169435Y0084949D01*
X0169435Y0086948D02*
X0173942Y0086948D01*
X0173942Y0088946D02*
X0169435Y0088946D01*
X0169435Y0090945D02*
X0173942Y0090945D01*
X0173913Y0092943D02*
X0169435Y0092943D01*
X0169435Y0094942D02*
X0172342Y0094942D01*
X0172342Y0096940D02*
X0169435Y0096940D01*
X0169435Y0098939D02*
X0172342Y0098939D01*
X0173794Y0100937D02*
X0169435Y0100937D01*
X0169435Y0102936D02*
X0173942Y0102936D01*
X0173942Y0104934D02*
X0169435Y0104934D01*
X0169497Y0106933D02*
X0173942Y0106933D01*
X0173942Y0108932D02*
X0171496Y0108932D01*
X0173494Y0110930D02*
X0173942Y0110930D01*
X0178342Y0112000D02*
X0178342Y0097000D01*
X0178342Y0060307D01*
X0165035Y0047000D01*
X0158879Y0046978D02*
X0157805Y0046978D01*
X0157549Y0048976D02*
X0159190Y0048976D01*
X0160304Y0050975D02*
X0157549Y0050975D01*
X0157549Y0052973D02*
X0163369Y0052973D01*
X0166784Y0054972D02*
X0157549Y0054972D01*
X0157549Y0056970D02*
X0168782Y0056970D01*
X0170781Y0058969D02*
X0157549Y0058969D01*
X0157549Y0060967D02*
X0172779Y0060967D01*
X0173942Y0062966D02*
X0157549Y0062966D01*
X0157549Y0064964D02*
X0173942Y0064964D01*
X0173942Y0066963D02*
X0157549Y0066963D01*
X0157549Y0068961D02*
X0173942Y0068961D01*
X0173942Y0078954D02*
X0170889Y0078954D01*
X0169788Y0080952D02*
X0173942Y0080952D01*
X0182742Y0082951D02*
X0188906Y0082951D01*
X0187342Y0084949D02*
X0182742Y0084949D01*
X0182742Y0086948D02*
X0187342Y0086948D01*
X0187342Y0088946D02*
X0182742Y0088946D01*
X0182742Y0090945D02*
X0188801Y0090945D01*
X0190800Y0092943D02*
X0182771Y0092943D01*
X0184342Y0094942D02*
X0312101Y0094942D01*
X0313519Y0096940D02*
X0184342Y0096940D01*
X0184342Y0098939D02*
X0314936Y0098939D01*
X0316353Y0100937D02*
X0182890Y0100937D01*
X0182742Y0102936D02*
X0317770Y0102936D01*
X0319187Y0104934D02*
X0232599Y0104934D01*
X0229085Y0104934D02*
X0222599Y0104934D01*
X0219085Y0104934D02*
X0212599Y0104934D01*
X0209085Y0104934D02*
X0202599Y0104934D01*
X0199085Y0104934D02*
X0182742Y0104934D01*
X0182742Y0106933D02*
X0195726Y0106933D01*
X0194320Y0108932D02*
X0182742Y0108932D01*
X0183494Y0110930D02*
X0193642Y0110930D01*
X0193642Y0112929D02*
X0185493Y0112929D01*
X0187491Y0114927D02*
X0194261Y0114927D01*
X0195585Y0116926D02*
X0189490Y0116926D01*
X0188342Y0122000D02*
X0178342Y0112000D01*
X0169036Y0128917D02*
X0093305Y0128917D01*
X0091306Y0130915D02*
X0171034Y0130915D01*
X0173033Y0132914D02*
X0089308Y0132914D01*
X0087309Y0134912D02*
X0175031Y0134912D01*
X0177162Y0136911D02*
X0179522Y0136911D01*
X0169522Y0136911D02*
X0167162Y0136911D01*
X0159522Y0136911D02*
X0157162Y0136911D01*
X0149522Y0136911D02*
X0085310Y0136911D01*
X0083312Y0138909D02*
X0139531Y0138909D01*
X0138554Y0140908D02*
X0081313Y0140908D01*
X0079315Y0142906D02*
X0138524Y0142906D01*
X0143342Y0142906D02*
X0143342Y0142906D01*
X0143342Y0142000D02*
X0143342Y0142000D01*
X0143342Y0140908D02*
X0143342Y0140908D01*
X0143342Y0138909D02*
X0143342Y0138909D01*
X0147153Y0138909D02*
X0147803Y0138909D01*
X0157348Y0146903D02*
X0159336Y0146903D01*
X0167348Y0146903D02*
X0169336Y0146903D01*
X0177348Y0146903D02*
X0179336Y0146903D01*
X0187015Y0156896D02*
X0151723Y0156896D01*
X0153721Y0158894D02*
X0184942Y0158894D01*
X0183742Y0160893D02*
X0154342Y0160893D01*
X0154342Y0162891D02*
X0183742Y0162891D01*
X0184726Y0164890D02*
X0153937Y0164890D01*
X0151939Y0166888D02*
X0197008Y0166888D01*
X0195009Y0164890D02*
X0191957Y0164890D01*
X0192942Y0162891D02*
X0193011Y0162891D01*
X0188342Y0162891D02*
X0188342Y0162891D01*
X0188342Y0162000D02*
X0188342Y0162000D01*
X0188342Y0164890D02*
X0188342Y0164890D01*
X0169566Y0196866D02*
X0167117Y0196866D01*
X0159566Y0196866D02*
X0147117Y0196866D01*
X0146910Y0196659D02*
X0148683Y0198431D01*
X0149121Y0199490D01*
X0149151Y0199432D01*
X0149604Y0198808D01*
X0150150Y0198262D01*
X0150774Y0197809D01*
X0151461Y0197459D01*
X0152194Y0197221D01*
X0152956Y0197100D01*
X0153342Y0197100D01*
X0153342Y0202000D01*
X0153342Y0202000D01*
X0153342Y0206900D01*
X0152956Y0206900D01*
X0152194Y0206779D01*
X0151461Y0206541D01*
X0150774Y0206191D01*
X0150150Y0205737D01*
X0149604Y0205192D01*
X0149151Y0204568D01*
X0149121Y0204510D01*
X0148683Y0205569D01*
X0146910Y0207341D01*
X0144595Y0208300D01*
X0142089Y0208300D01*
X0139773Y0207341D01*
X0138001Y0205569D01*
X0137042Y0203253D01*
X0137042Y0200747D01*
X0138001Y0198431D01*
X0139773Y0196659D01*
X0142089Y0195700D01*
X0144595Y0195700D01*
X0146910Y0196659D01*
X0148862Y0198865D02*
X0149563Y0198865D01*
X0153342Y0198865D02*
X0153342Y0198865D01*
X0153342Y0200863D02*
X0153342Y0200863D01*
X0153342Y0202862D02*
X0153342Y0202862D01*
X0153342Y0204860D02*
X0153342Y0204860D01*
X0153342Y0206859D02*
X0153342Y0206859D01*
X0153989Y0206859D02*
X0159291Y0206859D01*
X0160262Y0208857D02*
X0137421Y0208857D01*
X0139291Y0206859D02*
X0135423Y0206859D01*
X0133424Y0204860D02*
X0137707Y0204860D01*
X0137042Y0202862D02*
X0131426Y0202862D01*
X0129427Y0200863D02*
X0137042Y0200863D01*
X0137821Y0198865D02*
X0127742Y0198865D01*
X0127742Y0196866D02*
X0139566Y0196866D01*
X0148976Y0204860D02*
X0149363Y0204860D01*
X0147393Y0206859D02*
X0152695Y0206859D01*
X0157321Y0204860D02*
X0157707Y0204860D01*
X0158264Y0210856D02*
X0139420Y0210856D01*
X0141418Y0212854D02*
X0156265Y0212854D01*
X0154267Y0214853D02*
X0143417Y0214853D01*
X0145415Y0216851D02*
X0152268Y0216851D01*
X0150270Y0218850D02*
X0147414Y0218850D01*
X0149342Y0227000D02*
X0123342Y0201000D01*
X0123342Y0152000D01*
X0138342Y0124920D02*
X0138342Y0124920D01*
X0138342Y0122921D02*
X0138342Y0122921D01*
X0138342Y0122000D02*
X0138342Y0122000D01*
X0138342Y0120923D02*
X0138342Y0120923D01*
X0138342Y0118924D02*
X0138342Y0118924D01*
X0123342Y0116600D02*
X0123342Y0112000D01*
X0123342Y0112000D01*
X0123342Y0107400D01*
X0121436Y0107400D01*
X0118742Y0110095D01*
X0118742Y0112000D01*
X0123342Y0112000D01*
X0118742Y0112000D01*
X0118742Y0113905D01*
X0121436Y0116600D01*
X0123342Y0116600D01*
X0123342Y0114927D02*
X0123342Y0114927D01*
X0123342Y0112929D02*
X0123342Y0112929D01*
X0123342Y0112000D02*
X0123342Y0112000D01*
X0123342Y0110930D02*
X0123342Y0110930D01*
X0123342Y0108932D02*
X0123342Y0108932D01*
X0119905Y0108932D02*
X0096742Y0108932D01*
X0096742Y0110930D02*
X0118742Y0110930D01*
X0118742Y0112929D02*
X0096742Y0112929D01*
X0096742Y0114927D02*
X0119763Y0114927D01*
X0121142Y0104934D02*
X0125542Y0104934D01*
X0112442Y0084949D02*
X0107181Y0084949D01*
X0108142Y0082951D02*
X0112442Y0082951D01*
X0112442Y0080952D02*
X0108142Y0080952D01*
X0107084Y0078954D02*
X0113217Y0078954D01*
X0119040Y0072958D02*
X0043342Y0072958D01*
X0043342Y0070960D02*
X0121038Y0070960D01*
X0123037Y0068961D02*
X0043342Y0068961D01*
X0043342Y0066963D02*
X0125085Y0066963D01*
X0145749Y0064964D02*
X0043342Y0064964D01*
X0043342Y0062966D02*
X0145749Y0062966D01*
X0145749Y0060967D02*
X0043342Y0060967D01*
X0043342Y0058969D02*
X0145749Y0058969D01*
X0157475Y0044979D02*
X0159209Y0044979D01*
X0160348Y0042981D02*
X0156335Y0042981D01*
X0166982Y0038984D02*
X0131831Y0038984D01*
X0128342Y0038984D02*
X0128342Y0038984D01*
X0163684Y0018999D02*
X0362587Y0018999D01*
X0362436Y0017000D02*
X0064247Y0017000D01*
X0064097Y0018999D02*
X0090599Y0018999D01*
X0088601Y0020997D02*
X0063561Y0020997D01*
X0062473Y0022996D02*
X0086602Y0022996D01*
X0084604Y0024994D02*
X0060770Y0024994D01*
X0057845Y0026993D02*
X0069510Y0026993D01*
X0064097Y0015001D02*
X0362587Y0015001D01*
X0363123Y0013003D02*
X0063561Y0013003D01*
X0062473Y0011004D02*
X0364211Y0011004D01*
X0365913Y0009006D02*
X0060770Y0009006D01*
X0057845Y0007007D02*
X0368838Y0007007D01*
X0363123Y0020997D02*
X0165683Y0020997D01*
X0164744Y0020058D02*
X0164744Y0020058D01*
X0167681Y0022996D02*
X0364211Y0022996D01*
X0365913Y0024994D02*
X0169680Y0024994D01*
X0171678Y0026993D02*
X0179365Y0026993D01*
X0177712Y0028991D02*
X0173677Y0028991D01*
X0175675Y0030990D02*
X0176989Y0030990D01*
X0193662Y0048976D02*
X0198869Y0048976D01*
X0202814Y0048976D02*
X0218869Y0048976D01*
X0215637Y0046978D02*
X0213848Y0046978D01*
X0210842Y0046978D02*
X0210842Y0046978D01*
X0210842Y0044979D02*
X0210842Y0044979D01*
X0210842Y0042981D02*
X0210842Y0042981D01*
X0207835Y0046978D02*
X0206046Y0046978D01*
X0222814Y0048976D02*
X0228869Y0048976D01*
X0232814Y0048976D02*
X0238869Y0048976D01*
X0230871Y0062966D02*
X0207651Y0062966D01*
X0209650Y0064964D02*
X0228872Y0064964D01*
X0228742Y0066963D02*
X0211648Y0066963D01*
X0213647Y0068961D02*
X0228798Y0068961D01*
X0221641Y0076955D02*
X0299347Y0076955D01*
X0297930Y0074957D02*
X0219642Y0074957D01*
X0223640Y0078954D02*
X0300764Y0078954D01*
X0302182Y0080952D02*
X0225638Y0080952D01*
X0237886Y0068961D02*
X0293679Y0068961D01*
X0292262Y0066963D02*
X0237942Y0066963D01*
X0237811Y0064964D02*
X0290845Y0064964D01*
X0289722Y0042981D02*
X0298747Y0042981D01*
X0297390Y0040982D02*
X0288304Y0040982D01*
X0286887Y0038984D02*
X0296934Y0038984D01*
X0297149Y0036985D02*
X0285470Y0036985D01*
X0284053Y0034987D02*
X0298165Y0034987D01*
X0278031Y0026993D02*
X0368838Y0026993D01*
X0320604Y0106933D02*
X0235957Y0106933D01*
X0237364Y0108932D02*
X0322021Y0108932D01*
X0306718Y0120923D02*
X0304219Y0120923D01*
X0302909Y0120923D02*
X0302909Y0120923D01*
X0301837Y0120845D02*
X0301153Y0121067D01*
X0300511Y0121394D01*
X0299928Y0121818D01*
X0299419Y0122327D01*
X0298996Y0122909D01*
X0298669Y0123551D01*
X0298447Y0124236D01*
X0298334Y0124947D01*
X0298334Y0125307D01*
X0302909Y0125307D01*
X0302909Y0125307D01*
X0302909Y0129882D01*
X0302549Y0129882D01*
X0301837Y0129769D01*
X0301153Y0129547D01*
X0300511Y0129220D01*
X0299928Y0128797D01*
X0299419Y0128287D01*
X0298996Y0127705D01*
X0298669Y0127063D01*
X0298447Y0126378D01*
X0298334Y0125667D01*
X0298334Y0125307D01*
X0302909Y0125307D01*
X0302909Y0125307D01*
X0302909Y0124920D02*
X0302909Y0124920D01*
X0302909Y0126918D02*
X0302909Y0126918D01*
X0302909Y0128917D02*
X0302909Y0128917D01*
X0305724Y0128917D02*
X0305943Y0128917D01*
X0308709Y0130915D02*
X0232742Y0130915D01*
X0232742Y0128917D02*
X0300094Y0128917D01*
X0298622Y0126918D02*
X0232742Y0126918D01*
X0232243Y0124920D02*
X0298338Y0124920D01*
X0298990Y0122921D02*
X0230485Y0122921D01*
X0232742Y0132914D02*
X0335357Y0132914D01*
X0336479Y0130915D02*
X0337356Y0130915D01*
X0333359Y0134912D02*
X0232742Y0134912D01*
X0237162Y0136911D02*
X0239522Y0136911D01*
X0243342Y0142000D02*
X0268342Y0167000D01*
X0268342Y0212000D01*
X0268342Y0217000D01*
X0288342Y0237000D01*
X0298342Y0252000D02*
X0303342Y0252000D01*
X0313342Y0242000D01*
X0313342Y0202000D01*
X0317742Y0206859D02*
X0319291Y0206859D01*
X0317742Y0208857D02*
X0383263Y0208857D01*
X0383263Y0206859D02*
X0377393Y0206859D01*
X0378976Y0204860D02*
X0383263Y0204860D01*
X0383263Y0202862D02*
X0379642Y0202862D01*
X0379642Y0200863D02*
X0383263Y0200863D01*
X0383263Y0198865D02*
X0378862Y0198865D01*
X0377117Y0196866D02*
X0383263Y0196866D01*
X0383263Y0194868D02*
X0272742Y0194868D01*
X0272742Y0192869D02*
X0383263Y0192869D01*
X0383263Y0190870D02*
X0272742Y0190870D01*
X0272742Y0188872D02*
X0383263Y0188872D01*
X0383263Y0186873D02*
X0272742Y0186873D01*
X0272742Y0184875D02*
X0383263Y0184875D01*
X0383263Y0182876D02*
X0272742Y0182876D01*
X0272742Y0180878D02*
X0383263Y0180878D01*
X0383263Y0178879D02*
X0272742Y0178879D01*
X0272742Y0176881D02*
X0383263Y0176881D01*
X0383263Y0174882D02*
X0272742Y0174882D01*
X0272742Y0172884D02*
X0315420Y0172884D01*
X0315416Y0172882D02*
X0314459Y0171926D01*
X0313942Y0170676D01*
X0313942Y0169400D01*
X0312665Y0169400D01*
X0311416Y0168882D01*
X0310459Y0167926D01*
X0309942Y0166676D01*
X0309942Y0163324D01*
X0310459Y0162074D01*
X0311416Y0161118D01*
X0312665Y0160600D01*
X0314518Y0160600D01*
X0315768Y0161118D01*
X0316724Y0162074D01*
X0317242Y0163324D01*
X0317242Y0166100D01*
X0319442Y0166100D01*
X0319442Y0163324D01*
X0319959Y0162074D01*
X0320916Y0161118D01*
X0322165Y0160600D01*
X0324018Y0160600D01*
X0325268Y0161118D01*
X0326224Y0162074D01*
X0326742Y0163324D01*
X0326742Y0166676D01*
X0326224Y0167926D01*
X0325268Y0168882D01*
X0324018Y0169400D01*
X0322742Y0169400D01*
X0322742Y0170676D01*
X0322224Y0171926D01*
X0321268Y0172882D01*
X0320018Y0173400D01*
X0316665Y0173400D01*
X0315416Y0172882D01*
X0314028Y0170885D02*
X0272742Y0170885D01*
X0272742Y0168887D02*
X0311427Y0168887D01*
X0310030Y0166888D02*
X0272742Y0166888D01*
X0272230Y0164890D02*
X0309942Y0164890D01*
X0310121Y0162891D02*
X0270456Y0162891D01*
X0268457Y0160893D02*
X0311959Y0160893D01*
X0315225Y0160893D02*
X0321459Y0160893D01*
X0319621Y0162891D02*
X0317063Y0162891D01*
X0317242Y0164890D02*
X0319442Y0164890D01*
X0324725Y0160893D02*
X0383263Y0160893D01*
X0383263Y0162891D02*
X0326563Y0162891D01*
X0326742Y0164890D02*
X0383263Y0164890D01*
X0383263Y0166888D02*
X0326654Y0166888D01*
X0325257Y0168887D02*
X0383263Y0168887D01*
X0383263Y0170885D02*
X0322655Y0170885D01*
X0321264Y0172884D02*
X0383263Y0172884D01*
X0383263Y0158894D02*
X0266459Y0158894D01*
X0264460Y0156896D02*
X0383263Y0156896D01*
X0383263Y0154897D02*
X0262462Y0154897D01*
X0260463Y0152899D02*
X0383263Y0152899D01*
X0383263Y0150900D02*
X0258465Y0150900D01*
X0256466Y0148902D02*
X0383263Y0148902D01*
X0383263Y0146903D02*
X0377348Y0146903D01*
X0378958Y0144905D02*
X0383263Y0144905D01*
X0383263Y0142906D02*
X0379642Y0142906D01*
X0379642Y0140908D02*
X0383263Y0140908D01*
X0383263Y0138909D02*
X0378881Y0138909D01*
X0377162Y0136911D02*
X0383263Y0136911D01*
X0383263Y0134912D02*
X0368342Y0134912D01*
X0368342Y0132914D02*
X0383263Y0132914D01*
X0383263Y0130915D02*
X0375849Y0130915D01*
X0378615Y0128917D02*
X0383263Y0128917D01*
X0383263Y0126918D02*
X0379575Y0126918D01*
X0379750Y0124920D02*
X0383263Y0124920D01*
X0383263Y0122921D02*
X0379675Y0122921D01*
X0379675Y0120923D02*
X0383263Y0120923D01*
X0383263Y0118924D02*
X0379675Y0118924D01*
X0379675Y0116926D02*
X0383263Y0116926D01*
X0383263Y0114927D02*
X0379675Y0114927D01*
X0379176Y0112929D02*
X0383263Y0112929D01*
X0383263Y0110930D02*
X0377742Y0110930D01*
X0371701Y0130915D02*
X0368342Y0130915D01*
X0368342Y0136911D02*
X0369522Y0136911D01*
X0369336Y0146903D02*
X0367348Y0146903D01*
X0359336Y0146903D02*
X0357348Y0146903D01*
X0349336Y0146903D02*
X0347348Y0146903D01*
X0339336Y0146903D02*
X0337348Y0146903D01*
X0329336Y0146903D02*
X0327348Y0146903D01*
X0319336Y0146903D02*
X0317348Y0146903D01*
X0309336Y0146903D02*
X0307348Y0146903D01*
X0299336Y0146903D02*
X0297348Y0146903D01*
X0289336Y0146903D02*
X0287348Y0146903D01*
X0279336Y0146903D02*
X0277348Y0146903D01*
X0269336Y0146903D02*
X0267348Y0146903D01*
X0259336Y0146903D02*
X0257348Y0146903D01*
X0257162Y0136911D02*
X0259522Y0136911D01*
X0267162Y0136911D02*
X0269522Y0136911D01*
X0277162Y0136911D02*
X0279522Y0136911D01*
X0287162Y0136911D02*
X0289522Y0136911D01*
X0297162Y0136911D02*
X0299522Y0136911D01*
X0307162Y0136911D02*
X0309522Y0136911D01*
X0317162Y0136911D02*
X0319522Y0136911D01*
X0320731Y0130915D02*
X0324457Y0130915D01*
X0328605Y0130915D02*
X0332331Y0130915D01*
X0329522Y0136911D02*
X0327162Y0136911D01*
X0316583Y0130915D02*
X0312857Y0130915D01*
X0302909Y0122921D02*
X0302909Y0122921D01*
X0249522Y0136911D02*
X0247162Y0136911D01*
X0297117Y0196866D02*
X0299566Y0196866D01*
X0307117Y0196866D02*
X0309566Y0196866D01*
X0317117Y0196866D02*
X0319566Y0196866D01*
X0327117Y0196866D02*
X0329566Y0196866D01*
X0337117Y0196866D02*
X0339566Y0196866D01*
X0347117Y0196866D02*
X0349566Y0196866D01*
X0357117Y0196866D02*
X0359566Y0196866D01*
X0367117Y0196866D02*
X0369566Y0196866D01*
X0369291Y0206859D02*
X0367393Y0206859D01*
X0359291Y0206859D02*
X0357393Y0206859D01*
X0349291Y0206859D02*
X0347393Y0206859D01*
X0339291Y0206859D02*
X0337393Y0206859D01*
X0329291Y0206859D02*
X0327393Y0206859D01*
X0317742Y0210856D02*
X0383263Y0210856D01*
X0383263Y0212854D02*
X0317742Y0212854D01*
X0317742Y0214853D02*
X0383263Y0214853D01*
X0383263Y0216851D02*
X0341678Y0216851D01*
X0340827Y0216000D02*
X0344342Y0219515D01*
X0344342Y0224485D01*
X0342942Y0225885D01*
X0342942Y0230377D01*
X0357864Y0245300D01*
X0361117Y0245300D01*
X0364332Y0248515D01*
X0366146Y0246700D01*
X0368342Y0246700D01*
X0370537Y0246700D01*
X0373642Y0249805D01*
X0373642Y0252000D01*
X0373642Y0254195D01*
X0370537Y0257300D01*
X0368342Y0257300D01*
X0368342Y0252000D01*
X0373642Y0252000D01*
X0368342Y0252000D01*
X0368342Y0252000D01*
X0368342Y0252000D01*
X0368342Y0246700D01*
X0368342Y0252000D01*
X0368342Y0252000D01*
X0368342Y0257300D01*
X0366146Y0257300D01*
X0364332Y0255485D01*
X0361117Y0258700D01*
X0355567Y0258700D01*
X0351642Y0254775D01*
X0351642Y0251523D01*
X0336049Y0235930D01*
X0334812Y0234692D01*
X0334142Y0233075D01*
X0334142Y0226285D01*
X0332342Y0224485D01*
X0332342Y0219515D01*
X0335857Y0216000D01*
X0340827Y0216000D01*
X0343677Y0218850D02*
X0383263Y0218850D01*
X0383263Y0220848D02*
X0344342Y0220848D01*
X0344342Y0222847D02*
X0383263Y0222847D01*
X0383263Y0224845D02*
X0343982Y0224845D01*
X0342942Y0226844D02*
X0354023Y0226844D01*
X0355567Y0225300D02*
X0361117Y0225300D01*
X0364332Y0228515D01*
X0366146Y0226700D01*
X0368342Y0226700D01*
X0370537Y0226700D01*
X0373642Y0229805D01*
X0373642Y0232000D01*
X0373642Y0234195D01*
X0370537Y0237300D01*
X0368342Y0237300D01*
X0368342Y0232000D01*
X0373642Y0232000D01*
X0368342Y0232000D01*
X0368342Y0232000D01*
X0368342Y0232000D01*
X0368342Y0226700D01*
X0368342Y0232000D01*
X0368342Y0232000D01*
X0368342Y0237300D01*
X0366146Y0237300D01*
X0364332Y0235485D01*
X0361117Y0238700D01*
X0355567Y0238700D01*
X0351642Y0234775D01*
X0351642Y0229225D01*
X0355567Y0225300D01*
X0352024Y0228842D02*
X0342942Y0228842D01*
X0343405Y0230841D02*
X0351642Y0230841D01*
X0351642Y0232839D02*
X0345404Y0232839D01*
X0347402Y0234838D02*
X0351704Y0234838D01*
X0353703Y0236836D02*
X0349401Y0236836D01*
X0351399Y0238835D02*
X0383263Y0238835D01*
X0383263Y0240833D02*
X0353398Y0240833D01*
X0355396Y0242832D02*
X0383263Y0242832D01*
X0383263Y0244830D02*
X0357395Y0244830D01*
X0362646Y0246829D02*
X0366018Y0246829D01*
X0368342Y0246829D02*
X0368342Y0246829D01*
X0368342Y0248827D02*
X0368342Y0248827D01*
X0368342Y0250826D02*
X0368342Y0250826D01*
X0368342Y0252824D02*
X0368342Y0252824D01*
X0368342Y0254823D02*
X0368342Y0254823D01*
X0368342Y0256821D02*
X0368342Y0256821D01*
X0371016Y0256821D02*
X0383263Y0256821D01*
X0383263Y0254823D02*
X0373014Y0254823D01*
X0373642Y0252824D02*
X0383263Y0252824D01*
X0383263Y0250826D02*
X0373642Y0250826D01*
X0372664Y0248827D02*
X0383263Y0248827D01*
X0383263Y0246829D02*
X0370666Y0246829D01*
X0371001Y0236836D02*
X0383263Y0236836D01*
X0383263Y0234838D02*
X0372999Y0234838D01*
X0373642Y0232839D02*
X0383263Y0232839D01*
X0383263Y0230841D02*
X0373642Y0230841D01*
X0372679Y0228842D02*
X0383263Y0228842D01*
X0383263Y0226844D02*
X0370681Y0226844D01*
X0368342Y0226844D02*
X0368342Y0226844D01*
X0368342Y0228842D02*
X0368342Y0228842D01*
X0368342Y0230841D02*
X0368342Y0230841D01*
X0368342Y0232839D02*
X0368342Y0232839D01*
X0368342Y0234838D02*
X0368342Y0234838D01*
X0368342Y0236836D02*
X0368342Y0236836D01*
X0365683Y0236836D02*
X0362981Y0236836D01*
X0362661Y0226844D02*
X0366003Y0226844D01*
X0346948Y0246829D02*
X0341656Y0246829D01*
X0340827Y0246000D02*
X0344342Y0249515D01*
X0344342Y0254485D01*
X0340827Y0258000D01*
X0335857Y0258000D01*
X0332342Y0254485D01*
X0332342Y0249515D01*
X0335857Y0246000D01*
X0340827Y0246000D01*
X0342951Y0242832D02*
X0317742Y0242832D01*
X0317742Y0240833D02*
X0340953Y0240833D01*
X0338954Y0238835D02*
X0317742Y0238835D01*
X0317742Y0236836D02*
X0336956Y0236836D01*
X0334957Y0234838D02*
X0317742Y0234838D01*
X0317742Y0232839D02*
X0334142Y0232839D01*
X0334142Y0230841D02*
X0317742Y0230841D01*
X0317742Y0228842D02*
X0334142Y0228842D01*
X0334142Y0226844D02*
X0317742Y0226844D01*
X0317742Y0224845D02*
X0332702Y0224845D01*
X0332342Y0222847D02*
X0317742Y0222847D01*
X0317742Y0220848D02*
X0332342Y0220848D01*
X0333007Y0218850D02*
X0317742Y0218850D01*
X0317742Y0216851D02*
X0335005Y0216851D01*
X0338342Y0222000D02*
X0338542Y0222200D01*
X0338542Y0232200D01*
X0358342Y0252000D01*
X0362996Y0256821D02*
X0365668Y0256821D01*
X0361117Y0265300D02*
X0364332Y0268515D01*
X0366146Y0266700D01*
X0368342Y0266700D01*
X0370537Y0266700D01*
X0373642Y0269805D01*
X0373642Y0272000D01*
X0373642Y0274195D01*
X0370537Y0277300D01*
X0368342Y0277300D01*
X0368342Y0272000D01*
X0373642Y0272000D01*
X0368342Y0272000D01*
X0368342Y0272000D01*
X0368342Y0272000D01*
X0368342Y0266700D01*
X0368342Y0272000D01*
X0368342Y0272000D01*
X0368342Y0277300D01*
X0366146Y0277300D01*
X0364332Y0275485D01*
X0361117Y0278700D01*
X0355567Y0278700D01*
X0351642Y0274775D01*
X0351642Y0269225D01*
X0355567Y0265300D01*
X0361117Y0265300D01*
X0362631Y0266814D02*
X0366033Y0266814D01*
X0368342Y0266814D02*
X0368342Y0266814D01*
X0368342Y0268812D02*
X0368342Y0268812D01*
X0368342Y0270811D02*
X0368342Y0270811D01*
X0368342Y0272809D02*
X0368342Y0272809D01*
X0368342Y0274808D02*
X0368342Y0274808D01*
X0368342Y0276806D02*
X0368342Y0276806D01*
X0371031Y0276806D02*
X0383263Y0276806D01*
X0383263Y0274808D02*
X0373029Y0274808D01*
X0373642Y0272809D02*
X0383263Y0272809D01*
X0383263Y0270811D02*
X0373642Y0270811D01*
X0372650Y0268812D02*
X0383263Y0268812D01*
X0383263Y0266814D02*
X0370651Y0266814D01*
X0365653Y0276806D02*
X0363011Y0276806D01*
X0367462Y0282802D02*
X0344650Y0282802D01*
X0345242Y0280803D02*
X0383263Y0280803D01*
X0383263Y0278805D02*
X0345242Y0278805D01*
X0344488Y0276806D02*
X0353673Y0276806D01*
X0351675Y0274808D02*
X0342908Y0274808D01*
X0351642Y0272809D02*
X0297374Y0272809D01*
X0295375Y0270811D02*
X0351642Y0270811D01*
X0352054Y0268812D02*
X0293377Y0268812D01*
X0292742Y0266814D02*
X0354053Y0266814D01*
X0353688Y0256821D02*
X0342006Y0256821D01*
X0344004Y0254823D02*
X0351689Y0254823D01*
X0351642Y0252824D02*
X0344342Y0252824D01*
X0344342Y0250826D02*
X0350945Y0250826D01*
X0348947Y0248827D02*
X0343654Y0248827D01*
X0344950Y0244830D02*
X0316734Y0244830D01*
X0314736Y0246829D02*
X0335028Y0246829D01*
X0333029Y0248827D02*
X0312737Y0248827D01*
X0310739Y0250826D02*
X0332342Y0250826D01*
X0332342Y0252824D02*
X0308740Y0252824D01*
X0306741Y0254823D02*
X0332679Y0254823D01*
X0334678Y0256821D02*
X0302006Y0256821D01*
X0294678Y0256821D02*
X0292742Y0256821D01*
X0292742Y0258820D02*
X0383263Y0258820D01*
X0383263Y0260818D02*
X0292742Y0260818D01*
X0292742Y0262817D02*
X0383263Y0262817D01*
X0383263Y0264815D02*
X0292742Y0264815D01*
X0283942Y0264815D02*
X0247032Y0264815D01*
X0247942Y0262817D02*
X0283942Y0262817D01*
X0283942Y0260818D02*
X0247942Y0260818D01*
X0246667Y0258820D02*
X0283942Y0258820D01*
X0283776Y0274808D02*
X0282908Y0274808D01*
X0273776Y0274808D02*
X0272908Y0274808D01*
X0263776Y0274808D02*
X0262908Y0274808D01*
X0263299Y0284801D02*
X0263384Y0284801D01*
X0273299Y0284801D02*
X0273384Y0284801D01*
X0283299Y0284801D02*
X0283384Y0284801D01*
X0293299Y0284801D02*
X0293384Y0284801D01*
X0302908Y0274808D02*
X0303776Y0274808D01*
X0312908Y0274808D02*
X0316523Y0274808D01*
X0318342Y0274808D02*
X0318342Y0274808D01*
X0320161Y0274808D02*
X0323776Y0274808D01*
X0318342Y0276806D02*
X0318342Y0276806D01*
X0318342Y0278805D02*
X0318342Y0278805D01*
X0318342Y0280803D02*
X0318342Y0280803D01*
X0318342Y0282802D02*
X0318342Y0282802D01*
X0318342Y0284801D02*
X0318342Y0284801D01*
X0321035Y0284801D02*
X0323384Y0284801D01*
X0326726Y0286799D02*
X0309958Y0286799D01*
X0313299Y0284801D02*
X0315649Y0284801D01*
X0329958Y0286799D02*
X0336726Y0286799D01*
X0339958Y0286799D02*
X0363752Y0286799D01*
X0365119Y0284801D02*
X0343299Y0284801D01*
X0333384Y0284801D02*
X0333299Y0284801D01*
X0332908Y0274808D02*
X0333776Y0274808D01*
X0379221Y0282802D02*
X0383263Y0282802D01*
X0383263Y0284801D02*
X0381565Y0284801D01*
X0382932Y0286799D02*
X0383263Y0286799D01*
X0243342Y0264815D02*
X0243342Y0264815D01*
X0243342Y0262817D02*
X0243342Y0262817D01*
X0243342Y0262000D02*
X0243342Y0262000D01*
X0243342Y0260818D02*
X0243342Y0260818D01*
X0243342Y0258820D02*
X0243342Y0258820D01*
X0189294Y0248827D02*
X0172390Y0248827D01*
X0169294Y0248827D02*
X0162390Y0248827D01*
X0159294Y0248827D02*
X0152737Y0248827D01*
X0154736Y0246829D02*
X0155913Y0246829D01*
X0165771Y0246829D02*
X0165913Y0246829D01*
X0175771Y0246829D02*
X0178204Y0246829D01*
X0180842Y0246829D02*
X0180842Y0246829D01*
X0180842Y0244830D02*
X0180842Y0244830D01*
X0183480Y0246829D02*
X0185913Y0246829D01*
X0180842Y0240833D02*
X0180842Y0240833D01*
X0180842Y0238835D02*
X0180842Y0238835D01*
X0180842Y0236836D02*
X0180842Y0236836D01*
X0182748Y0236836D02*
X0186247Y0236836D01*
X0191742Y0234838D02*
X0160142Y0234838D01*
X0160142Y0232839D02*
X0191742Y0232839D01*
X0191742Y0230841D02*
X0161011Y0230841D01*
X0165436Y0236836D02*
X0166247Y0236836D01*
X0175436Y0236836D02*
X0178936Y0236836D01*
X0207393Y0206859D02*
X0209291Y0206859D01*
X0217393Y0206859D02*
X0219291Y0206859D01*
X0227393Y0206859D02*
X0229291Y0206859D01*
X0157821Y0198865D02*
X0157120Y0198865D01*
X0126485Y0226844D02*
X0120198Y0226844D01*
X0122004Y0228842D02*
X0124680Y0228842D01*
X0123879Y0230841D02*
X0122805Y0230841D01*
X0122805Y0232839D02*
X0123879Y0232839D01*
X0124547Y0234838D02*
X0122137Y0234838D01*
X0120518Y0236836D02*
X0126165Y0236836D01*
X0130035Y0257000D02*
X0130035Y0267000D01*
X0135793Y0264815D02*
X0142342Y0264815D01*
X0142342Y0266814D02*
X0136191Y0266814D01*
X0135947Y0268812D02*
X0142342Y0268812D01*
X0143667Y0270811D02*
X0134930Y0270811D01*
X0132096Y0272809D02*
X0145666Y0272809D01*
X0144040Y0262817D02*
X0134557Y0262817D01*
X0070391Y0236836D02*
X0066742Y0236836D01*
X0066742Y0238835D02*
X0068163Y0238835D01*
X0047462Y0282802D02*
X0043342Y0282802D01*
X0043342Y0284801D02*
X0045119Y0284801D01*
X0043752Y0286799D02*
X0043342Y0286799D01*
X0066742Y0170885D02*
X0069277Y0170885D01*
X0067422Y0168887D02*
X0066742Y0168887D01*
X0072187Y0110930D02*
X0079942Y0110930D01*
X0078442Y0108932D02*
X0078242Y0108932D01*
X0078242Y0106933D02*
X0078442Y0106933D01*
X0078442Y0104934D02*
X0078242Y0104934D01*
X0078242Y0102936D02*
X0078442Y0102936D01*
X0078442Y0100937D02*
X0078242Y0100937D01*
X0078242Y0098939D02*
X0078442Y0098939D01*
X0078442Y0096940D02*
X0078242Y0096940D01*
X0078242Y0094942D02*
X0078442Y0094942D01*
X0082079Y0094942D02*
X0082646Y0094942D01*
X0084731Y0092943D02*
X0071952Y0092943D01*
X0074037Y0094942D02*
X0074605Y0094942D01*
X0067162Y0086948D02*
X0086192Y0086948D01*
X0086192Y0084949D02*
X0077181Y0084949D01*
X0078142Y0082951D02*
X0086192Y0082951D01*
X0086192Y0080952D02*
X0078142Y0080952D01*
X0077084Y0078954D02*
X0086864Y0078954D01*
X0088275Y0076955D02*
X0067065Y0076955D01*
X0069064Y0078954D02*
X0069600Y0078954D01*
X0073342Y0078954D02*
X0073342Y0078954D01*
X0073342Y0080952D02*
X0073342Y0080952D01*
X0073342Y0082951D02*
X0073342Y0082951D01*
X0073342Y0084949D02*
X0073342Y0084949D01*
X0069503Y0084949D02*
X0069161Y0084949D01*
X0074090Y0108932D02*
X0074478Y0108932D01*
D23*
X0118342Y0097000D02*
X0118342Y0082000D01*
X0128342Y0072000D01*
X0146649Y0072000D01*
X0151649Y0077000D01*
X0151649Y0047000D01*
X0159742Y0023400D02*
X0094542Y0023400D01*
X0076342Y0041600D01*
X0076058Y0042000D01*
X0159742Y0023400D02*
X0223342Y0087000D01*
X0233342Y0087000D01*
X0233342Y0067000D02*
X0244602Y0067000D01*
X0302909Y0125307D01*
X0333775Y0115307D02*
X0373775Y0115307D01*
X0373775Y0125307D01*
X0333775Y0115307D02*
X0274703Y0032000D01*
X0183342Y0032000D01*
X0143342Y0142000D02*
X0163342Y0162000D01*
X0188342Y0162000D01*
X0103342Y0252000D02*
X0093342Y0242000D01*
X0073342Y0242000D01*
X0068342Y0247000D01*
X0068342Y0257000D01*
X0078342Y0257000D02*
X0078342Y0267000D01*
X0073342Y0272000D01*
X0073342Y0282000D01*
X0083342Y0272000D02*
X0111649Y0272000D01*
X0116649Y0267000D01*
X0083342Y0272000D02*
X0078342Y0267000D01*
D24*
X0183342Y0032000D03*
D25*
X0088342Y0102000D02*
X0088342Y0122000D01*
X0058342Y0152000D01*
X0058342Y0247000D01*
X0068342Y0257000D01*
D26*
X0333342Y0142000D02*
X0350035Y0125307D01*
X0350153Y0125307D01*
X0363342Y0127866D02*
X0365901Y0125307D01*
X0363342Y0127866D02*
X0363342Y0142000D01*
D27*
X0203342Y0262000D02*
X0195942Y0254600D01*
X0195942Y0204600D01*
X0193342Y0202000D01*
M02*
