G75*
%MOIN*%
%OFA0B0*%
%FSLAX25Y25*%
%IPPOS*%
%LPD*%
%AMOC8*
5,1,8,0,0,1.08239X$1,22.5*
%
%ADD10C,0.12611*%
%ADD11C,0.07400*%
%ADD12C,0.13800*%
%ADD13OC8,0.06400*%
%ADD14C,0.06312*%
%ADD15C,0.06000*%
%ADD16C,0.05950*%
%ADD17C,0.08400*%
%ADD18C,0.07800*%
%ADD19OC8,0.06000*%
%ADD20OC8,0.07400*%
%ADD21OC8,0.24485*%
%ADD22C,0.06600*%
%ADD23C,0.06706*%
D10*
X0053342Y0017000D03*
X0373342Y0017000D03*
X0373342Y0292000D03*
X0053342Y0292000D03*
D11*
X0068342Y0260300D02*
X0068342Y0253700D01*
X0078342Y0253700D02*
X0078342Y0260300D01*
X0088342Y0260300D02*
X0088342Y0253700D01*
X0088342Y0105300D02*
X0088342Y0098700D01*
X0078342Y0098700D02*
X0078342Y0105300D01*
X0068342Y0105300D02*
X0068342Y0098700D01*
D12*
X0078342Y0161000D03*
X0078342Y0198000D03*
D13*
X0073342Y0282000D03*
X0073342Y0292000D03*
X0093342Y0287000D03*
X0103342Y0287000D03*
X0103342Y0082000D03*
X0093342Y0082000D03*
X0073342Y0082000D03*
X0063342Y0082000D03*
X0343342Y0082000D03*
X0353342Y0082000D03*
X0353342Y0102000D03*
X0343342Y0102000D03*
X0343342Y0062000D03*
X0353342Y0062000D03*
D14*
X0165035Y0047000D03*
X0151649Y0047000D03*
X0151649Y0077000D03*
X0165035Y0077000D03*
X0130035Y0232000D03*
X0116649Y0232000D03*
X0116649Y0267000D03*
X0130035Y0267000D03*
D15*
X0128342Y0099600D02*
X0128342Y0094400D01*
X0118342Y0094400D02*
X0118342Y0099600D01*
D16*
X0302909Y0125307D03*
X0310783Y0125307D03*
X0318657Y0125307D03*
X0326531Y0125307D03*
X0334405Y0125307D03*
X0342279Y0125307D03*
X0350153Y0125307D03*
X0358027Y0125307D03*
X0365901Y0125307D03*
X0373775Y0125307D03*
X0373775Y0038693D03*
X0365901Y0038693D03*
X0358027Y0038693D03*
X0350153Y0038693D03*
X0342279Y0038693D03*
X0334405Y0038693D03*
X0326531Y0038693D03*
X0318657Y0038693D03*
X0310783Y0038693D03*
X0302909Y0038693D03*
D17*
X0240842Y0042000D03*
X0230842Y0042000D03*
X0220842Y0042000D03*
X0210842Y0042000D03*
X0200842Y0042000D03*
X0190842Y0042000D03*
X0200842Y0112000D03*
X0210842Y0112000D03*
X0220842Y0112000D03*
X0230842Y0112000D03*
D18*
X0230842Y0242000D03*
X0220842Y0242000D03*
X0210842Y0242000D03*
X0200842Y0242000D03*
X0190842Y0242000D03*
X0180842Y0242000D03*
X0170842Y0242000D03*
X0160842Y0242000D03*
X0258342Y0280000D03*
X0268342Y0280000D03*
X0278342Y0280000D03*
X0288342Y0280000D03*
X0298342Y0280000D03*
X0308342Y0280000D03*
X0318342Y0280000D03*
X0328342Y0280000D03*
X0338342Y0280000D03*
D19*
X0338342Y0252000D03*
X0308342Y0237000D03*
X0298342Y0222000D03*
X0268342Y0237000D03*
X0243342Y0262000D03*
X0243342Y0277000D03*
X0203342Y0277000D03*
X0188342Y0267000D03*
X0203342Y0262000D03*
X0148342Y0267000D03*
X0143342Y0252000D03*
X0103342Y0252000D03*
X0148342Y0162000D03*
X0123342Y0152000D03*
X0138342Y0122000D03*
X0123342Y0112000D03*
X0138342Y0097000D03*
X0128342Y0082000D03*
X0128342Y0042000D03*
X0178342Y0097000D03*
X0193342Y0087000D03*
X0193342Y0067000D03*
X0233342Y0067000D03*
X0233342Y0087000D03*
X0178342Y0122000D03*
X0188342Y0162000D03*
X0298342Y0252000D03*
X0338342Y0222000D03*
D20*
X0358342Y0232000D03*
X0368342Y0232000D03*
X0368342Y0252000D03*
X0358342Y0252000D03*
X0358342Y0272000D03*
X0368342Y0272000D03*
D21*
X0103617Y0042000D03*
X0076058Y0042000D03*
D22*
X0143342Y0142000D03*
X0153342Y0142000D03*
X0163342Y0142000D03*
X0173342Y0142000D03*
X0183342Y0142000D03*
X0193342Y0142000D03*
X0203342Y0142000D03*
X0213342Y0142000D03*
X0223342Y0142000D03*
X0233342Y0142000D03*
X0243342Y0142000D03*
X0253342Y0142000D03*
X0263342Y0142000D03*
X0273342Y0142000D03*
X0283342Y0142000D03*
X0293342Y0142000D03*
X0303342Y0142000D03*
X0313342Y0142000D03*
X0323342Y0142000D03*
X0333342Y0142000D03*
X0343342Y0142000D03*
X0353342Y0142000D03*
X0363342Y0142000D03*
X0373342Y0142000D03*
X0373342Y0202000D03*
X0363342Y0202000D03*
X0353342Y0202000D03*
X0343342Y0202000D03*
X0333342Y0202000D03*
X0323342Y0202000D03*
X0313342Y0202000D03*
X0303342Y0202000D03*
X0293342Y0202000D03*
X0283342Y0202000D03*
X0273342Y0202000D03*
X0263342Y0202000D03*
X0253342Y0202000D03*
X0243342Y0202000D03*
X0233342Y0202000D03*
X0223342Y0202000D03*
X0213342Y0202000D03*
X0203342Y0202000D03*
X0193342Y0202000D03*
X0183342Y0202000D03*
X0173342Y0202000D03*
X0163342Y0202000D03*
X0153342Y0202000D03*
X0143342Y0202000D03*
D23*
X0183342Y0032000D03*
M02*
