G75*
%MOIN*%
%OFA0B0*%
%FSLAX25Y25*%
%IPPOS*%
%LPD*%
%AMOC8*
5,1,8,0,0,1.08239X$1,22.5*
%
%ADD10C,0.06600*%
%ADD11OC8,0.05600*%
%ADD12C,0.05512*%
%ADD13C,0.05200*%
%ADD14C,0.05150*%
%ADD15C,0.07600*%
%ADD16C,0.07000*%
%ADD17OC8,0.05200*%
%ADD18OC8,0.06600*%
%ADD19OC8,0.23685*%
%ADD20C,0.05800*%
%ADD21C,0.10000*%
%ADD22C,0.05000*%
%ADD23C,0.07500*%
%ADD24C,0.02000*%
%ADD25C,0.02400*%
%ADD26C,0.01600*%
%ADD27C,0.04000*%
%ADD28C,0.05906*%
%ADD29C,0.03200*%
D10*
X0068342Y0098700D02*
X0068342Y0105300D01*
X0078342Y0105300D02*
X0078342Y0098700D01*
X0088342Y0098700D02*
X0088342Y0105300D01*
X0088342Y0253700D02*
X0088342Y0260300D01*
X0078342Y0260300D02*
X0078342Y0253700D01*
X0068342Y0253700D02*
X0068342Y0260300D01*
D11*
X0073342Y0282000D03*
X0073342Y0292000D03*
X0093342Y0287000D03*
X0103342Y0287000D03*
X0103342Y0082000D03*
X0093342Y0082000D03*
X0073342Y0082000D03*
X0063342Y0082000D03*
X0343342Y0082000D03*
X0353342Y0082000D03*
X0353342Y0102000D03*
X0343342Y0102000D03*
X0343342Y0062000D03*
X0353342Y0062000D03*
D12*
X0165035Y0047000D03*
X0151649Y0047000D03*
X0151649Y0077000D03*
X0165035Y0077000D03*
X0130035Y0232000D03*
X0116649Y0232000D03*
X0116649Y0267000D03*
X0130035Y0267000D03*
D13*
X0128342Y0099600D02*
X0128342Y0094400D01*
X0118342Y0094400D02*
X0118342Y0099600D01*
D14*
X0302909Y0125307D03*
X0310783Y0125307D03*
X0318657Y0125307D03*
X0326531Y0125307D03*
X0334405Y0125307D03*
X0342279Y0125307D03*
X0350153Y0125307D03*
X0358027Y0125307D03*
X0365901Y0125307D03*
X0373775Y0125307D03*
X0373775Y0038693D03*
X0365901Y0038693D03*
X0358027Y0038693D03*
X0350153Y0038693D03*
X0342279Y0038693D03*
X0334405Y0038693D03*
X0326531Y0038693D03*
X0318657Y0038693D03*
X0310783Y0038693D03*
X0302909Y0038693D03*
D15*
X0240842Y0042000D03*
X0230842Y0042000D03*
X0220842Y0042000D03*
X0210842Y0042000D03*
X0200842Y0042000D03*
X0190842Y0042000D03*
X0200842Y0112000D03*
X0210842Y0112000D03*
X0220842Y0112000D03*
X0230842Y0112000D03*
D16*
X0230842Y0242000D03*
X0220842Y0242000D03*
X0210842Y0242000D03*
X0200842Y0242000D03*
X0190842Y0242000D03*
X0180842Y0242000D03*
X0170842Y0242000D03*
X0160842Y0242000D03*
X0258342Y0280000D03*
X0268342Y0280000D03*
X0278342Y0280000D03*
X0288342Y0280000D03*
X0298342Y0280000D03*
X0308342Y0280000D03*
X0318342Y0280000D03*
X0328342Y0280000D03*
X0338342Y0280000D03*
D17*
X0338342Y0252000D03*
X0308342Y0237000D03*
X0298342Y0222000D03*
X0268342Y0237000D03*
X0243342Y0262000D03*
X0243342Y0277000D03*
X0203342Y0277000D03*
X0188342Y0267000D03*
X0203342Y0262000D03*
X0148342Y0267000D03*
X0143342Y0252000D03*
X0103342Y0252000D03*
X0148342Y0162000D03*
X0123342Y0152000D03*
X0138342Y0122000D03*
X0123342Y0112000D03*
X0138342Y0097000D03*
X0128342Y0082000D03*
X0128342Y0042000D03*
X0178342Y0097000D03*
X0193342Y0087000D03*
X0193342Y0067000D03*
X0233342Y0067000D03*
X0233342Y0087000D03*
X0178342Y0122000D03*
X0188342Y0162000D03*
X0298342Y0252000D03*
X0338342Y0222000D03*
D18*
X0358342Y0232000D03*
X0368342Y0232000D03*
X0368342Y0252000D03*
X0358342Y0252000D03*
X0358342Y0272000D03*
X0368342Y0272000D03*
D19*
X0103617Y0042000D03*
X0076058Y0042000D03*
D20*
X0143342Y0142000D03*
X0153342Y0142000D03*
X0163342Y0142000D03*
X0173342Y0142000D03*
X0183342Y0142000D03*
X0193342Y0142000D03*
X0203342Y0142000D03*
X0213342Y0142000D03*
X0223342Y0142000D03*
X0233342Y0142000D03*
X0243342Y0142000D03*
X0253342Y0142000D03*
X0263342Y0142000D03*
X0273342Y0142000D03*
X0283342Y0142000D03*
X0293342Y0142000D03*
X0303342Y0142000D03*
X0313342Y0142000D03*
X0323342Y0142000D03*
X0333342Y0142000D03*
X0343342Y0142000D03*
X0353342Y0142000D03*
X0363342Y0142000D03*
X0373342Y0142000D03*
X0373342Y0202000D03*
X0363342Y0202000D03*
X0353342Y0202000D03*
X0343342Y0202000D03*
X0333342Y0202000D03*
X0323342Y0202000D03*
X0313342Y0202000D03*
X0303342Y0202000D03*
X0293342Y0202000D03*
X0283342Y0202000D03*
X0273342Y0202000D03*
X0263342Y0202000D03*
X0253342Y0202000D03*
X0243342Y0202000D03*
X0233342Y0202000D03*
X0223342Y0202000D03*
X0213342Y0202000D03*
X0203342Y0202000D03*
X0193342Y0202000D03*
X0183342Y0202000D03*
X0173342Y0202000D03*
X0163342Y0202000D03*
X0153342Y0202000D03*
X0143342Y0202000D03*
D21*
X0068342Y0102000D02*
X0063342Y0097000D01*
X0063342Y0082000D01*
X0063342Y0054717D01*
X0076058Y0042000D01*
X0103617Y0042000D02*
X0108142Y0042200D01*
X0103617Y0042000D02*
X0103617Y0051724D01*
X0103617Y0042000D02*
X0103617Y0081724D01*
D22*
X0103342Y0082000D01*
X0093342Y0082000D02*
X0093342Y0087000D01*
X0099142Y0092800D01*
X0107542Y0092800D01*
X0113342Y0087000D01*
X0113342Y0070200D01*
X0126342Y0057200D01*
X0175642Y0057200D01*
X0190842Y0042000D01*
X0183342Y0032000D02*
X0166649Y0032000D01*
X0151649Y0047000D01*
X0128342Y0042200D02*
X0108142Y0042200D01*
X0128342Y0042000D02*
X0148042Y0022300D01*
X0210842Y0022300D01*
X0210842Y0042000D01*
X0210842Y0044500D02*
X0233342Y0067000D01*
X0302909Y0092433D02*
X0302909Y0125307D01*
X0302909Y0092433D02*
X0326531Y0068811D01*
X0326531Y0038693D01*
X0343342Y0062000D02*
X0343342Y0082000D01*
X0343342Y0102000D01*
X0353342Y0102000D02*
X0373775Y0122433D01*
X0373775Y0125307D01*
X0353342Y0102000D02*
X0353342Y0082000D01*
X0353342Y0062000D01*
X0343342Y0062000D02*
X0333342Y0072000D01*
X0321531Y0072000D01*
X0153342Y0202000D02*
X0153342Y0214500D01*
X0180842Y0242000D01*
X0180842Y0259500D01*
X0188342Y0267000D01*
X0183342Y0277000D02*
X0160842Y0254500D01*
X0160842Y0242000D01*
X0160342Y0242000D02*
X0121649Y0242000D01*
X0116649Y0237000D01*
X0116649Y0232000D01*
X0116649Y0267000D01*
X0103342Y0287000D02*
X0103342Y0296356D01*
X0311986Y0296356D01*
X0328342Y0280000D01*
X0268742Y0270600D02*
X0202942Y0270600D01*
X0180842Y0248500D01*
X0183342Y0277000D02*
X0203342Y0277000D01*
X0143342Y0202000D02*
X0116649Y0228693D01*
X0116649Y0232000D01*
X0113342Y0228693D01*
X0113342Y0102000D01*
X0118342Y0097000D01*
X0123542Y0112100D02*
X0123542Y0122200D01*
X0143342Y0142000D01*
X0068342Y0257000D02*
X0068342Y0262000D01*
X0083342Y0277000D01*
X0093342Y0277000D01*
X0103342Y0287000D01*
D23*
X0073342Y0082000D02*
X0103617Y0051724D01*
D24*
X0128342Y0042200D02*
X0128342Y0042000D01*
X0128342Y0082000D02*
X0128542Y0082200D01*
X0128542Y0096800D01*
X0128342Y0097000D01*
X0123542Y0111800D02*
X0123542Y0112100D01*
X0123342Y0112000D01*
X0178342Y0122000D02*
X0183342Y0122000D01*
X0198342Y0137000D01*
X0198342Y0157000D01*
X0243342Y0202000D01*
X0253342Y0202000D02*
X0253342Y0197000D01*
X0208342Y0152000D01*
X0208342Y0137000D01*
X0193342Y0122000D01*
X0193342Y0087000D01*
X0193342Y0067000D01*
X0210842Y0044500D02*
X0210842Y0042000D01*
X0253342Y0142000D02*
X0258342Y0147000D01*
X0258342Y0240000D01*
X0285342Y0267000D01*
X0295342Y0267000D01*
X0308342Y0280000D01*
X0308342Y0237000D02*
X0308742Y0236600D01*
X0356042Y0236600D01*
X0358342Y0232000D01*
X0368342Y0232000D02*
X0369342Y0232000D01*
X0348342Y0211000D01*
X0291942Y0211000D01*
X0283342Y0202400D01*
X0283342Y0202000D01*
X0278342Y0197000D02*
X0283342Y0192000D01*
X0288342Y0192000D01*
X0293342Y0197000D01*
X0293342Y0202000D01*
X0278342Y0197000D02*
X0278342Y0227000D01*
X0268342Y0237000D01*
X0223342Y0202000D02*
X0210842Y0214500D01*
X0210842Y0242000D01*
X0190842Y0242000D02*
X0190842Y0224500D01*
X0213342Y0202000D01*
X0203342Y0202000D02*
X0203342Y0197000D01*
X0193342Y0187000D01*
X0173342Y0187000D01*
X0148342Y0162000D01*
X0148342Y0213693D01*
X0130035Y0232000D01*
X0143342Y0252000D02*
X0143342Y0262000D01*
X0148342Y0267000D01*
X0180842Y0248500D02*
X0180842Y0242000D01*
X0368342Y0232000D02*
X0368342Y0272000D01*
X0368342Y0252000D01*
D25*
X0333342Y0202000D02*
X0288342Y0157000D01*
X0288342Y0099500D01*
X0230842Y0042000D01*
X0220842Y0042000D02*
X0268342Y0089500D01*
X0268342Y0147000D01*
X0323342Y0202000D01*
X0138342Y0122000D02*
X0128342Y0112000D01*
X0123342Y0112000D01*
X0123542Y0111800D02*
X0138342Y0097000D01*
D26*
X0043142Y0020296D02*
X0043142Y0288704D01*
X0043366Y0287868D01*
X0044775Y0285427D01*
X0046768Y0283433D01*
X0049210Y0282024D01*
X0051932Y0281294D01*
X0054751Y0281294D01*
X0057474Y0282024D01*
X0059915Y0283433D01*
X0061908Y0285427D01*
X0063318Y0287868D01*
X0064047Y0290591D01*
X0064047Y0293409D01*
X0063318Y0296132D01*
X0061908Y0298573D01*
X0059915Y0300567D01*
X0059336Y0300901D01*
X0099826Y0300901D01*
X0098510Y0299585D01*
X0097642Y0297490D01*
X0097642Y0289785D01*
X0097352Y0289495D01*
X0095247Y0291600D01*
X0093342Y0291600D01*
X0093342Y0287000D01*
X0093342Y0287000D01*
X0093342Y0291600D01*
X0091436Y0291600D01*
X0088742Y0288905D01*
X0088742Y0287000D01*
X0093342Y0287000D01*
X0088742Y0287000D01*
X0088742Y0285095D01*
X0091059Y0282778D01*
X0090981Y0282700D01*
X0082208Y0282700D01*
X0080113Y0281832D01*
X0079342Y0281061D01*
X0079342Y0284485D01*
X0075837Y0287990D01*
X0077942Y0290095D01*
X0077942Y0292000D01*
X0077942Y0293905D01*
X0075247Y0296600D01*
X0073342Y0296600D01*
X0073342Y0292000D01*
X0077942Y0292000D01*
X0073342Y0292000D01*
X0073342Y0292000D01*
X0073342Y0292000D01*
X0073342Y0296600D01*
X0071436Y0296600D01*
X0068742Y0293905D01*
X0068742Y0292000D01*
X0073342Y0292000D01*
X0068742Y0292000D01*
X0068742Y0290095D01*
X0070846Y0287990D01*
X0067342Y0284485D01*
X0067342Y0279515D01*
X0070857Y0276000D01*
X0074281Y0276000D01*
X0065113Y0266832D01*
X0063510Y0265229D01*
X0063107Y0264258D01*
X0062831Y0263982D01*
X0061842Y0261593D01*
X0061842Y0252407D01*
X0062425Y0251000D01*
X0057546Y0251000D01*
X0056076Y0250391D01*
X0054951Y0249266D01*
X0054342Y0247796D01*
X0054342Y0181204D01*
X0054951Y0179734D01*
X0056076Y0178609D01*
X0057546Y0178000D01*
X0099137Y0178000D01*
X0100608Y0178609D01*
X0101733Y0179734D01*
X0102342Y0181204D01*
X0102342Y0246200D01*
X0105744Y0246200D01*
X0109142Y0249598D01*
X0109142Y0254402D01*
X0105744Y0257800D01*
X0100939Y0257800D01*
X0097542Y0254402D01*
X0097542Y0251000D01*
X0092684Y0251000D01*
X0092704Y0251027D01*
X0093068Y0251742D01*
X0093316Y0252506D01*
X0093442Y0253299D01*
X0093442Y0256700D01*
X0088642Y0256700D01*
X0088642Y0257300D01*
X0093442Y0257300D01*
X0093442Y0260701D01*
X0093316Y0261494D01*
X0093068Y0262258D01*
X0092704Y0262973D01*
X0092232Y0263622D01*
X0091664Y0264190D01*
X0091015Y0264662D01*
X0090300Y0265026D01*
X0089536Y0265274D01*
X0088743Y0265400D01*
X0088642Y0265400D01*
X0088642Y0257300D01*
X0088042Y0257300D01*
X0088042Y0265400D01*
X0087940Y0265400D01*
X0087148Y0265274D01*
X0086384Y0265026D01*
X0085669Y0264662D01*
X0085019Y0264190D01*
X0084452Y0263622D01*
X0084165Y0263227D01*
X0083852Y0263982D01*
X0082024Y0265810D01*
X0080744Y0266341D01*
X0085703Y0271300D01*
X0094476Y0271300D01*
X0096571Y0272168D01*
X0098174Y0273771D01*
X0098174Y0273771D01*
X0105403Y0281000D01*
X0105827Y0281000D01*
X0109342Y0284515D01*
X0109342Y0289485D01*
X0109042Y0289785D01*
X0109042Y0290656D01*
X0309625Y0290656D01*
X0315686Y0284595D01*
X0315564Y0284533D01*
X0314889Y0284043D01*
X0314299Y0283453D01*
X0314213Y0283334D01*
X0314022Y0283795D01*
X0312137Y0285680D01*
X0309675Y0286700D01*
X0307009Y0286700D01*
X0304547Y0285680D01*
X0303342Y0284475D01*
X0302137Y0285680D01*
X0299675Y0286700D01*
X0297009Y0286700D01*
X0294547Y0285680D01*
X0293342Y0284475D01*
X0292137Y0285680D01*
X0289675Y0286700D01*
X0287009Y0286700D01*
X0284547Y0285680D01*
X0283342Y0284475D01*
X0282137Y0285680D01*
X0279675Y0286700D01*
X0277009Y0286700D01*
X0274547Y0285680D01*
X0273342Y0284475D01*
X0272137Y0285680D01*
X0269675Y0286700D01*
X0267009Y0286700D01*
X0264547Y0285680D01*
X0263342Y0284475D01*
X0262137Y0285680D01*
X0259675Y0286700D01*
X0257009Y0286700D01*
X0254547Y0285680D01*
X0252662Y0283795D01*
X0251642Y0281333D01*
X0251642Y0278667D01*
X0252662Y0276205D01*
X0254547Y0274320D01*
X0257009Y0273300D01*
X0259675Y0273300D01*
X0262137Y0274320D01*
X0263342Y0275525D01*
X0264547Y0274320D01*
X0267009Y0273300D01*
X0269675Y0273300D01*
X0272137Y0274320D01*
X0273342Y0275525D01*
X0274547Y0274320D01*
X0277009Y0273300D01*
X0279675Y0273300D01*
X0282137Y0274320D01*
X0283342Y0275525D01*
X0284547Y0274320D01*
X0287009Y0273300D01*
X0289675Y0273300D01*
X0292137Y0274320D01*
X0293342Y0275525D01*
X0294547Y0274320D01*
X0296085Y0273683D01*
X0293602Y0271200D01*
X0284506Y0271200D01*
X0282963Y0270561D01*
X0281781Y0269379D01*
X0254781Y0242379D01*
X0254142Y0240835D01*
X0254142Y0208100D01*
X0252128Y0208100D01*
X0249886Y0207171D01*
X0248342Y0205627D01*
X0246797Y0207171D01*
X0244555Y0208100D01*
X0242128Y0208100D01*
X0239886Y0207171D01*
X0238342Y0205627D01*
X0236797Y0207171D01*
X0234555Y0208100D01*
X0232128Y0208100D01*
X0229886Y0207171D01*
X0228342Y0205627D01*
X0226797Y0207171D01*
X0224555Y0208100D01*
X0223181Y0208100D01*
X0215042Y0216240D01*
X0215042Y0236725D01*
X0215842Y0237525D01*
X0217047Y0236320D01*
X0219509Y0235300D01*
X0222175Y0235300D01*
X0224637Y0236320D01*
X0225842Y0237525D01*
X0227047Y0236320D01*
X0229509Y0235300D01*
X0232175Y0235300D01*
X0234637Y0236320D01*
X0236522Y0238205D01*
X0237542Y0240667D01*
X0237542Y0243333D01*
X0236522Y0245795D01*
X0234637Y0247680D01*
X0232175Y0248700D01*
X0229509Y0248700D01*
X0227047Y0247680D01*
X0225842Y0246475D01*
X0224637Y0247680D01*
X0222175Y0248700D01*
X0219509Y0248700D01*
X0217047Y0247680D01*
X0215842Y0246475D01*
X0214637Y0247680D01*
X0212175Y0248700D01*
X0209509Y0248700D01*
X0207047Y0247680D01*
X0205842Y0246475D01*
X0204637Y0247680D01*
X0202175Y0248700D01*
X0199509Y0248700D01*
X0197047Y0247680D01*
X0195842Y0246475D01*
X0194637Y0247680D01*
X0192175Y0248700D01*
X0189509Y0248700D01*
X0187047Y0247680D01*
X0185162Y0245795D01*
X0184971Y0245334D01*
X0184884Y0245453D01*
X0184295Y0246043D01*
X0183620Y0246533D01*
X0182876Y0246912D01*
X0182083Y0247169D01*
X0181259Y0247300D01*
X0181026Y0247300D01*
X0181026Y0242184D01*
X0180658Y0242184D01*
X0180658Y0247300D01*
X0180425Y0247300D01*
X0179601Y0247169D01*
X0178807Y0246912D01*
X0178064Y0246533D01*
X0177389Y0246043D01*
X0176799Y0245453D01*
X0176713Y0245334D01*
X0176522Y0245795D01*
X0174637Y0247680D01*
X0172175Y0248700D01*
X0169509Y0248700D01*
X0167047Y0247680D01*
X0166542Y0247175D01*
X0166542Y0252139D01*
X0185703Y0271300D01*
X0186419Y0271300D01*
X0183942Y0268823D01*
X0183942Y0267000D01*
X0183942Y0265177D01*
X0186519Y0262600D01*
X0188342Y0262600D01*
X0190164Y0262600D01*
X0192742Y0265177D01*
X0192742Y0267000D01*
X0192742Y0268823D01*
X0190264Y0271300D01*
X0200839Y0271300D01*
X0200939Y0271200D01*
X0205744Y0271200D01*
X0209142Y0274598D01*
X0209142Y0279402D01*
X0205744Y0282800D01*
X0200939Y0282800D01*
X0200839Y0282700D01*
X0182208Y0282700D01*
X0180113Y0281832D01*
X0156010Y0257729D01*
X0155142Y0255634D01*
X0155142Y0247700D01*
X0147244Y0247700D01*
X0149142Y0249598D01*
X0149142Y0254402D01*
X0147542Y0256002D01*
X0147542Y0260260D01*
X0148481Y0261200D01*
X0150744Y0261200D01*
X0154142Y0264598D01*
X0154142Y0269402D01*
X0150744Y0272800D01*
X0145939Y0272800D01*
X0142542Y0269402D01*
X0142542Y0267140D01*
X0139781Y0264379D01*
X0139142Y0262835D01*
X0139142Y0256002D01*
X0137542Y0254402D01*
X0137542Y0249598D01*
X0139439Y0247700D01*
X0122349Y0247700D01*
X0122349Y0265197D01*
X0122605Y0265815D01*
X0122605Y0268185D01*
X0121698Y0270374D01*
X0120023Y0272049D01*
X0117834Y0272956D01*
X0115464Y0272956D01*
X0113275Y0272049D01*
X0111600Y0270374D01*
X0110693Y0268185D01*
X0110693Y0265815D01*
X0110949Y0265197D01*
X0110949Y0234361D01*
X0110113Y0233525D01*
X0108510Y0231922D01*
X0107642Y0229827D01*
X0107642Y0100866D01*
X0108510Y0098771D01*
X0108855Y0098426D01*
X0108676Y0098500D01*
X0098008Y0098500D01*
X0095913Y0097632D01*
X0094310Y0096029D01*
X0094244Y0095963D01*
X0094842Y0097407D01*
X0094842Y0106593D01*
X0093852Y0108982D01*
X0092024Y0110810D01*
X0089635Y0111800D01*
X0087049Y0111800D01*
X0084660Y0110810D01*
X0082831Y0108982D01*
X0082519Y0108227D01*
X0082232Y0108622D01*
X0081664Y0109190D01*
X0081015Y0109662D01*
X0080300Y0110026D01*
X0079536Y0110274D01*
X0078743Y0110400D01*
X0078642Y0110400D01*
X0078642Y0102300D01*
X0078042Y0102300D01*
X0078042Y0110400D01*
X0077940Y0110400D01*
X0077148Y0110274D01*
X0076384Y0110026D01*
X0075669Y0109662D01*
X0075019Y0109190D01*
X0074452Y0108622D01*
X0074165Y0108227D01*
X0073852Y0108982D01*
X0072024Y0110810D01*
X0069635Y0111800D01*
X0067049Y0111800D01*
X0064660Y0110810D01*
X0062831Y0108982D01*
X0062198Y0107453D01*
X0058697Y0103952D01*
X0056390Y0101645D01*
X0055142Y0098631D01*
X0055142Y0053085D01*
X0056390Y0050072D01*
X0058697Y0047765D01*
X0061016Y0045446D01*
X0061016Y0035769D01*
X0069828Y0026957D01*
X0082289Y0026957D01*
X0090828Y0035496D01*
X0097966Y0028357D01*
X0102817Y0028357D01*
X0102817Y0041200D01*
X0104417Y0041200D01*
X0104417Y0028357D01*
X0109268Y0028357D01*
X0117260Y0036349D01*
X0117260Y0041200D01*
X0104417Y0041200D01*
X0104417Y0042800D01*
X0102817Y0042800D01*
X0102817Y0055643D01*
X0097966Y0055643D01*
X0090828Y0048504D01*
X0082289Y0057043D01*
X0072612Y0057043D01*
X0071542Y0058113D01*
X0071542Y0077400D01*
X0073342Y0077400D01*
X0075247Y0077400D01*
X0077942Y0080095D01*
X0077942Y0082000D01*
X0077942Y0083905D01*
X0075247Y0086600D01*
X0073342Y0086600D01*
X0073342Y0082000D01*
X0077942Y0082000D01*
X0073342Y0082000D01*
X0073342Y0082000D01*
X0073342Y0082000D01*
X0073342Y0077400D01*
X0073342Y0082000D01*
X0073342Y0082000D01*
X0073342Y0086600D01*
X0071542Y0086600D01*
X0071542Y0092990D01*
X0072024Y0093190D01*
X0073852Y0095018D01*
X0074165Y0095773D01*
X0074452Y0095378D01*
X0075019Y0094810D01*
X0075669Y0094338D01*
X0076384Y0093974D01*
X0077148Y0093726D01*
X0077940Y0093600D01*
X0078042Y0093600D01*
X0078042Y0101700D01*
X0078642Y0101700D01*
X0078642Y0093600D01*
X0078743Y0093600D01*
X0079536Y0093726D01*
X0080300Y0093974D01*
X0081015Y0094338D01*
X0081664Y0094810D01*
X0082232Y0095378D01*
X0082519Y0095773D01*
X0082831Y0095018D01*
X0084660Y0093190D01*
X0087049Y0092200D01*
X0089635Y0092200D01*
X0091079Y0092798D01*
X0088510Y0090229D01*
X0087642Y0088134D01*
X0087642Y0084785D01*
X0087342Y0084485D01*
X0087342Y0079515D01*
X0090857Y0076000D01*
X0095827Y0076000D01*
X0099332Y0079505D01*
X0101436Y0077400D01*
X0103342Y0077400D01*
X0105247Y0077400D01*
X0107642Y0079795D01*
X0107642Y0069066D01*
X0108510Y0066971D01*
X0110113Y0065368D01*
X0123113Y0052368D01*
X0125208Y0051500D01*
X0147726Y0051500D01*
X0146600Y0050374D01*
X0145693Y0048185D01*
X0145693Y0045815D01*
X0146600Y0043626D01*
X0148275Y0041951D01*
X0148893Y0041695D01*
X0161817Y0028771D01*
X0163420Y0027168D01*
X0165515Y0026300D01*
X0181025Y0026300D01*
X0182118Y0025847D01*
X0184566Y0025847D01*
X0186827Y0026784D01*
X0188558Y0028515D01*
X0189495Y0030776D01*
X0189495Y0033224D01*
X0188616Y0035345D01*
X0189449Y0035000D01*
X0192234Y0035000D01*
X0194807Y0036066D01*
X0195842Y0037101D01*
X0196877Y0036066D01*
X0199449Y0035000D01*
X0202234Y0035000D01*
X0204807Y0036066D01*
X0206776Y0038035D01*
X0206809Y0038114D01*
X0207194Y0037729D01*
X0207907Y0037210D01*
X0208692Y0036810D01*
X0209530Y0036538D01*
X0210401Y0036400D01*
X0210658Y0036400D01*
X0210658Y0041816D01*
X0211026Y0041816D01*
X0211026Y0036400D01*
X0211283Y0036400D01*
X0212153Y0036538D01*
X0212991Y0036810D01*
X0213777Y0037210D01*
X0214490Y0037729D01*
X0214875Y0038114D01*
X0214907Y0038035D01*
X0216877Y0036066D01*
X0219449Y0035000D01*
X0222234Y0035000D01*
X0224807Y0036066D01*
X0225842Y0037101D01*
X0226877Y0036066D01*
X0229449Y0035000D01*
X0232234Y0035000D01*
X0234807Y0036066D01*
X0235842Y0037101D01*
X0236877Y0036066D01*
X0239449Y0035000D01*
X0242234Y0035000D01*
X0244807Y0036066D01*
X0246776Y0038035D01*
X0247842Y0040608D01*
X0247842Y0043392D01*
X0246776Y0045965D01*
X0244807Y0047934D01*
X0243528Y0048464D01*
X0290834Y0095770D01*
X0292072Y0097008D01*
X0292742Y0098625D01*
X0292742Y0135900D01*
X0294555Y0135900D01*
X0296797Y0136829D01*
X0298342Y0138373D01*
X0299886Y0136829D01*
X0302128Y0135900D01*
X0304555Y0135900D01*
X0306797Y0136829D01*
X0308342Y0138373D01*
X0309886Y0136829D01*
X0312128Y0135900D01*
X0314555Y0135900D01*
X0316797Y0136829D01*
X0318342Y0138373D01*
X0318542Y0138173D01*
X0318542Y0136045D01*
X0319273Y0134281D01*
X0320623Y0132931D01*
X0323324Y0130229D01*
X0323260Y0130203D01*
X0322594Y0129537D01*
X0321928Y0130203D01*
X0319805Y0131082D01*
X0317508Y0131082D01*
X0315386Y0130203D01*
X0314720Y0129537D01*
X0314054Y0130203D01*
X0311931Y0131082D01*
X0309634Y0131082D01*
X0307512Y0130203D01*
X0305887Y0128578D01*
X0305869Y0128534D01*
X0305759Y0128644D01*
X0305202Y0129049D01*
X0304588Y0129361D01*
X0303933Y0129574D01*
X0303253Y0129682D01*
X0302909Y0129682D01*
X0302909Y0125307D01*
X0302909Y0120932D01*
X0303253Y0120932D01*
X0303933Y0121040D01*
X0304588Y0121253D01*
X0305202Y0121565D01*
X0305759Y0121970D01*
X0305869Y0122080D01*
X0305887Y0122036D01*
X0307512Y0120411D01*
X0309634Y0119532D01*
X0311931Y0119532D01*
X0314054Y0120411D01*
X0314720Y0121077D01*
X0315386Y0120411D01*
X0317508Y0119532D01*
X0319805Y0119532D01*
X0321928Y0120411D01*
X0322594Y0121077D01*
X0323260Y0120411D01*
X0325382Y0119532D01*
X0327679Y0119532D01*
X0329802Y0120411D01*
X0330468Y0121077D01*
X0331134Y0120411D01*
X0333256Y0119532D01*
X0335553Y0119532D01*
X0337676Y0120411D01*
X0338342Y0121077D01*
X0339008Y0120411D01*
X0341130Y0119532D01*
X0343427Y0119532D01*
X0345550Y0120411D01*
X0346216Y0121077D01*
X0346882Y0120411D01*
X0349004Y0119532D01*
X0351302Y0119532D01*
X0353424Y0120411D01*
X0354090Y0121077D01*
X0354756Y0120411D01*
X0356878Y0119532D01*
X0359176Y0119532D01*
X0361298Y0120411D01*
X0361964Y0121077D01*
X0362630Y0120411D01*
X0363381Y0120100D01*
X0351281Y0108000D01*
X0350857Y0108000D01*
X0347352Y0104495D01*
X0345247Y0106600D01*
X0343342Y0106600D01*
X0343342Y0102000D01*
X0343342Y0102000D01*
X0343342Y0097400D01*
X0345247Y0097400D01*
X0347352Y0099505D01*
X0347642Y0099215D01*
X0347642Y0084785D01*
X0347352Y0084495D01*
X0345247Y0086600D01*
X0343342Y0086600D01*
X0343342Y0082000D01*
X0343342Y0082000D01*
X0343342Y0077400D01*
X0345247Y0077400D01*
X0347352Y0079505D01*
X0347642Y0079215D01*
X0347642Y0064785D01*
X0347352Y0064495D01*
X0345247Y0066600D01*
X0343342Y0066600D01*
X0343342Y0062000D01*
X0343342Y0062000D01*
X0343342Y0057400D01*
X0345247Y0057400D01*
X0347352Y0059505D01*
X0350857Y0056000D01*
X0355827Y0056000D01*
X0359342Y0059515D01*
X0359342Y0064485D01*
X0359042Y0064785D01*
X0359042Y0079215D01*
X0359342Y0079515D01*
X0359342Y0084485D01*
X0359042Y0084785D01*
X0359042Y0099215D01*
X0359342Y0099515D01*
X0359342Y0099939D01*
X0377004Y0117601D01*
X0378607Y0119204D01*
X0379475Y0121299D01*
X0379475Y0123978D01*
X0379550Y0124158D01*
X0379550Y0126456D01*
X0378671Y0128578D01*
X0377046Y0130203D01*
X0374924Y0131082D01*
X0372626Y0131082D01*
X0370504Y0130203D01*
X0369838Y0129537D01*
X0369172Y0130203D01*
X0368579Y0130449D01*
X0374030Y0135900D01*
X0374555Y0135900D01*
X0376797Y0136829D01*
X0378513Y0138545D01*
X0379442Y0140787D01*
X0379442Y0143213D01*
X0378513Y0145455D01*
X0376797Y0147171D01*
X0374555Y0148100D01*
X0372128Y0148100D01*
X0369886Y0147171D01*
X0368342Y0145627D01*
X0366797Y0147171D01*
X0364555Y0148100D01*
X0362128Y0148100D01*
X0359886Y0147171D01*
X0358342Y0145627D01*
X0356797Y0147171D01*
X0354555Y0148100D01*
X0352128Y0148100D01*
X0349886Y0147171D01*
X0348342Y0145627D01*
X0346797Y0147171D01*
X0344555Y0148100D01*
X0342128Y0148100D01*
X0339886Y0147171D01*
X0338342Y0145627D01*
X0336797Y0147171D01*
X0334555Y0148100D01*
X0332128Y0148100D01*
X0329886Y0147171D01*
X0328342Y0145627D01*
X0326797Y0147171D01*
X0324555Y0148100D01*
X0322128Y0148100D01*
X0319886Y0147171D01*
X0318342Y0145627D01*
X0316797Y0147171D01*
X0314555Y0148100D01*
X0312128Y0148100D01*
X0309886Y0147171D01*
X0308342Y0145627D01*
X0306797Y0147171D01*
X0304555Y0148100D01*
X0302128Y0148100D01*
X0299886Y0147171D01*
X0298342Y0145627D01*
X0296797Y0147171D01*
X0294555Y0148100D01*
X0292742Y0148100D01*
X0292742Y0155177D01*
X0333464Y0195900D01*
X0334555Y0195900D01*
X0336797Y0196829D01*
X0338342Y0198373D01*
X0339886Y0196829D01*
X0342128Y0195900D01*
X0344555Y0195900D01*
X0346797Y0196829D01*
X0348342Y0198373D01*
X0349886Y0196829D01*
X0352128Y0195900D01*
X0354555Y0195900D01*
X0356797Y0196829D01*
X0358342Y0198373D01*
X0359886Y0196829D01*
X0362128Y0195900D01*
X0364555Y0195900D01*
X0366797Y0196829D01*
X0368342Y0198373D01*
X0369886Y0196829D01*
X0372128Y0195900D01*
X0374555Y0195900D01*
X0376797Y0196829D01*
X0378513Y0198545D01*
X0379442Y0200787D01*
X0379442Y0203213D01*
X0378513Y0205455D01*
X0376797Y0207171D01*
X0374555Y0208100D01*
X0372128Y0208100D01*
X0369886Y0207171D01*
X0368342Y0205627D01*
X0366797Y0207171D01*
X0364555Y0208100D01*
X0362128Y0208100D01*
X0359886Y0207171D01*
X0358342Y0205627D01*
X0356797Y0207171D01*
X0354555Y0208100D01*
X0352128Y0208100D01*
X0349886Y0207171D01*
X0348342Y0205627D01*
X0346797Y0207171D01*
X0344555Y0208100D01*
X0342128Y0208100D01*
X0339886Y0207171D01*
X0338342Y0205627D01*
X0336797Y0207171D01*
X0334555Y0208100D01*
X0332128Y0208100D01*
X0329886Y0207171D01*
X0328342Y0205627D01*
X0326797Y0207171D01*
X0324555Y0208100D01*
X0322128Y0208100D01*
X0319886Y0207171D01*
X0318342Y0205627D01*
X0316797Y0207171D01*
X0314555Y0208100D01*
X0312128Y0208100D01*
X0309886Y0207171D01*
X0308342Y0205627D01*
X0306797Y0207171D01*
X0304555Y0208100D01*
X0302128Y0208100D01*
X0299886Y0207171D01*
X0298342Y0205627D01*
X0296797Y0207171D01*
X0294555Y0208100D01*
X0292128Y0208100D01*
X0289886Y0207171D01*
X0288170Y0205455D01*
X0287581Y0204033D01*
X0287362Y0204463D01*
X0286927Y0205062D01*
X0286404Y0205585D01*
X0285805Y0206020D01*
X0285146Y0206356D01*
X0284442Y0206584D01*
X0283712Y0206700D01*
X0283492Y0206700D01*
X0283492Y0202150D01*
X0283192Y0202150D01*
X0283192Y0206700D01*
X0282972Y0206700D01*
X0282542Y0206632D01*
X0282542Y0227835D01*
X0281902Y0229379D01*
X0280721Y0230561D01*
X0274142Y0237140D01*
X0274142Y0239402D01*
X0270744Y0242800D01*
X0267081Y0242800D01*
X0287081Y0262800D01*
X0296177Y0262800D01*
X0297721Y0263439D01*
X0298902Y0264621D01*
X0307581Y0273300D01*
X0309675Y0273300D01*
X0312137Y0274320D01*
X0314022Y0276205D01*
X0314213Y0276666D01*
X0314299Y0276547D01*
X0314889Y0275957D01*
X0315564Y0275467D01*
X0316307Y0275088D01*
X0317101Y0274830D01*
X0317925Y0274700D01*
X0318158Y0274700D01*
X0318158Y0279816D01*
X0318526Y0279816D01*
X0318526Y0274700D01*
X0318759Y0274700D01*
X0319583Y0274830D01*
X0320376Y0275088D01*
X0321120Y0275467D01*
X0321795Y0275957D01*
X0322384Y0276547D01*
X0322471Y0276666D01*
X0322662Y0276205D01*
X0324547Y0274320D01*
X0327009Y0273300D01*
X0329675Y0273300D01*
X0332137Y0274320D01*
X0333342Y0275525D01*
X0334547Y0274320D01*
X0337009Y0273300D01*
X0339675Y0273300D01*
X0342137Y0274320D01*
X0344022Y0276205D01*
X0345042Y0278667D01*
X0345042Y0281333D01*
X0344022Y0283795D01*
X0342137Y0285680D01*
X0339675Y0286700D01*
X0337009Y0286700D01*
X0334547Y0285680D01*
X0333342Y0284475D01*
X0332137Y0285680D01*
X0329723Y0286680D01*
X0315502Y0300901D01*
X0367347Y0300901D01*
X0366768Y0300567D01*
X0364775Y0298573D01*
X0363366Y0296132D01*
X0362636Y0293409D01*
X0362636Y0290591D01*
X0363366Y0287868D01*
X0364775Y0285427D01*
X0366768Y0283433D01*
X0369210Y0282024D01*
X0371932Y0281294D01*
X0374751Y0281294D01*
X0377474Y0282024D01*
X0379915Y0283433D01*
X0381908Y0285427D01*
X0383318Y0287868D01*
X0383463Y0288410D01*
X0383463Y0020590D01*
X0383318Y0021132D01*
X0381908Y0023573D01*
X0379915Y0025567D01*
X0377474Y0026976D01*
X0374751Y0027705D01*
X0371932Y0027705D01*
X0369210Y0026976D01*
X0366768Y0025567D01*
X0364775Y0023573D01*
X0363366Y0021132D01*
X0362636Y0018409D01*
X0362636Y0015591D01*
X0363366Y0012868D01*
X0364775Y0010427D01*
X0366768Y0008433D01*
X0369210Y0007024D01*
X0370046Y0006800D01*
X0056638Y0006800D01*
X0057474Y0007024D01*
X0059915Y0008433D01*
X0061908Y0010427D01*
X0063318Y0012868D01*
X0064047Y0015591D01*
X0064047Y0018409D01*
X0063318Y0021132D01*
X0061908Y0023573D01*
X0059915Y0025567D01*
X0057474Y0026976D01*
X0054751Y0027705D01*
X0051932Y0027705D01*
X0049210Y0026976D01*
X0046768Y0025567D01*
X0044775Y0023573D01*
X0043366Y0021132D01*
X0043142Y0020296D01*
X0043142Y0021796D02*
X0043749Y0021796D01*
X0043142Y0023394D02*
X0044672Y0023394D01*
X0046194Y0024993D02*
X0043142Y0024993D01*
X0043142Y0026591D02*
X0048543Y0026591D01*
X0043142Y0028190D02*
X0068595Y0028190D01*
X0066997Y0029788D02*
X0043142Y0029788D01*
X0043142Y0031387D02*
X0065398Y0031387D01*
X0063800Y0032985D02*
X0043142Y0032985D01*
X0043142Y0034584D02*
X0062201Y0034584D01*
X0061016Y0036182D02*
X0043142Y0036182D01*
X0043142Y0037781D02*
X0061016Y0037781D01*
X0061016Y0039379D02*
X0043142Y0039379D01*
X0043142Y0040978D02*
X0061016Y0040978D01*
X0061016Y0042576D02*
X0043142Y0042576D01*
X0043142Y0044175D02*
X0061016Y0044175D01*
X0060689Y0045773D02*
X0043142Y0045773D01*
X0043142Y0047372D02*
X0059090Y0047372D01*
X0057492Y0048970D02*
X0043142Y0048970D01*
X0043142Y0050569D02*
X0056184Y0050569D01*
X0055522Y0052167D02*
X0043142Y0052167D01*
X0043142Y0053766D02*
X0055142Y0053766D01*
X0055142Y0055364D02*
X0043142Y0055364D01*
X0043142Y0056963D02*
X0055142Y0056963D01*
X0055142Y0058561D02*
X0043142Y0058561D01*
X0043142Y0060160D02*
X0055142Y0060160D01*
X0055142Y0061758D02*
X0043142Y0061758D01*
X0043142Y0063357D02*
X0055142Y0063357D01*
X0055142Y0064955D02*
X0043142Y0064955D01*
X0043142Y0066554D02*
X0055142Y0066554D01*
X0055142Y0068152D02*
X0043142Y0068152D01*
X0043142Y0069751D02*
X0055142Y0069751D01*
X0055142Y0071349D02*
X0043142Y0071349D01*
X0043142Y0072948D02*
X0055142Y0072948D01*
X0055142Y0074546D02*
X0043142Y0074546D01*
X0043142Y0076145D02*
X0055142Y0076145D01*
X0055142Y0077743D02*
X0043142Y0077743D01*
X0043142Y0079342D02*
X0055142Y0079342D01*
X0055142Y0080940D02*
X0043142Y0080940D01*
X0043142Y0082539D02*
X0055142Y0082539D01*
X0055142Y0084137D02*
X0043142Y0084137D01*
X0043142Y0085736D02*
X0055142Y0085736D01*
X0055142Y0087334D02*
X0043142Y0087334D01*
X0043142Y0088933D02*
X0055142Y0088933D01*
X0055142Y0090532D02*
X0043142Y0090532D01*
X0043142Y0092130D02*
X0055142Y0092130D01*
X0055142Y0093729D02*
X0043142Y0093729D01*
X0043142Y0095327D02*
X0055142Y0095327D01*
X0055142Y0096926D02*
X0043142Y0096926D01*
X0043142Y0098524D02*
X0055142Y0098524D01*
X0055760Y0100123D02*
X0043142Y0100123D01*
X0043142Y0101721D02*
X0056466Y0101721D01*
X0058065Y0103320D02*
X0043142Y0103320D01*
X0043142Y0104918D02*
X0059663Y0104918D01*
X0061262Y0106517D02*
X0043142Y0106517D01*
X0043142Y0108115D02*
X0062472Y0108115D01*
X0063563Y0109714D02*
X0043142Y0109714D01*
X0043142Y0111312D02*
X0065871Y0111312D01*
X0070812Y0111312D02*
X0085871Y0111312D01*
X0083563Y0109714D02*
X0080913Y0109714D01*
X0078642Y0109714D02*
X0078042Y0109714D01*
X0078042Y0108115D02*
X0078642Y0108115D01*
X0078642Y0106517D02*
X0078042Y0106517D01*
X0078042Y0104918D02*
X0078642Y0104918D01*
X0078642Y0103320D02*
X0078042Y0103320D01*
X0078042Y0100123D02*
X0078642Y0100123D01*
X0078642Y0098524D02*
X0078042Y0098524D01*
X0078042Y0096926D02*
X0078642Y0096926D01*
X0078642Y0095327D02*
X0078042Y0095327D01*
X0078042Y0093729D02*
X0078642Y0093729D01*
X0079545Y0093729D02*
X0084121Y0093729D01*
X0082703Y0095327D02*
X0082181Y0095327D01*
X0077138Y0093729D02*
X0072563Y0093729D01*
X0071542Y0092130D02*
X0090411Y0092130D01*
X0088812Y0090532D02*
X0071542Y0090532D01*
X0071542Y0088933D02*
X0087973Y0088933D01*
X0087642Y0087334D02*
X0071542Y0087334D01*
X0073342Y0085736D02*
X0073342Y0085736D01*
X0073342Y0084137D02*
X0073342Y0084137D01*
X0073342Y0082539D02*
X0073342Y0082539D01*
X0073342Y0080940D02*
X0073342Y0080940D01*
X0073342Y0079342D02*
X0073342Y0079342D01*
X0073342Y0077743D02*
X0073342Y0077743D01*
X0075591Y0077743D02*
X0089113Y0077743D01*
X0090712Y0076145D02*
X0071542Y0076145D01*
X0071542Y0074546D02*
X0107642Y0074546D01*
X0107642Y0072948D02*
X0071542Y0072948D01*
X0071542Y0071349D02*
X0107642Y0071349D01*
X0107642Y0069751D02*
X0071542Y0069751D01*
X0071542Y0068152D02*
X0108020Y0068152D01*
X0108927Y0066554D02*
X0071542Y0066554D01*
X0071542Y0064955D02*
X0110525Y0064955D01*
X0112124Y0063357D02*
X0071542Y0063357D01*
X0071542Y0061758D02*
X0113722Y0061758D01*
X0115321Y0060160D02*
X0071542Y0060160D01*
X0071542Y0058561D02*
X0116919Y0058561D01*
X0118518Y0056963D02*
X0082369Y0056963D01*
X0083967Y0055364D02*
X0097688Y0055364D01*
X0096090Y0053766D02*
X0085566Y0053766D01*
X0087164Y0052167D02*
X0094491Y0052167D01*
X0092893Y0050569D02*
X0088763Y0050569D01*
X0090361Y0048970D02*
X0091294Y0048970D01*
X0102817Y0048970D02*
X0104417Y0048970D01*
X0104417Y0047372D02*
X0102817Y0047372D01*
X0102817Y0045773D02*
X0104417Y0045773D01*
X0104417Y0044175D02*
X0102817Y0044175D01*
X0104417Y0042800D02*
X0104417Y0055643D01*
X0109268Y0055643D01*
X0117260Y0047651D01*
X0117260Y0042800D01*
X0104417Y0042800D01*
X0104417Y0042576D02*
X0123942Y0042576D01*
X0123942Y0042000D02*
X0128342Y0042000D01*
X0132742Y0042000D01*
X0132742Y0043823D01*
X0130164Y0046400D01*
X0128342Y0046400D01*
X0128342Y0042000D01*
X0128342Y0042000D01*
X0132742Y0042000D01*
X0132742Y0040177D01*
X0130164Y0037600D01*
X0128342Y0037600D01*
X0128342Y0042000D01*
X0128342Y0042000D01*
X0128342Y0042000D01*
X0128342Y0046400D01*
X0126519Y0046400D01*
X0123942Y0043823D01*
X0123942Y0042000D01*
X0123942Y0040177D01*
X0126519Y0037600D01*
X0128342Y0037600D01*
X0128342Y0042000D01*
X0123942Y0042000D01*
X0123942Y0040978D02*
X0117260Y0040978D01*
X0117260Y0039379D02*
X0124740Y0039379D01*
X0126339Y0037781D02*
X0117260Y0037781D01*
X0117093Y0036182D02*
X0154406Y0036182D01*
X0156004Y0034584D02*
X0115494Y0034584D01*
X0113896Y0032985D02*
X0157603Y0032985D01*
X0159201Y0031387D02*
X0112297Y0031387D01*
X0110699Y0029788D02*
X0160800Y0029788D01*
X0162398Y0028190D02*
X0083521Y0028190D01*
X0085120Y0029788D02*
X0096536Y0029788D01*
X0094937Y0031387D02*
X0086718Y0031387D01*
X0088317Y0032985D02*
X0093339Y0032985D01*
X0091740Y0034584D02*
X0089915Y0034584D01*
X0102817Y0034584D02*
X0104417Y0034584D01*
X0104417Y0036182D02*
X0102817Y0036182D01*
X0102817Y0037781D02*
X0104417Y0037781D01*
X0104417Y0039379D02*
X0102817Y0039379D01*
X0102817Y0040978D02*
X0104417Y0040978D01*
X0104417Y0050569D02*
X0102817Y0050569D01*
X0102817Y0052167D02*
X0104417Y0052167D01*
X0104417Y0053766D02*
X0102817Y0053766D01*
X0102817Y0055364D02*
X0104417Y0055364D01*
X0109547Y0055364D02*
X0120116Y0055364D01*
X0121715Y0053766D02*
X0111145Y0053766D01*
X0112744Y0052167D02*
X0123597Y0052167D01*
X0125892Y0045773D02*
X0117260Y0045773D01*
X0117260Y0044175D02*
X0124294Y0044175D01*
X0128342Y0044175D02*
X0128342Y0044175D01*
X0128342Y0045773D02*
X0128342Y0045773D01*
X0130791Y0045773D02*
X0145710Y0045773D01*
X0145693Y0047372D02*
X0117260Y0047372D01*
X0115941Y0048970D02*
X0146018Y0048970D01*
X0146795Y0050569D02*
X0114342Y0050569D01*
X0128342Y0042576D02*
X0128342Y0042576D01*
X0128342Y0042000D02*
X0128342Y0042000D01*
X0128342Y0040978D02*
X0128342Y0040978D01*
X0128342Y0039379D02*
X0128342Y0039379D01*
X0128342Y0037781D02*
X0128342Y0037781D01*
X0130345Y0037781D02*
X0152807Y0037781D01*
X0151209Y0039379D02*
X0131943Y0039379D01*
X0132742Y0040978D02*
X0149610Y0040978D01*
X0147650Y0042576D02*
X0132742Y0042576D01*
X0132390Y0044175D02*
X0146373Y0044175D01*
X0164812Y0026591D02*
X0058141Y0026591D01*
X0060489Y0024993D02*
X0366194Y0024993D01*
X0364672Y0023394D02*
X0062012Y0023394D01*
X0062935Y0021796D02*
X0363749Y0021796D01*
X0363115Y0020197D02*
X0063568Y0020197D01*
X0063997Y0018599D02*
X0362687Y0018599D01*
X0362636Y0017000D02*
X0064047Y0017000D01*
X0063997Y0015401D02*
X0362687Y0015401D01*
X0363115Y0013803D02*
X0063568Y0013803D01*
X0062935Y0012204D02*
X0363749Y0012204D01*
X0364672Y0010606D02*
X0062012Y0010606D01*
X0060489Y0009007D02*
X0366194Y0009007D01*
X0368543Y0007409D02*
X0058141Y0007409D01*
X0102817Y0029788D02*
X0104417Y0029788D01*
X0104417Y0031387D02*
X0102817Y0031387D01*
X0102817Y0032985D02*
X0104417Y0032985D01*
X0128703Y0062900D02*
X0119042Y0072561D01*
X0119042Y0088134D01*
X0118849Y0088600D01*
X0119495Y0088600D01*
X0121627Y0089483D01*
X0123259Y0091115D01*
X0123342Y0091315D01*
X0123425Y0091115D01*
X0124342Y0090198D01*
X0124342Y0086202D01*
X0122542Y0084402D01*
X0122542Y0079598D01*
X0125939Y0076200D01*
X0130744Y0076200D01*
X0134142Y0079598D01*
X0134142Y0084402D01*
X0132742Y0085802D01*
X0132742Y0090598D01*
X0133259Y0091115D01*
X0134142Y0093246D01*
X0134142Y0094977D01*
X0136519Y0092600D01*
X0138342Y0092600D01*
X0140164Y0092600D01*
X0142742Y0095177D01*
X0142742Y0097000D01*
X0142742Y0098823D01*
X0140164Y0101400D01*
X0138342Y0101400D01*
X0138342Y0097000D01*
X0142742Y0097000D01*
X0138342Y0097000D01*
X0138342Y0097000D01*
X0138342Y0097000D01*
X0138342Y0092600D01*
X0138342Y0097000D01*
X0138342Y0097000D01*
X0138342Y0101400D01*
X0136519Y0101400D01*
X0134142Y0099023D01*
X0134142Y0100754D01*
X0133259Y0102885D01*
X0131627Y0104517D01*
X0129495Y0105400D01*
X0127188Y0105400D01*
X0125056Y0104517D01*
X0123425Y0102885D01*
X0123342Y0102685D01*
X0123259Y0102885D01*
X0121627Y0104517D01*
X0119495Y0105400D01*
X0119042Y0105400D01*
X0119042Y0110077D01*
X0121519Y0107600D01*
X0123342Y0107600D01*
X0125164Y0107600D01*
X0127742Y0110177D01*
X0127742Y0112000D01*
X0127742Y0113823D01*
X0125164Y0116400D01*
X0123342Y0116400D01*
X0123342Y0112000D01*
X0127742Y0112000D01*
X0123342Y0112000D01*
X0123342Y0112000D01*
X0123342Y0112000D01*
X0123342Y0107600D01*
X0123342Y0112000D01*
X0123342Y0112000D01*
X0123342Y0116400D01*
X0121519Y0116400D01*
X0119042Y0113923D01*
X0119042Y0148098D01*
X0120939Y0146200D01*
X0125744Y0146200D01*
X0129142Y0149598D01*
X0129142Y0154402D01*
X0125744Y0157800D01*
X0120939Y0157800D01*
X0119042Y0155902D01*
X0119042Y0218239D01*
X0137770Y0199510D01*
X0138170Y0198545D01*
X0139886Y0196829D01*
X0142128Y0195900D01*
X0144142Y0195900D01*
X0144142Y0166002D01*
X0142542Y0164402D01*
X0142542Y0159598D01*
X0145939Y0156200D01*
X0150744Y0156200D01*
X0154142Y0159598D01*
X0154142Y0161860D01*
X0175081Y0182800D01*
X0194177Y0182800D01*
X0195721Y0183439D01*
X0205721Y0193439D01*
X0206902Y0194621D01*
X0207542Y0196165D01*
X0207542Y0197573D01*
X0208342Y0198373D01*
X0209886Y0196829D01*
X0212128Y0195900D01*
X0214555Y0195900D01*
X0216797Y0196829D01*
X0218342Y0198373D01*
X0219886Y0196829D01*
X0222128Y0195900D01*
X0224555Y0195900D01*
X0226797Y0196829D01*
X0228342Y0198373D01*
X0229886Y0196829D01*
X0231544Y0196142D01*
X0195963Y0160561D01*
X0194781Y0159379D01*
X0194142Y0157835D01*
X0194142Y0148100D01*
X0192128Y0148100D01*
X0189886Y0147171D01*
X0188342Y0145627D01*
X0186797Y0147171D01*
X0184555Y0148100D01*
X0182128Y0148100D01*
X0179886Y0147171D01*
X0178342Y0145627D01*
X0176797Y0147171D01*
X0174555Y0148100D01*
X0172128Y0148100D01*
X0169886Y0147171D01*
X0168342Y0145627D01*
X0166797Y0147171D01*
X0164555Y0148100D01*
X0162128Y0148100D01*
X0159886Y0147171D01*
X0158342Y0145627D01*
X0156797Y0147171D01*
X0154555Y0148100D01*
X0152128Y0148100D01*
X0149886Y0147171D01*
X0148170Y0145455D01*
X0147581Y0144032D01*
X0147362Y0144463D01*
X0146927Y0145062D01*
X0146404Y0145585D01*
X0145805Y0146020D01*
X0145146Y0146356D01*
X0144442Y0146584D01*
X0143712Y0146700D01*
X0143492Y0146700D01*
X0143492Y0142150D01*
X0143192Y0142150D01*
X0143192Y0146700D01*
X0142972Y0146700D01*
X0142241Y0146584D01*
X0141538Y0146356D01*
X0140878Y0146020D01*
X0140280Y0145585D01*
X0139757Y0145062D01*
X0139322Y0144463D01*
X0138986Y0143804D01*
X0138758Y0143101D01*
X0138642Y0142370D01*
X0138642Y0142150D01*
X0143192Y0142150D01*
X0143192Y0141850D01*
X0143492Y0141850D01*
X0143492Y0137300D01*
X0143712Y0137300D01*
X0144442Y0137416D01*
X0145146Y0137644D01*
X0145805Y0137980D01*
X0146404Y0138415D01*
X0146927Y0138938D01*
X0147362Y0139537D01*
X0147581Y0139967D01*
X0148170Y0138545D01*
X0149886Y0136829D01*
X0152128Y0135900D01*
X0154555Y0135900D01*
X0156797Y0136829D01*
X0158342Y0138373D01*
X0159886Y0136829D01*
X0162128Y0135900D01*
X0164555Y0135900D01*
X0166797Y0136829D01*
X0168342Y0138373D01*
X0169886Y0136829D01*
X0172128Y0135900D01*
X0174555Y0135900D01*
X0176797Y0136829D01*
X0178342Y0138373D01*
X0179886Y0136829D01*
X0182128Y0135900D01*
X0184555Y0135900D01*
X0186797Y0136829D01*
X0188342Y0138373D01*
X0189886Y0136829D01*
X0191544Y0136142D01*
X0181973Y0126571D01*
X0180744Y0127800D01*
X0175939Y0127800D01*
X0172542Y0124402D01*
X0172542Y0119598D01*
X0175939Y0116200D01*
X0180744Y0116200D01*
X0182344Y0117800D01*
X0184177Y0117800D01*
X0185721Y0118439D01*
X0189142Y0121860D01*
X0189142Y0091002D01*
X0187542Y0089402D01*
X0187542Y0084598D01*
X0189142Y0082998D01*
X0189142Y0071002D01*
X0187542Y0069402D01*
X0187542Y0064598D01*
X0190939Y0061200D01*
X0195744Y0061200D01*
X0199142Y0064598D01*
X0199142Y0069402D01*
X0197542Y0071002D01*
X0197542Y0082998D01*
X0199142Y0084598D01*
X0199142Y0089402D01*
X0197542Y0091002D01*
X0197542Y0105790D01*
X0199449Y0105000D01*
X0202234Y0105000D01*
X0204807Y0106066D01*
X0205842Y0107101D01*
X0206877Y0106066D01*
X0209449Y0105000D01*
X0212234Y0105000D01*
X0214807Y0106066D01*
X0215842Y0107101D01*
X0216877Y0106066D01*
X0219449Y0105000D01*
X0222234Y0105000D01*
X0224807Y0106066D01*
X0225842Y0107101D01*
X0226877Y0106066D01*
X0229449Y0105000D01*
X0232234Y0105000D01*
X0234807Y0106066D01*
X0236776Y0108035D01*
X0237842Y0110608D01*
X0237842Y0113392D01*
X0236776Y0115965D01*
X0234807Y0117934D01*
X0232234Y0119000D01*
X0229449Y0119000D01*
X0226877Y0117934D01*
X0225842Y0116899D01*
X0224807Y0117934D01*
X0222234Y0119000D01*
X0219449Y0119000D01*
X0216877Y0117934D01*
X0215842Y0116899D01*
X0214807Y0117934D01*
X0212234Y0119000D01*
X0209449Y0119000D01*
X0206877Y0117934D01*
X0205842Y0116899D01*
X0204807Y0117934D01*
X0202234Y0119000D01*
X0199449Y0119000D01*
X0197542Y0118210D01*
X0197542Y0120260D01*
X0211902Y0134621D01*
X0212432Y0135900D01*
X0214555Y0135900D01*
X0216797Y0136829D01*
X0218342Y0138373D01*
X0219886Y0136829D01*
X0222128Y0135900D01*
X0224555Y0135900D01*
X0226797Y0136829D01*
X0228342Y0138373D01*
X0229886Y0136829D01*
X0232128Y0135900D01*
X0234555Y0135900D01*
X0236797Y0136829D01*
X0238342Y0138373D01*
X0239886Y0136829D01*
X0242128Y0135900D01*
X0244555Y0135900D01*
X0246797Y0136829D01*
X0248342Y0138373D01*
X0249886Y0136829D01*
X0252128Y0135900D01*
X0254555Y0135900D01*
X0256797Y0136829D01*
X0258342Y0138373D01*
X0259886Y0136829D01*
X0262128Y0135900D01*
X0263942Y0135900D01*
X0263942Y0091323D01*
X0221619Y0049000D01*
X0219449Y0049000D01*
X0216877Y0047934D01*
X0214907Y0045965D01*
X0214875Y0045886D01*
X0214490Y0046271D01*
X0213777Y0046790D01*
X0212991Y0047190D01*
X0212153Y0047462D01*
X0211283Y0047600D01*
X0211026Y0047600D01*
X0211026Y0042184D01*
X0210658Y0042184D01*
X0210658Y0047600D01*
X0210401Y0047600D01*
X0209530Y0047462D01*
X0208692Y0047190D01*
X0207907Y0046790D01*
X0207194Y0046271D01*
X0206809Y0045886D01*
X0206776Y0045965D01*
X0204807Y0047934D01*
X0202234Y0049000D01*
X0199449Y0049000D01*
X0196877Y0047934D01*
X0195842Y0046899D01*
X0194807Y0047934D01*
X0192234Y0049000D01*
X0191903Y0049000D01*
X0178871Y0062032D01*
X0176776Y0062900D01*
X0128703Y0062900D01*
X0128246Y0063357D02*
X0188783Y0063357D01*
X0187542Y0064955D02*
X0126647Y0064955D01*
X0125049Y0066554D02*
X0187542Y0066554D01*
X0187542Y0068152D02*
X0123450Y0068152D01*
X0121852Y0069751D02*
X0187890Y0069751D01*
X0189142Y0071349D02*
X0166956Y0071349D01*
X0166219Y0071044D02*
X0168408Y0071951D01*
X0170084Y0073626D01*
X0170991Y0075815D01*
X0170991Y0078185D01*
X0170084Y0080374D01*
X0168408Y0082049D01*
X0166219Y0082956D01*
X0163850Y0082956D01*
X0161661Y0082049D01*
X0159986Y0080374D01*
X0159079Y0078185D01*
X0159079Y0075815D01*
X0159986Y0073626D01*
X0161661Y0071951D01*
X0163850Y0071044D01*
X0166219Y0071044D01*
X0163113Y0071349D02*
X0153571Y0071349D01*
X0152834Y0071044D02*
X0155023Y0071951D01*
X0156698Y0073626D01*
X0157605Y0075815D01*
X0157605Y0078185D01*
X0156698Y0080374D01*
X0155023Y0082049D01*
X0152834Y0082956D01*
X0150464Y0082956D01*
X0148275Y0082049D01*
X0146600Y0080374D01*
X0145693Y0078185D01*
X0145693Y0075815D01*
X0146600Y0073626D01*
X0148275Y0071951D01*
X0150464Y0071044D01*
X0152834Y0071044D01*
X0149727Y0071349D02*
X0120253Y0071349D01*
X0119042Y0072948D02*
X0147278Y0072948D01*
X0146219Y0074546D02*
X0119042Y0074546D01*
X0119042Y0076145D02*
X0145693Y0076145D01*
X0145693Y0077743D02*
X0132288Y0077743D01*
X0133886Y0079342D02*
X0146172Y0079342D01*
X0147166Y0080940D02*
X0134142Y0080940D01*
X0134142Y0082539D02*
X0149458Y0082539D01*
X0153840Y0082539D02*
X0162843Y0082539D01*
X0160552Y0080940D02*
X0156131Y0080940D01*
X0157125Y0079342D02*
X0159558Y0079342D01*
X0159079Y0077743D02*
X0157605Y0077743D01*
X0157605Y0076145D02*
X0159079Y0076145D01*
X0159604Y0074546D02*
X0157079Y0074546D01*
X0156020Y0072948D02*
X0160664Y0072948D01*
X0169406Y0072948D02*
X0189142Y0072948D01*
X0189142Y0074546D02*
X0170465Y0074546D01*
X0170991Y0076145D02*
X0189142Y0076145D01*
X0189142Y0077743D02*
X0170991Y0077743D01*
X0170511Y0079342D02*
X0189142Y0079342D01*
X0189142Y0080940D02*
X0169517Y0080940D01*
X0167226Y0082539D02*
X0189142Y0082539D01*
X0188002Y0084137D02*
X0134142Y0084137D01*
X0132808Y0085736D02*
X0187542Y0085736D01*
X0187542Y0087334D02*
X0132742Y0087334D01*
X0132742Y0088933D02*
X0187542Y0088933D01*
X0188671Y0090532D02*
X0132742Y0090532D01*
X0133679Y0092130D02*
X0175009Y0092130D01*
X0175939Y0091200D02*
X0180744Y0091200D01*
X0184142Y0094598D01*
X0184142Y0099402D01*
X0180744Y0102800D01*
X0175939Y0102800D01*
X0172542Y0099402D01*
X0172542Y0094598D01*
X0175939Y0091200D01*
X0173411Y0093729D02*
X0141293Y0093729D01*
X0142742Y0095327D02*
X0172542Y0095327D01*
X0172542Y0096926D02*
X0142742Y0096926D01*
X0142742Y0098524D02*
X0172542Y0098524D01*
X0173262Y0100123D02*
X0141442Y0100123D01*
X0138342Y0100123D02*
X0138342Y0100123D01*
X0138342Y0098524D02*
X0138342Y0098524D01*
X0138342Y0096926D02*
X0138342Y0096926D01*
X0138342Y0095327D02*
X0138342Y0095327D01*
X0138342Y0093729D02*
X0138342Y0093729D01*
X0135391Y0093729D02*
X0134142Y0093729D01*
X0134142Y0100123D02*
X0135242Y0100123D01*
X0133741Y0101721D02*
X0174860Y0101721D01*
X0181823Y0101721D02*
X0189142Y0101721D01*
X0189142Y0100123D02*
X0183422Y0100123D01*
X0184142Y0098524D02*
X0189142Y0098524D01*
X0189142Y0096926D02*
X0184142Y0096926D01*
X0184142Y0095327D02*
X0189142Y0095327D01*
X0189142Y0093729D02*
X0183273Y0093729D01*
X0181674Y0092130D02*
X0189142Y0092130D01*
X0197542Y0092130D02*
X0230269Y0092130D01*
X0230939Y0092800D02*
X0227542Y0089402D01*
X0227542Y0084598D01*
X0230939Y0081200D01*
X0235744Y0081200D01*
X0239142Y0084598D01*
X0239142Y0089402D01*
X0235744Y0092800D01*
X0230939Y0092800D01*
X0228671Y0090532D02*
X0198013Y0090532D01*
X0199142Y0088933D02*
X0227542Y0088933D01*
X0227542Y0087334D02*
X0199142Y0087334D01*
X0199142Y0085736D02*
X0227542Y0085736D01*
X0228002Y0084137D02*
X0198682Y0084137D01*
X0197542Y0082539D02*
X0229600Y0082539D01*
X0237083Y0082539D02*
X0255158Y0082539D01*
X0253560Y0080940D02*
X0197542Y0080940D01*
X0197542Y0079342D02*
X0251961Y0079342D01*
X0250363Y0077743D02*
X0197542Y0077743D01*
X0197542Y0076145D02*
X0248764Y0076145D01*
X0247166Y0074546D02*
X0197542Y0074546D01*
X0197542Y0072948D02*
X0245567Y0072948D01*
X0243969Y0071349D02*
X0235215Y0071349D01*
X0235164Y0071400D02*
X0233342Y0071400D01*
X0233342Y0067000D01*
X0237742Y0067000D01*
X0237742Y0068823D01*
X0235164Y0071400D01*
X0233342Y0071400D02*
X0231519Y0071400D01*
X0228942Y0068823D01*
X0228942Y0067000D01*
X0228942Y0065177D01*
X0231519Y0062600D01*
X0233342Y0062600D01*
X0235164Y0062600D01*
X0237742Y0065177D01*
X0237742Y0067000D01*
X0233342Y0067000D01*
X0233342Y0067000D01*
X0233342Y0067000D01*
X0233342Y0062600D01*
X0233342Y0067000D01*
X0233342Y0067000D01*
X0233342Y0071400D01*
X0233342Y0071349D02*
X0233342Y0071349D01*
X0233342Y0069751D02*
X0233342Y0069751D01*
X0233342Y0068152D02*
X0233342Y0068152D01*
X0233342Y0067000D02*
X0228942Y0067000D01*
X0233342Y0067000D01*
X0233342Y0067000D01*
X0233342Y0066554D02*
X0233342Y0066554D01*
X0233342Y0064955D02*
X0233342Y0064955D01*
X0233342Y0063357D02*
X0233342Y0063357D01*
X0234378Y0061758D02*
X0196303Y0061758D01*
X0197901Y0063357D02*
X0230762Y0063357D01*
X0229164Y0064955D02*
X0199142Y0064955D01*
X0199142Y0066554D02*
X0228942Y0066554D01*
X0228942Y0068152D02*
X0199142Y0068152D01*
X0198793Y0069751D02*
X0229870Y0069751D01*
X0231469Y0071349D02*
X0197542Y0071349D01*
X0190381Y0061758D02*
X0179145Y0061758D01*
X0180743Y0060160D02*
X0232779Y0060160D01*
X0231181Y0058561D02*
X0182342Y0058561D01*
X0183940Y0056963D02*
X0229582Y0056963D01*
X0227984Y0055364D02*
X0185539Y0055364D01*
X0187137Y0053766D02*
X0226385Y0053766D01*
X0224787Y0052167D02*
X0188736Y0052167D01*
X0190334Y0050569D02*
X0223188Y0050569D01*
X0219378Y0048970D02*
X0202306Y0048970D01*
X0199378Y0048970D02*
X0192306Y0048970D01*
X0195370Y0047372D02*
X0196314Y0047372D01*
X0205370Y0047372D02*
X0209252Y0047372D01*
X0210658Y0047372D02*
X0211026Y0047372D01*
X0212431Y0047372D02*
X0216314Y0047372D01*
X0211026Y0045773D02*
X0210658Y0045773D01*
X0210658Y0044175D02*
X0211026Y0044175D01*
X0211026Y0042576D02*
X0210658Y0042576D01*
X0210658Y0040978D02*
X0211026Y0040978D01*
X0211026Y0039379D02*
X0210658Y0039379D01*
X0210658Y0037781D02*
X0211026Y0037781D01*
X0214542Y0037781D02*
X0215162Y0037781D01*
X0216760Y0036182D02*
X0204923Y0036182D01*
X0206522Y0037781D02*
X0207142Y0037781D01*
X0196760Y0036182D02*
X0194923Y0036182D01*
X0188931Y0034584D02*
X0298851Y0034584D01*
X0299638Y0033797D02*
X0298013Y0035422D01*
X0297134Y0037544D01*
X0297134Y0039842D01*
X0298013Y0041964D01*
X0299638Y0043589D01*
X0301760Y0044468D01*
X0304057Y0044468D01*
X0306180Y0043589D01*
X0306846Y0042923D01*
X0307512Y0043589D01*
X0309634Y0044468D01*
X0311931Y0044468D01*
X0314054Y0043589D01*
X0314720Y0042923D01*
X0315386Y0043589D01*
X0317508Y0044468D01*
X0319805Y0044468D01*
X0321928Y0043589D01*
X0323552Y0041964D01*
X0323571Y0041920D01*
X0323681Y0042030D01*
X0324238Y0042435D01*
X0324851Y0042747D01*
X0325506Y0042960D01*
X0326186Y0043068D01*
X0326531Y0043068D01*
X0326531Y0038693D01*
X0326531Y0038693D01*
X0326531Y0034318D01*
X0326875Y0034318D01*
X0327555Y0034426D01*
X0328210Y0034639D01*
X0328824Y0034951D01*
X0329381Y0035356D01*
X0329491Y0035466D01*
X0329509Y0035422D01*
X0331134Y0033797D01*
X0333256Y0032918D01*
X0335553Y0032918D01*
X0337676Y0033797D01*
X0338342Y0034463D01*
X0339008Y0033797D01*
X0341130Y0032918D01*
X0343427Y0032918D01*
X0345550Y0033797D01*
X0346216Y0034463D01*
X0346882Y0033797D01*
X0349004Y0032918D01*
X0351302Y0032918D01*
X0353424Y0033797D01*
X0354090Y0034463D01*
X0354756Y0033797D01*
X0356878Y0032918D01*
X0359176Y0032918D01*
X0361298Y0033797D01*
X0361964Y0034463D01*
X0362630Y0033797D01*
X0364752Y0032918D01*
X0367050Y0032918D01*
X0369172Y0033797D01*
X0369838Y0034463D01*
X0370504Y0033797D01*
X0372626Y0032918D01*
X0374924Y0032918D01*
X0377046Y0033797D01*
X0378671Y0035422D01*
X0379550Y0037544D01*
X0379550Y0039842D01*
X0378671Y0041964D01*
X0377046Y0043589D01*
X0374924Y0044468D01*
X0372626Y0044468D01*
X0370504Y0043589D01*
X0369838Y0042923D01*
X0369172Y0043589D01*
X0367050Y0044468D01*
X0364752Y0044468D01*
X0362630Y0043589D01*
X0361964Y0042923D01*
X0361298Y0043589D01*
X0359176Y0044468D01*
X0356878Y0044468D01*
X0354756Y0043589D01*
X0354090Y0042923D01*
X0353424Y0043589D01*
X0351302Y0044468D01*
X0349004Y0044468D01*
X0346882Y0043589D01*
X0346216Y0042923D01*
X0345550Y0043589D01*
X0343427Y0044468D01*
X0341130Y0044468D01*
X0339008Y0043589D01*
X0338342Y0042923D01*
X0337676Y0043589D01*
X0335553Y0044468D01*
X0333256Y0044468D01*
X0331134Y0043589D01*
X0329509Y0041964D01*
X0329491Y0041920D01*
X0329381Y0042030D01*
X0328824Y0042435D01*
X0328210Y0042747D01*
X0327555Y0042960D01*
X0326875Y0043068D01*
X0326531Y0043068D01*
X0326531Y0038693D01*
X0326531Y0038693D01*
X0326531Y0034318D01*
X0326186Y0034318D01*
X0325506Y0034426D01*
X0324851Y0034639D01*
X0324238Y0034951D01*
X0323681Y0035356D01*
X0323571Y0035466D01*
X0323552Y0035422D01*
X0321928Y0033797D01*
X0319805Y0032918D01*
X0317508Y0032918D01*
X0315386Y0033797D01*
X0314720Y0034463D01*
X0314054Y0033797D01*
X0311931Y0032918D01*
X0309634Y0032918D01*
X0307512Y0033797D01*
X0306846Y0034463D01*
X0306180Y0033797D01*
X0304057Y0032918D01*
X0301760Y0032918D01*
X0299638Y0033797D01*
X0301598Y0032985D02*
X0189495Y0032985D01*
X0189495Y0031387D02*
X0383463Y0031387D01*
X0383463Y0032985D02*
X0375085Y0032985D01*
X0372464Y0032985D02*
X0367211Y0032985D01*
X0364590Y0032985D02*
X0359337Y0032985D01*
X0356716Y0032985D02*
X0351463Y0032985D01*
X0348842Y0032985D02*
X0343589Y0032985D01*
X0340968Y0032985D02*
X0335715Y0032985D01*
X0333094Y0032985D02*
X0319967Y0032985D01*
X0317346Y0032985D02*
X0312093Y0032985D01*
X0309472Y0032985D02*
X0304219Y0032985D01*
X0297698Y0036182D02*
X0244923Y0036182D01*
X0246522Y0037781D02*
X0297134Y0037781D01*
X0297134Y0039379D02*
X0247333Y0039379D01*
X0247842Y0040978D02*
X0297605Y0040978D01*
X0298625Y0042576D02*
X0247842Y0042576D01*
X0247518Y0044175D02*
X0301053Y0044175D01*
X0304765Y0044175D02*
X0308927Y0044175D01*
X0312639Y0044175D02*
X0316801Y0044175D01*
X0320513Y0044175D02*
X0332549Y0044175D01*
X0330121Y0042576D02*
X0328546Y0042576D01*
X0326531Y0042576D02*
X0326531Y0042576D01*
X0326531Y0040978D02*
X0326531Y0040978D01*
X0326531Y0039379D02*
X0326531Y0039379D01*
X0326531Y0037781D02*
X0326531Y0037781D01*
X0326531Y0036182D02*
X0326531Y0036182D01*
X0326531Y0034584D02*
X0326531Y0034584D01*
X0328041Y0034584D02*
X0330347Y0034584D01*
X0325021Y0034584D02*
X0322714Y0034584D01*
X0322940Y0042576D02*
X0324516Y0042576D01*
X0336261Y0044175D02*
X0340423Y0044175D01*
X0344135Y0044175D02*
X0348297Y0044175D01*
X0352009Y0044175D02*
X0356171Y0044175D01*
X0359883Y0044175D02*
X0364045Y0044175D01*
X0367757Y0044175D02*
X0371919Y0044175D01*
X0375631Y0044175D02*
X0383463Y0044175D01*
X0383463Y0045773D02*
X0246856Y0045773D01*
X0245370Y0047372D02*
X0383463Y0047372D01*
X0383463Y0048970D02*
X0244035Y0048970D01*
X0245633Y0050569D02*
X0383463Y0050569D01*
X0383463Y0052167D02*
X0247232Y0052167D01*
X0248830Y0053766D02*
X0383463Y0053766D01*
X0383463Y0055364D02*
X0250429Y0055364D01*
X0252027Y0056963D02*
X0349894Y0056963D01*
X0348295Y0058561D02*
X0346408Y0058561D01*
X0343342Y0058561D02*
X0343342Y0058561D01*
X0343342Y0057400D02*
X0343342Y0062000D01*
X0343342Y0062000D01*
X0343342Y0066600D01*
X0341436Y0066600D01*
X0338742Y0063905D01*
X0338742Y0062000D01*
X0343342Y0062000D01*
X0338742Y0062000D01*
X0338742Y0060095D01*
X0341436Y0057400D01*
X0343342Y0057400D01*
X0343342Y0060160D02*
X0343342Y0060160D01*
X0343342Y0061758D02*
X0343342Y0061758D01*
X0343342Y0062000D02*
X0343342Y0062000D01*
X0343342Y0063357D02*
X0343342Y0063357D01*
X0343342Y0064955D02*
X0343342Y0064955D01*
X0343342Y0066554D02*
X0343342Y0066554D01*
X0345293Y0066554D02*
X0347642Y0066554D01*
X0347642Y0068152D02*
X0263217Y0068152D01*
X0261618Y0066554D02*
X0341390Y0066554D01*
X0339792Y0064955D02*
X0260020Y0064955D01*
X0258421Y0063357D02*
X0338742Y0063357D01*
X0338742Y0061758D02*
X0256823Y0061758D01*
X0255224Y0060160D02*
X0338742Y0060160D01*
X0340275Y0058561D02*
X0253626Y0058561D01*
X0264815Y0069751D02*
X0347642Y0069751D01*
X0347642Y0071349D02*
X0266414Y0071349D01*
X0268012Y0072948D02*
X0347642Y0072948D01*
X0347642Y0074546D02*
X0269611Y0074546D01*
X0271209Y0076145D02*
X0347642Y0076145D01*
X0347642Y0077743D02*
X0345591Y0077743D01*
X0343342Y0077743D02*
X0343342Y0077743D01*
X0343342Y0077400D02*
X0343342Y0082000D01*
X0343342Y0082000D01*
X0343342Y0086600D01*
X0341436Y0086600D01*
X0338742Y0083905D01*
X0338742Y0082000D01*
X0343342Y0082000D01*
X0338742Y0082000D01*
X0338742Y0080095D01*
X0341436Y0077400D01*
X0343342Y0077400D01*
X0343342Y0079342D02*
X0343342Y0079342D01*
X0343342Y0080940D02*
X0343342Y0080940D01*
X0343342Y0082000D02*
X0343342Y0082000D01*
X0343342Y0082539D02*
X0343342Y0082539D01*
X0343342Y0084137D02*
X0343342Y0084137D01*
X0343342Y0085736D02*
X0343342Y0085736D01*
X0346111Y0085736D02*
X0347642Y0085736D01*
X0347642Y0087334D02*
X0282399Y0087334D01*
X0280800Y0085736D02*
X0340572Y0085736D01*
X0338974Y0084137D02*
X0279202Y0084137D01*
X0277603Y0082539D02*
X0338742Y0082539D01*
X0338742Y0080940D02*
X0276005Y0080940D01*
X0274406Y0079342D02*
X0339494Y0079342D01*
X0341093Y0077743D02*
X0272808Y0077743D01*
X0259954Y0087334D02*
X0239142Y0087334D01*
X0239142Y0085736D02*
X0258355Y0085736D01*
X0256757Y0084137D02*
X0238682Y0084137D01*
X0239142Y0088933D02*
X0261552Y0088933D01*
X0263151Y0090532D02*
X0238013Y0090532D01*
X0236414Y0092130D02*
X0263942Y0092130D01*
X0263942Y0093729D02*
X0197542Y0093729D01*
X0197542Y0095327D02*
X0263942Y0095327D01*
X0263942Y0096926D02*
X0197542Y0096926D01*
X0197542Y0098524D02*
X0263942Y0098524D01*
X0263942Y0100123D02*
X0197542Y0100123D01*
X0197542Y0101721D02*
X0263942Y0101721D01*
X0263942Y0103320D02*
X0197542Y0103320D01*
X0197542Y0104918D02*
X0263942Y0104918D01*
X0263942Y0106517D02*
X0235258Y0106517D01*
X0236809Y0108115D02*
X0263942Y0108115D01*
X0263942Y0109714D02*
X0237472Y0109714D01*
X0237842Y0111312D02*
X0263942Y0111312D01*
X0263942Y0112911D02*
X0237842Y0112911D01*
X0237379Y0114509D02*
X0263942Y0114509D01*
X0263942Y0116108D02*
X0236634Y0116108D01*
X0235035Y0117706D02*
X0263942Y0117706D01*
X0263942Y0119305D02*
X0197542Y0119305D01*
X0198185Y0120903D02*
X0263942Y0120903D01*
X0263942Y0122502D02*
X0199783Y0122502D01*
X0201382Y0124100D02*
X0263942Y0124100D01*
X0263942Y0125699D02*
X0202980Y0125699D01*
X0204579Y0127297D02*
X0263942Y0127297D01*
X0263942Y0128896D02*
X0206177Y0128896D01*
X0207776Y0130494D02*
X0263942Y0130494D01*
X0263942Y0132093D02*
X0209374Y0132093D01*
X0210973Y0133691D02*
X0263942Y0133691D01*
X0263942Y0135290D02*
X0212179Y0135290D01*
X0216857Y0136888D02*
X0219827Y0136888D01*
X0226857Y0136888D02*
X0229827Y0136888D01*
X0236857Y0136888D02*
X0239827Y0136888D01*
X0246857Y0136888D02*
X0249827Y0136888D01*
X0256857Y0136888D02*
X0259827Y0136888D01*
X0292742Y0135290D02*
X0318855Y0135290D01*
X0318542Y0136888D02*
X0316857Y0136888D01*
X0319862Y0133691D02*
X0292742Y0133691D01*
X0292742Y0132093D02*
X0321461Y0132093D01*
X0321224Y0130494D02*
X0323059Y0130494D01*
X0316090Y0130494D02*
X0313350Y0130494D01*
X0308216Y0130494D02*
X0292742Y0130494D01*
X0292742Y0128896D02*
X0300405Y0128896D01*
X0300616Y0129049D02*
X0300059Y0128644D01*
X0299572Y0128157D01*
X0299167Y0127600D01*
X0298854Y0126986D01*
X0298642Y0126332D01*
X0298534Y0125651D01*
X0298534Y0125307D01*
X0298534Y0124963D01*
X0298642Y0124283D01*
X0298854Y0123628D01*
X0299167Y0123014D01*
X0299572Y0122457D01*
X0300059Y0121970D01*
X0300616Y0121565D01*
X0301229Y0121253D01*
X0301884Y0121040D01*
X0302564Y0120932D01*
X0302909Y0120932D01*
X0302909Y0125307D01*
X0302909Y0125307D01*
X0302909Y0125307D01*
X0302909Y0129682D01*
X0302564Y0129682D01*
X0301884Y0129574D01*
X0301229Y0129361D01*
X0300616Y0129049D01*
X0302909Y0128896D02*
X0302909Y0128896D01*
X0302909Y0127297D02*
X0302909Y0127297D01*
X0302909Y0125699D02*
X0302909Y0125699D01*
X0302909Y0125307D02*
X0302909Y0125307D01*
X0298534Y0125307D01*
X0302909Y0125307D01*
X0302909Y0124100D02*
X0302909Y0124100D01*
X0302909Y0122502D02*
X0302909Y0122502D01*
X0299539Y0122502D02*
X0292742Y0122502D01*
X0292742Y0124100D02*
X0298701Y0124100D01*
X0298541Y0125699D02*
X0292742Y0125699D01*
X0292742Y0127297D02*
X0299013Y0127297D01*
X0305412Y0128896D02*
X0306205Y0128896D01*
X0307020Y0120903D02*
X0292742Y0120903D01*
X0292742Y0119305D02*
X0362586Y0119305D01*
X0362138Y0120903D02*
X0361790Y0120903D01*
X0360987Y0117706D02*
X0292742Y0117706D01*
X0292742Y0116108D02*
X0359388Y0116108D01*
X0357790Y0114509D02*
X0292742Y0114509D01*
X0292742Y0112911D02*
X0356191Y0112911D01*
X0354593Y0111312D02*
X0292742Y0111312D01*
X0292742Y0109714D02*
X0352994Y0109714D01*
X0351396Y0108115D02*
X0292742Y0108115D01*
X0292742Y0106517D02*
X0341353Y0106517D01*
X0341436Y0106600D02*
X0338742Y0103905D01*
X0338742Y0102000D01*
X0343342Y0102000D01*
X0343342Y0102000D01*
X0343342Y0097400D01*
X0341436Y0097400D01*
X0338742Y0100095D01*
X0338742Y0102000D01*
X0343342Y0102000D01*
X0343342Y0106600D01*
X0341436Y0106600D01*
X0343342Y0106517D02*
X0343342Y0106517D01*
X0343342Y0104918D02*
X0343342Y0104918D01*
X0343342Y0103320D02*
X0343342Y0103320D01*
X0343342Y0102000D02*
X0343342Y0102000D01*
X0343342Y0101721D02*
X0343342Y0101721D01*
X0343342Y0100123D02*
X0343342Y0100123D01*
X0343342Y0098524D02*
X0343342Y0098524D01*
X0346371Y0098524D02*
X0347642Y0098524D01*
X0347642Y0096926D02*
X0291990Y0096926D01*
X0292700Y0098524D02*
X0340312Y0098524D01*
X0338742Y0100123D02*
X0292742Y0100123D01*
X0292742Y0101721D02*
X0338742Y0101721D01*
X0338742Y0103320D02*
X0292742Y0103320D01*
X0292742Y0104918D02*
X0339755Y0104918D01*
X0345331Y0106517D02*
X0349373Y0106517D01*
X0347775Y0104918D02*
X0346929Y0104918D01*
X0347642Y0095327D02*
X0290391Y0095327D01*
X0288793Y0093729D02*
X0347642Y0093729D01*
X0347642Y0092130D02*
X0287194Y0092130D01*
X0285596Y0090532D02*
X0347642Y0090532D01*
X0347642Y0088933D02*
X0283997Y0088933D01*
X0314546Y0120903D02*
X0314894Y0120903D01*
X0322420Y0120903D02*
X0322768Y0120903D01*
X0330294Y0120903D02*
X0330642Y0120903D01*
X0338168Y0120903D02*
X0338516Y0120903D01*
X0346042Y0120903D02*
X0346390Y0120903D01*
X0353916Y0120903D02*
X0354264Y0120903D01*
X0368624Y0130494D02*
X0371208Y0130494D01*
X0370223Y0132093D02*
X0383463Y0132093D01*
X0383463Y0133691D02*
X0371821Y0133691D01*
X0373420Y0135290D02*
X0383463Y0135290D01*
X0383463Y0136888D02*
X0376857Y0136888D01*
X0378455Y0138487D02*
X0383463Y0138487D01*
X0383463Y0140085D02*
X0379151Y0140085D01*
X0379442Y0141684D02*
X0383463Y0141684D01*
X0383463Y0143282D02*
X0379413Y0143282D01*
X0378751Y0144881D02*
X0383463Y0144881D01*
X0383463Y0146479D02*
X0377489Y0146479D01*
X0374608Y0148078D02*
X0383463Y0148078D01*
X0383463Y0149676D02*
X0292742Y0149676D01*
X0292742Y0151275D02*
X0383463Y0151275D01*
X0383463Y0152873D02*
X0292742Y0152873D01*
X0292742Y0154472D02*
X0383463Y0154472D01*
X0383463Y0156070D02*
X0293635Y0156070D01*
X0295233Y0157669D02*
X0383463Y0157669D01*
X0383463Y0159268D02*
X0296832Y0159268D01*
X0298430Y0160866D02*
X0383463Y0160866D01*
X0383463Y0162465D02*
X0300029Y0162465D01*
X0301627Y0164063D02*
X0383463Y0164063D01*
X0383463Y0165662D02*
X0303226Y0165662D01*
X0304824Y0167260D02*
X0383463Y0167260D01*
X0383463Y0168859D02*
X0306423Y0168859D01*
X0308021Y0170457D02*
X0383463Y0170457D01*
X0383463Y0172056D02*
X0309620Y0172056D01*
X0311218Y0173654D02*
X0383463Y0173654D01*
X0383463Y0175253D02*
X0312817Y0175253D01*
X0314415Y0176851D02*
X0383463Y0176851D01*
X0383463Y0178450D02*
X0316014Y0178450D01*
X0317612Y0180048D02*
X0383463Y0180048D01*
X0383463Y0181647D02*
X0319211Y0181647D01*
X0320810Y0183245D02*
X0383463Y0183245D01*
X0383463Y0184844D02*
X0322408Y0184844D01*
X0324007Y0186442D02*
X0383463Y0186442D01*
X0383463Y0188041D02*
X0325605Y0188041D01*
X0327204Y0189639D02*
X0383463Y0189639D01*
X0383463Y0191238D02*
X0328802Y0191238D01*
X0330401Y0192836D02*
X0383463Y0192836D01*
X0383463Y0194435D02*
X0331999Y0194435D01*
X0334877Y0196033D02*
X0341807Y0196033D01*
X0344877Y0196033D02*
X0351807Y0196033D01*
X0354877Y0196033D02*
X0361807Y0196033D01*
X0364877Y0196033D02*
X0371807Y0196033D01*
X0374877Y0196033D02*
X0383463Y0196033D01*
X0383463Y0197632D02*
X0377600Y0197632D01*
X0378797Y0199230D02*
X0383463Y0199230D01*
X0383463Y0200829D02*
X0379442Y0200829D01*
X0379442Y0202427D02*
X0383463Y0202427D01*
X0383463Y0204026D02*
X0379105Y0204026D01*
X0378344Y0205624D02*
X0383463Y0205624D01*
X0383463Y0207223D02*
X0376673Y0207223D01*
X0370011Y0207223D02*
X0366673Y0207223D01*
X0360011Y0207223D02*
X0356673Y0207223D01*
X0350011Y0207223D02*
X0346673Y0207223D01*
X0340011Y0207223D02*
X0336673Y0207223D01*
X0330011Y0207223D02*
X0326673Y0207223D01*
X0320011Y0207223D02*
X0316673Y0207223D01*
X0310011Y0207223D02*
X0306673Y0207223D01*
X0300011Y0207223D02*
X0296673Y0207223D01*
X0290011Y0207223D02*
X0282542Y0207223D01*
X0282542Y0208821D02*
X0383463Y0208821D01*
X0383463Y0210420D02*
X0282542Y0210420D01*
X0282542Y0212018D02*
X0383463Y0212018D01*
X0383463Y0213617D02*
X0282542Y0213617D01*
X0282542Y0215215D02*
X0383463Y0215215D01*
X0383463Y0216814D02*
X0341358Y0216814D01*
X0340744Y0216200D02*
X0344142Y0219598D01*
X0344142Y0224402D01*
X0340744Y0227800D01*
X0335939Y0227800D01*
X0332542Y0224402D01*
X0332542Y0219598D01*
X0335939Y0216200D01*
X0340744Y0216200D01*
X0342957Y0218412D02*
X0383463Y0218412D01*
X0383463Y0220011D02*
X0344142Y0220011D01*
X0344142Y0221609D02*
X0383463Y0221609D01*
X0383463Y0223208D02*
X0344142Y0223208D01*
X0343738Y0224806D02*
X0383463Y0224806D01*
X0383463Y0226405D02*
X0361939Y0226405D01*
X0361034Y0225500D02*
X0364332Y0228798D01*
X0366229Y0226900D01*
X0368342Y0226900D01*
X0370454Y0226900D01*
X0373442Y0229888D01*
X0373442Y0232000D01*
X0373442Y0234112D01*
X0370454Y0237100D01*
X0368342Y0237100D01*
X0368342Y0232000D01*
X0373442Y0232000D01*
X0368342Y0232000D01*
X0368342Y0232000D01*
X0368342Y0232000D01*
X0368342Y0226900D01*
X0368342Y0232000D01*
X0368342Y0232000D01*
X0368342Y0237100D01*
X0366229Y0237100D01*
X0364332Y0235202D01*
X0361034Y0238500D01*
X0359801Y0238500D01*
X0359602Y0238979D01*
X0359494Y0239088D01*
X0359425Y0239226D01*
X0358906Y0239675D01*
X0358421Y0240161D01*
X0358279Y0240219D01*
X0358163Y0240320D01*
X0357511Y0240537D01*
X0356877Y0240800D01*
X0356723Y0240800D01*
X0356577Y0240849D01*
X0355893Y0240800D01*
X0312744Y0240800D01*
X0310744Y0242800D01*
X0305939Y0242800D01*
X0302542Y0239402D01*
X0302542Y0234598D01*
X0305939Y0231200D01*
X0310744Y0231200D01*
X0311944Y0232400D01*
X0351842Y0232400D01*
X0351842Y0229308D01*
X0355649Y0225500D01*
X0361034Y0225500D01*
X0363538Y0228003D02*
X0365126Y0228003D01*
X0368342Y0228003D02*
X0368342Y0228003D01*
X0368342Y0229602D02*
X0368342Y0229602D01*
X0368342Y0231201D02*
X0368342Y0231201D01*
X0368342Y0232799D02*
X0368342Y0232799D01*
X0368342Y0234398D02*
X0368342Y0234398D01*
X0368342Y0235996D02*
X0368342Y0235996D01*
X0371558Y0235996D02*
X0383463Y0235996D01*
X0383463Y0234398D02*
X0373157Y0234398D01*
X0373442Y0232799D02*
X0383463Y0232799D01*
X0383463Y0231201D02*
X0373442Y0231201D01*
X0373156Y0229602D02*
X0383463Y0229602D01*
X0383463Y0228003D02*
X0371558Y0228003D01*
X0365125Y0235996D02*
X0363538Y0235996D01*
X0361940Y0237595D02*
X0383463Y0237595D01*
X0383463Y0239193D02*
X0359441Y0239193D01*
X0356898Y0240792D02*
X0383463Y0240792D01*
X0383463Y0242390D02*
X0311154Y0242390D01*
X0305529Y0242390D02*
X0271154Y0242390D01*
X0272753Y0240792D02*
X0303931Y0240792D01*
X0302542Y0239193D02*
X0274142Y0239193D01*
X0274142Y0237595D02*
X0302542Y0237595D01*
X0302542Y0235996D02*
X0275285Y0235996D01*
X0276884Y0234398D02*
X0302742Y0234398D01*
X0304340Y0232799D02*
X0278482Y0232799D01*
X0280081Y0231201D02*
X0305939Y0231201D01*
X0310745Y0231201D02*
X0351842Y0231201D01*
X0351842Y0229602D02*
X0281679Y0229602D01*
X0282472Y0228003D02*
X0353146Y0228003D01*
X0354744Y0226405D02*
X0342139Y0226405D01*
X0334544Y0226405D02*
X0302139Y0226405D01*
X0300744Y0227800D02*
X0304142Y0224402D01*
X0304142Y0219598D01*
X0300744Y0216200D01*
X0295939Y0216200D01*
X0292542Y0219598D01*
X0292542Y0224402D01*
X0295939Y0227800D01*
X0300744Y0227800D01*
X0303738Y0224806D02*
X0332946Y0224806D01*
X0332542Y0223208D02*
X0304142Y0223208D01*
X0304142Y0221609D02*
X0332542Y0221609D01*
X0332542Y0220011D02*
X0304142Y0220011D01*
X0302957Y0218412D02*
X0333727Y0218412D01*
X0335325Y0216814D02*
X0301358Y0216814D01*
X0295325Y0216814D02*
X0282542Y0216814D01*
X0282542Y0218412D02*
X0293727Y0218412D01*
X0292542Y0220011D02*
X0282542Y0220011D01*
X0282542Y0221609D02*
X0292542Y0221609D01*
X0292542Y0223208D02*
X0282542Y0223208D01*
X0282542Y0224806D02*
X0292946Y0224806D01*
X0294544Y0226405D02*
X0282542Y0226405D01*
X0268270Y0243989D02*
X0383463Y0243989D01*
X0383463Y0245587D02*
X0361121Y0245587D01*
X0361034Y0245500D02*
X0364332Y0248798D01*
X0366229Y0246900D01*
X0368342Y0246900D01*
X0370454Y0246900D01*
X0373442Y0249888D01*
X0373442Y0252000D01*
X0373442Y0254112D01*
X0370454Y0257100D01*
X0368342Y0257100D01*
X0368342Y0252000D01*
X0373442Y0252000D01*
X0368342Y0252000D01*
X0368342Y0252000D01*
X0368342Y0252000D01*
X0368342Y0246900D01*
X0368342Y0252000D01*
X0368342Y0252000D01*
X0368342Y0257100D01*
X0366229Y0257100D01*
X0364332Y0255202D01*
X0361034Y0258500D01*
X0355649Y0258500D01*
X0351842Y0254692D01*
X0351842Y0249308D01*
X0355649Y0245500D01*
X0361034Y0245500D01*
X0362720Y0247186D02*
X0365944Y0247186D01*
X0364345Y0248784D02*
X0364318Y0248784D01*
X0368342Y0248784D02*
X0368342Y0248784D01*
X0368342Y0247186D02*
X0368342Y0247186D01*
X0370740Y0247186D02*
X0383463Y0247186D01*
X0383463Y0248784D02*
X0372338Y0248784D01*
X0373442Y0250383D02*
X0383463Y0250383D01*
X0383463Y0251981D02*
X0373442Y0251981D01*
X0373442Y0253580D02*
X0383463Y0253580D01*
X0383463Y0255178D02*
X0372376Y0255178D01*
X0370778Y0256777D02*
X0383463Y0256777D01*
X0383463Y0258375D02*
X0361159Y0258375D01*
X0362757Y0256777D02*
X0365906Y0256777D01*
X0368342Y0256777D02*
X0368342Y0256777D01*
X0368342Y0255178D02*
X0368342Y0255178D01*
X0368342Y0253580D02*
X0368342Y0253580D01*
X0368342Y0251981D02*
X0368342Y0251981D01*
X0368342Y0250383D02*
X0368342Y0250383D01*
X0355562Y0245587D02*
X0269869Y0245587D01*
X0271467Y0247186D02*
X0294954Y0247186D01*
X0295939Y0246200D02*
X0300744Y0246200D01*
X0304142Y0249598D01*
X0304142Y0254402D01*
X0300744Y0257800D01*
X0295939Y0257800D01*
X0292542Y0254402D01*
X0292542Y0249598D01*
X0295939Y0246200D01*
X0293355Y0248784D02*
X0273066Y0248784D01*
X0274664Y0250383D02*
X0292542Y0250383D01*
X0292542Y0251981D02*
X0276263Y0251981D01*
X0277861Y0253580D02*
X0292542Y0253580D01*
X0293318Y0255178D02*
X0279460Y0255178D01*
X0281058Y0256777D02*
X0294916Y0256777D01*
X0297072Y0263171D02*
X0342724Y0263171D01*
X0341126Y0261572D02*
X0285854Y0261572D01*
X0284255Y0259974D02*
X0339527Y0259974D01*
X0337929Y0258375D02*
X0282657Y0258375D01*
X0277171Y0264769D02*
X0246795Y0264769D01*
X0247742Y0263823D02*
X0245164Y0266400D01*
X0243342Y0266400D01*
X0243342Y0262000D01*
X0247742Y0262000D01*
X0247742Y0263823D01*
X0247742Y0263171D02*
X0275573Y0263171D01*
X0273974Y0261572D02*
X0247742Y0261572D01*
X0247742Y0262000D02*
X0243342Y0262000D01*
X0243342Y0262000D01*
X0243342Y0262000D01*
X0243342Y0257600D01*
X0245164Y0257600D01*
X0247742Y0260177D01*
X0247742Y0262000D01*
X0247538Y0259974D02*
X0272376Y0259974D01*
X0270777Y0258375D02*
X0245940Y0258375D01*
X0243342Y0258375D02*
X0243342Y0258375D01*
X0243342Y0257600D02*
X0243342Y0262000D01*
X0243342Y0262000D01*
X0243342Y0266400D01*
X0241519Y0266400D01*
X0238942Y0263823D01*
X0238942Y0262000D01*
X0238942Y0260177D01*
X0241519Y0257600D01*
X0243342Y0257600D01*
X0243342Y0259974D02*
X0243342Y0259974D01*
X0243342Y0261572D02*
X0243342Y0261572D01*
X0243342Y0262000D02*
X0238942Y0262000D01*
X0243342Y0262000D01*
X0243342Y0262000D01*
X0243342Y0263171D02*
X0243342Y0263171D01*
X0243342Y0264769D02*
X0243342Y0264769D01*
X0243342Y0266368D02*
X0243342Y0266368D01*
X0245197Y0266368D02*
X0278770Y0266368D01*
X0280368Y0267966D02*
X0192742Y0267966D01*
X0192742Y0267000D02*
X0188342Y0267000D01*
X0188342Y0267000D01*
X0192742Y0267000D01*
X0192742Y0266368D02*
X0199507Y0266368D01*
X0200939Y0267800D02*
X0197542Y0264402D01*
X0197542Y0259598D01*
X0200939Y0256200D01*
X0205744Y0256200D01*
X0209142Y0259598D01*
X0209142Y0264402D01*
X0205744Y0267800D01*
X0200939Y0267800D01*
X0197909Y0264769D02*
X0192334Y0264769D01*
X0190735Y0263171D02*
X0197542Y0263171D01*
X0197542Y0261572D02*
X0175975Y0261572D01*
X0174377Y0259974D02*
X0197542Y0259974D01*
X0198764Y0258375D02*
X0172778Y0258375D01*
X0171180Y0256777D02*
X0200363Y0256777D01*
X0206321Y0256777D02*
X0269179Y0256777D01*
X0267580Y0255178D02*
X0169581Y0255178D01*
X0167983Y0253580D02*
X0265982Y0253580D01*
X0264383Y0251981D02*
X0166542Y0251981D01*
X0166542Y0250383D02*
X0262785Y0250383D01*
X0261186Y0248784D02*
X0166542Y0248784D01*
X0166542Y0247186D02*
X0166552Y0247186D01*
X0175131Y0247186D02*
X0179703Y0247186D01*
X0180658Y0247186D02*
X0181026Y0247186D01*
X0181981Y0247186D02*
X0186552Y0247186D01*
X0185076Y0245587D02*
X0184750Y0245587D01*
X0181026Y0245587D02*
X0180658Y0245587D01*
X0180658Y0243989D02*
X0181026Y0243989D01*
X0181026Y0242390D02*
X0180658Y0242390D01*
X0180658Y0241816D02*
X0181026Y0241816D01*
X0181026Y0236700D01*
X0181259Y0236700D01*
X0182083Y0236830D01*
X0182876Y0237088D01*
X0183620Y0237467D01*
X0184295Y0237957D01*
X0184884Y0238547D01*
X0184971Y0238666D01*
X0185162Y0238205D01*
X0186642Y0236725D01*
X0186642Y0223665D01*
X0187281Y0222121D01*
X0201544Y0207858D01*
X0199886Y0207171D01*
X0198342Y0205627D01*
X0196797Y0207171D01*
X0194555Y0208100D01*
X0192128Y0208100D01*
X0189886Y0207171D01*
X0188342Y0205627D01*
X0186797Y0207171D01*
X0184555Y0208100D01*
X0182128Y0208100D01*
X0179886Y0207171D01*
X0178342Y0205627D01*
X0176797Y0207171D01*
X0174555Y0208100D01*
X0172128Y0208100D01*
X0169886Y0207171D01*
X0168342Y0205627D01*
X0166797Y0207171D01*
X0164555Y0208100D01*
X0162128Y0208100D01*
X0159886Y0207171D01*
X0158170Y0205455D01*
X0157581Y0204032D01*
X0157362Y0204463D01*
X0156927Y0205062D01*
X0156404Y0205585D01*
X0155805Y0206020D01*
X0155146Y0206356D01*
X0154442Y0206584D01*
X0153712Y0206700D01*
X0153492Y0206700D01*
X0153492Y0202150D01*
X0153192Y0202150D01*
X0153192Y0206700D01*
X0152972Y0206700D01*
X0152542Y0206632D01*
X0152542Y0214528D01*
X0151902Y0216072D01*
X0150721Y0217253D01*
X0135991Y0231984D01*
X0135991Y0233185D01*
X0135084Y0235374D01*
X0134158Y0236300D01*
X0157095Y0236300D01*
X0159509Y0235300D01*
X0162175Y0235300D01*
X0164637Y0236320D01*
X0165842Y0237525D01*
X0167047Y0236320D01*
X0169509Y0235300D01*
X0172175Y0235300D01*
X0174637Y0236320D01*
X0176522Y0238205D01*
X0176713Y0238666D01*
X0176799Y0238547D01*
X0177389Y0237957D01*
X0178064Y0237467D01*
X0178807Y0237088D01*
X0179601Y0236830D01*
X0180425Y0236700D01*
X0180658Y0236700D01*
X0180658Y0241816D01*
X0180658Y0240792D02*
X0181026Y0240792D01*
X0181026Y0239193D02*
X0180658Y0239193D01*
X0180658Y0237595D02*
X0181026Y0237595D01*
X0183795Y0237595D02*
X0185772Y0237595D01*
X0186642Y0235996D02*
X0173855Y0235996D01*
X0175912Y0237595D02*
X0177888Y0237595D01*
X0186642Y0234398D02*
X0135488Y0234398D01*
X0135991Y0232799D02*
X0186642Y0232799D01*
X0186642Y0231201D02*
X0136774Y0231201D01*
X0138372Y0229602D02*
X0186642Y0229602D01*
X0186642Y0228003D02*
X0139971Y0228003D01*
X0141569Y0226405D02*
X0186642Y0226405D01*
X0186642Y0224806D02*
X0143168Y0224806D01*
X0144766Y0223208D02*
X0186831Y0223208D01*
X0187793Y0221609D02*
X0146365Y0221609D01*
X0147963Y0220011D02*
X0189391Y0220011D01*
X0190990Y0218412D02*
X0149562Y0218412D01*
X0151160Y0216814D02*
X0192588Y0216814D01*
X0194187Y0215215D02*
X0152257Y0215215D01*
X0152542Y0213617D02*
X0195785Y0213617D01*
X0197384Y0212018D02*
X0152542Y0212018D01*
X0152542Y0210420D02*
X0198982Y0210420D01*
X0200581Y0208821D02*
X0152542Y0208821D01*
X0152542Y0207223D02*
X0160011Y0207223D01*
X0158339Y0205624D02*
X0156349Y0205624D01*
X0153492Y0205624D02*
X0153192Y0205624D01*
X0153192Y0204026D02*
X0153492Y0204026D01*
X0153492Y0202427D02*
X0153192Y0202427D01*
X0153192Y0201850D02*
X0153492Y0201850D01*
X0153492Y0197300D01*
X0153712Y0197300D01*
X0154442Y0197416D01*
X0155146Y0197644D01*
X0155805Y0197980D01*
X0156404Y0198415D01*
X0156927Y0198938D01*
X0157362Y0199537D01*
X0157581Y0199967D01*
X0158170Y0198545D01*
X0159886Y0196829D01*
X0162128Y0195900D01*
X0164555Y0195900D01*
X0166797Y0196829D01*
X0168342Y0198373D01*
X0169886Y0196829D01*
X0172128Y0195900D01*
X0174555Y0195900D01*
X0176797Y0196829D01*
X0178342Y0198373D01*
X0179886Y0196829D01*
X0182128Y0195900D01*
X0184555Y0195900D01*
X0186797Y0196829D01*
X0188342Y0198373D01*
X0189886Y0196829D01*
X0192128Y0195900D01*
X0194555Y0195900D01*
X0196797Y0196829D01*
X0198342Y0198373D01*
X0198559Y0198156D01*
X0191602Y0191200D01*
X0172506Y0191200D01*
X0170963Y0190561D01*
X0169781Y0189379D01*
X0152542Y0172140D01*
X0152542Y0197368D01*
X0152972Y0197300D01*
X0153192Y0197300D01*
X0153192Y0201850D01*
X0153192Y0200829D02*
X0153492Y0200829D01*
X0153492Y0199230D02*
X0153192Y0199230D01*
X0153192Y0197632D02*
X0153492Y0197632D01*
X0155107Y0197632D02*
X0159083Y0197632D01*
X0157886Y0199230D02*
X0157139Y0199230D01*
X0152542Y0196033D02*
X0161807Y0196033D01*
X0164877Y0196033D02*
X0171807Y0196033D01*
X0174877Y0196033D02*
X0181807Y0196033D01*
X0184877Y0196033D02*
X0191807Y0196033D01*
X0194877Y0196033D02*
X0196435Y0196033D01*
X0197600Y0197632D02*
X0198034Y0197632D01*
X0194837Y0194435D02*
X0152542Y0194435D01*
X0152542Y0192836D02*
X0193238Y0192836D01*
X0191640Y0191238D02*
X0152542Y0191238D01*
X0152542Y0189639D02*
X0170041Y0189639D01*
X0168443Y0188041D02*
X0152542Y0188041D01*
X0152542Y0186442D02*
X0166844Y0186442D01*
X0165246Y0184844D02*
X0152542Y0184844D01*
X0152542Y0183245D02*
X0163647Y0183245D01*
X0162049Y0181647D02*
X0152542Y0181647D01*
X0152542Y0180048D02*
X0160450Y0180048D01*
X0158852Y0178450D02*
X0152542Y0178450D01*
X0152542Y0176851D02*
X0157253Y0176851D01*
X0155655Y0175253D02*
X0152542Y0175253D01*
X0152542Y0173654D02*
X0154056Y0173654D01*
X0159542Y0167260D02*
X0202662Y0167260D01*
X0201064Y0165662D02*
X0190903Y0165662D01*
X0190164Y0166400D02*
X0188342Y0166400D01*
X0188342Y0162000D01*
X0192742Y0162000D01*
X0192742Y0163823D01*
X0190164Y0166400D01*
X0188342Y0166400D02*
X0188342Y0162000D01*
X0188342Y0162000D01*
X0192742Y0162000D01*
X0192742Y0160177D01*
X0190164Y0157600D01*
X0188342Y0157600D01*
X0188342Y0162000D01*
X0188342Y0162000D01*
X0188342Y0162000D01*
X0188342Y0157600D01*
X0186519Y0157600D01*
X0183942Y0160177D01*
X0183942Y0162000D01*
X0188342Y0162000D01*
X0188342Y0162000D01*
X0183942Y0162000D01*
X0183942Y0163823D01*
X0186519Y0166400D01*
X0188342Y0166400D01*
X0188342Y0165662D02*
X0188342Y0165662D01*
X0188342Y0164063D02*
X0188342Y0164063D01*
X0188342Y0162465D02*
X0188342Y0162465D01*
X0188342Y0160866D02*
X0188342Y0160866D01*
X0188342Y0159268D02*
X0188342Y0159268D01*
X0188342Y0157669D02*
X0188342Y0157669D01*
X0190233Y0157669D02*
X0194142Y0157669D01*
X0194142Y0156070D02*
X0127474Y0156070D01*
X0129072Y0154472D02*
X0194142Y0154472D01*
X0194142Y0152873D02*
X0129142Y0152873D01*
X0129142Y0151275D02*
X0194142Y0151275D01*
X0194142Y0149676D02*
X0129142Y0149676D01*
X0127622Y0148078D02*
X0152075Y0148078D01*
X0154608Y0148078D02*
X0162075Y0148078D01*
X0164608Y0148078D02*
X0172075Y0148078D01*
X0174608Y0148078D02*
X0182075Y0148078D01*
X0184608Y0148078D02*
X0192075Y0148078D01*
X0189195Y0146479D02*
X0187489Y0146479D01*
X0179195Y0146479D02*
X0177489Y0146479D01*
X0169195Y0146479D02*
X0167489Y0146479D01*
X0159195Y0146479D02*
X0157489Y0146479D01*
X0149195Y0146479D02*
X0144765Y0146479D01*
X0143492Y0146479D02*
X0143192Y0146479D01*
X0141919Y0146479D02*
X0126024Y0146479D01*
X0120660Y0146479D02*
X0119042Y0146479D01*
X0119042Y0144881D02*
X0139625Y0144881D01*
X0138817Y0143282D02*
X0119042Y0143282D01*
X0119042Y0141684D02*
X0138642Y0141684D01*
X0138642Y0141630D02*
X0138758Y0140899D01*
X0138986Y0140196D01*
X0139322Y0139537D01*
X0139757Y0138938D01*
X0140280Y0138415D01*
X0140878Y0137980D01*
X0141538Y0137644D01*
X0142241Y0137416D01*
X0142972Y0137300D01*
X0143192Y0137300D01*
X0143192Y0141850D01*
X0138642Y0141850D01*
X0138642Y0141630D01*
X0139042Y0140085D02*
X0119042Y0140085D01*
X0119042Y0138487D02*
X0140208Y0138487D01*
X0143192Y0138487D02*
X0143492Y0138487D01*
X0143492Y0140085D02*
X0143192Y0140085D01*
X0143192Y0141684D02*
X0143492Y0141684D01*
X0143492Y0143282D02*
X0143192Y0143282D01*
X0143192Y0144881D02*
X0143492Y0144881D01*
X0147058Y0144881D02*
X0147933Y0144881D01*
X0148228Y0138487D02*
X0146475Y0138487D01*
X0149827Y0136888D02*
X0119042Y0136888D01*
X0119042Y0135290D02*
X0190692Y0135290D01*
X0189827Y0136888D02*
X0186857Y0136888D01*
X0189093Y0133691D02*
X0119042Y0133691D01*
X0119042Y0132093D02*
X0187495Y0132093D01*
X0185896Y0130494D02*
X0119042Y0130494D01*
X0119042Y0128896D02*
X0184298Y0128896D01*
X0182699Y0127297D02*
X0181247Y0127297D01*
X0175437Y0127297D02*
X0119042Y0127297D01*
X0119042Y0125699D02*
X0135818Y0125699D01*
X0136519Y0126400D02*
X0133942Y0123823D01*
X0133942Y0122000D01*
X0133942Y0120177D01*
X0136519Y0117600D01*
X0138342Y0117600D01*
X0140164Y0117600D01*
X0142742Y0120177D01*
X0142742Y0122000D01*
X0142742Y0123823D01*
X0140164Y0126400D01*
X0138342Y0126400D01*
X0138342Y0122000D01*
X0142742Y0122000D01*
X0138342Y0122000D01*
X0138342Y0122000D01*
X0138342Y0122000D01*
X0138342Y0117600D01*
X0138342Y0122000D01*
X0138342Y0122000D01*
X0138342Y0126400D01*
X0136519Y0126400D01*
X0138342Y0125699D02*
X0138342Y0125699D01*
X0138342Y0124100D02*
X0138342Y0124100D01*
X0138342Y0122502D02*
X0138342Y0122502D01*
X0138342Y0122000D02*
X0138342Y0122000D01*
X0133942Y0122000D01*
X0138342Y0122000D01*
X0138342Y0120903D02*
X0138342Y0120903D01*
X0138342Y0119305D02*
X0138342Y0119305D01*
X0138342Y0117706D02*
X0138342Y0117706D01*
X0140271Y0117706D02*
X0174433Y0117706D01*
X0172835Y0119305D02*
X0141869Y0119305D01*
X0142742Y0120903D02*
X0172542Y0120903D01*
X0172542Y0122502D02*
X0142742Y0122502D01*
X0142464Y0124100D02*
X0172542Y0124100D01*
X0173838Y0125699D02*
X0140866Y0125699D01*
X0134220Y0124100D02*
X0119042Y0124100D01*
X0119042Y0122502D02*
X0133942Y0122502D01*
X0133942Y0120903D02*
X0119042Y0120903D01*
X0119042Y0119305D02*
X0134815Y0119305D01*
X0136413Y0117706D02*
X0119042Y0117706D01*
X0119042Y0116108D02*
X0121227Y0116108D01*
X0123342Y0116108D02*
X0123342Y0116108D01*
X0123342Y0114509D02*
X0123342Y0114509D01*
X0123342Y0112911D02*
X0123342Y0112911D01*
X0123342Y0111312D02*
X0123342Y0111312D01*
X0123342Y0109714D02*
X0123342Y0109714D01*
X0123342Y0108115D02*
X0123342Y0108115D01*
X0125679Y0108115D02*
X0189142Y0108115D01*
X0189142Y0106517D02*
X0119042Y0106517D01*
X0119042Y0108115D02*
X0121004Y0108115D01*
X0119406Y0109714D02*
X0119042Y0109714D01*
X0119042Y0114509D02*
X0119628Y0114509D01*
X0125457Y0116108D02*
X0189142Y0116108D01*
X0189142Y0117706D02*
X0182250Y0117706D01*
X0186586Y0119305D02*
X0189142Y0119305D01*
X0189142Y0120903D02*
X0188185Y0120903D01*
X0189142Y0114509D02*
X0127055Y0114509D01*
X0127742Y0112911D02*
X0189142Y0112911D01*
X0189142Y0111312D02*
X0127742Y0111312D01*
X0127278Y0109714D02*
X0189142Y0109714D01*
X0189142Y0104918D02*
X0130659Y0104918D01*
X0132825Y0103320D02*
X0189142Y0103320D01*
X0205258Y0106517D02*
X0206426Y0106517D01*
X0215258Y0106517D02*
X0216426Y0106517D01*
X0225258Y0106517D02*
X0226426Y0106517D01*
X0226649Y0117706D02*
X0225035Y0117706D01*
X0216649Y0117706D02*
X0215035Y0117706D01*
X0206649Y0117706D02*
X0205035Y0117706D01*
X0179827Y0136888D02*
X0176857Y0136888D01*
X0169827Y0136888D02*
X0166857Y0136888D01*
X0159827Y0136888D02*
X0156857Y0136888D01*
X0152213Y0157669D02*
X0186450Y0157669D01*
X0184852Y0159268D02*
X0153812Y0159268D01*
X0154142Y0160866D02*
X0183942Y0160866D01*
X0183942Y0162465D02*
X0154746Y0162465D01*
X0156345Y0164063D02*
X0184182Y0164063D01*
X0185781Y0165662D02*
X0157943Y0165662D01*
X0161140Y0168859D02*
X0204261Y0168859D01*
X0205859Y0170457D02*
X0162739Y0170457D01*
X0164337Y0172056D02*
X0207458Y0172056D01*
X0209056Y0173654D02*
X0165936Y0173654D01*
X0167534Y0175253D02*
X0210655Y0175253D01*
X0212253Y0176851D02*
X0169133Y0176851D01*
X0170731Y0178450D02*
X0213852Y0178450D01*
X0215450Y0180048D02*
X0172330Y0180048D01*
X0173928Y0181647D02*
X0217049Y0181647D01*
X0218647Y0183245D02*
X0195252Y0183245D01*
X0197125Y0184844D02*
X0220246Y0184844D01*
X0221844Y0186442D02*
X0198724Y0186442D01*
X0200322Y0188041D02*
X0223443Y0188041D01*
X0225041Y0189639D02*
X0201921Y0189639D01*
X0203519Y0191238D02*
X0226640Y0191238D01*
X0228238Y0192836D02*
X0205118Y0192836D01*
X0206716Y0194435D02*
X0229837Y0194435D01*
X0231435Y0196033D02*
X0224877Y0196033D01*
X0221807Y0196033D02*
X0214877Y0196033D01*
X0211807Y0196033D02*
X0207487Y0196033D01*
X0207600Y0197632D02*
X0209083Y0197632D01*
X0217600Y0197632D02*
X0219083Y0197632D01*
X0227600Y0197632D02*
X0229083Y0197632D01*
X0230011Y0207223D02*
X0226673Y0207223D01*
X0222460Y0208821D02*
X0254142Y0208821D01*
X0254142Y0210420D02*
X0220862Y0210420D01*
X0219263Y0212018D02*
X0254142Y0212018D01*
X0254142Y0213617D02*
X0217665Y0213617D01*
X0216066Y0215215D02*
X0254142Y0215215D01*
X0254142Y0216814D02*
X0215042Y0216814D01*
X0215042Y0218412D02*
X0254142Y0218412D01*
X0254142Y0220011D02*
X0215042Y0220011D01*
X0215042Y0221609D02*
X0254142Y0221609D01*
X0254142Y0223208D02*
X0215042Y0223208D01*
X0215042Y0224806D02*
X0254142Y0224806D01*
X0254142Y0226405D02*
X0215042Y0226405D01*
X0215042Y0228003D02*
X0254142Y0228003D01*
X0254142Y0229602D02*
X0215042Y0229602D01*
X0215042Y0231201D02*
X0254142Y0231201D01*
X0254142Y0232799D02*
X0215042Y0232799D01*
X0215042Y0234398D02*
X0254142Y0234398D01*
X0254142Y0235996D02*
X0233855Y0235996D01*
X0235912Y0237595D02*
X0254142Y0237595D01*
X0254142Y0239193D02*
X0236931Y0239193D01*
X0237542Y0240792D02*
X0254142Y0240792D01*
X0254792Y0242390D02*
X0237542Y0242390D01*
X0237270Y0243989D02*
X0256391Y0243989D01*
X0257989Y0245587D02*
X0236608Y0245587D01*
X0235131Y0247186D02*
X0259588Y0247186D01*
X0240744Y0258375D02*
X0207919Y0258375D01*
X0209142Y0259974D02*
X0239146Y0259974D01*
X0238942Y0261572D02*
X0209142Y0261572D01*
X0209142Y0263171D02*
X0238942Y0263171D01*
X0239889Y0264769D02*
X0208775Y0264769D01*
X0207176Y0266368D02*
X0241487Y0266368D01*
X0240939Y0271200D02*
X0245744Y0271200D01*
X0249142Y0274598D01*
X0249142Y0279402D01*
X0245744Y0282800D01*
X0240939Y0282800D01*
X0237542Y0279402D01*
X0237542Y0274598D01*
X0240939Y0271200D01*
X0239378Y0272762D02*
X0207306Y0272762D01*
X0208905Y0274360D02*
X0237779Y0274360D01*
X0237542Y0275959D02*
X0209142Y0275959D01*
X0209142Y0277557D02*
X0237542Y0277557D01*
X0237542Y0279156D02*
X0209142Y0279156D01*
X0207790Y0280754D02*
X0238894Y0280754D01*
X0240492Y0282353D02*
X0206191Y0282353D01*
X0192000Y0269565D02*
X0281967Y0269565D01*
X0284418Y0271163D02*
X0190401Y0271163D01*
X0186283Y0271163D02*
X0185566Y0271163D01*
X0184684Y0269565D02*
X0183968Y0269565D01*
X0183942Y0267966D02*
X0182369Y0267966D01*
X0183942Y0267000D02*
X0188342Y0267000D01*
X0188342Y0262600D01*
X0188342Y0267000D01*
X0188342Y0267000D01*
X0183942Y0267000D01*
X0183942Y0266368D02*
X0180771Y0266368D01*
X0179172Y0264769D02*
X0184350Y0264769D01*
X0185949Y0263171D02*
X0177574Y0263171D01*
X0188342Y0263171D02*
X0188342Y0263171D01*
X0188342Y0264769D02*
X0188342Y0264769D01*
X0188342Y0266368D02*
X0188342Y0266368D01*
X0188342Y0267000D02*
X0188342Y0267000D01*
X0175838Y0277557D02*
X0101960Y0277557D01*
X0100362Y0275959D02*
X0174240Y0275959D01*
X0172641Y0274360D02*
X0098763Y0274360D01*
X0097165Y0272762D02*
X0114996Y0272762D01*
X0112389Y0271163D02*
X0085566Y0271163D01*
X0083968Y0269565D02*
X0111265Y0269565D01*
X0110693Y0267966D02*
X0082369Y0267966D01*
X0080771Y0266368D02*
X0110693Y0266368D01*
X0110949Y0264769D02*
X0090804Y0264769D01*
X0088642Y0264769D02*
X0088042Y0264769D01*
X0088042Y0263171D02*
X0088642Y0263171D01*
X0088642Y0261572D02*
X0088042Y0261572D01*
X0088042Y0259974D02*
X0088642Y0259974D01*
X0088642Y0258375D02*
X0088042Y0258375D01*
X0088642Y0256777D02*
X0099916Y0256777D01*
X0098318Y0255178D02*
X0093442Y0255178D01*
X0093442Y0253580D02*
X0097542Y0253580D01*
X0097542Y0251981D02*
X0093146Y0251981D01*
X0093442Y0258375D02*
X0110949Y0258375D01*
X0110949Y0256777D02*
X0106768Y0256777D01*
X0108366Y0255178D02*
X0110949Y0255178D01*
X0110949Y0253580D02*
X0109142Y0253580D01*
X0109142Y0251981D02*
X0110949Y0251981D01*
X0110949Y0250383D02*
X0109142Y0250383D01*
X0108328Y0248784D02*
X0110949Y0248784D01*
X0110949Y0247186D02*
X0106730Y0247186D01*
X0110949Y0245587D02*
X0102342Y0245587D01*
X0102342Y0243989D02*
X0110949Y0243989D01*
X0110949Y0242390D02*
X0102342Y0242390D01*
X0102342Y0240792D02*
X0110949Y0240792D01*
X0110949Y0239193D02*
X0102342Y0239193D01*
X0102342Y0237595D02*
X0110949Y0237595D01*
X0110949Y0235996D02*
X0102342Y0235996D01*
X0102342Y0234398D02*
X0110949Y0234398D01*
X0109387Y0232799D02*
X0102342Y0232799D01*
X0102342Y0231201D02*
X0108211Y0231201D01*
X0107642Y0229602D02*
X0102342Y0229602D01*
X0102342Y0228003D02*
X0107642Y0228003D01*
X0107642Y0226405D02*
X0102342Y0226405D01*
X0102342Y0224806D02*
X0107642Y0224806D01*
X0107642Y0223208D02*
X0102342Y0223208D01*
X0102342Y0221609D02*
X0107642Y0221609D01*
X0107642Y0220011D02*
X0102342Y0220011D01*
X0102342Y0218412D02*
X0107642Y0218412D01*
X0107642Y0216814D02*
X0102342Y0216814D01*
X0102342Y0215215D02*
X0107642Y0215215D01*
X0107642Y0213617D02*
X0102342Y0213617D01*
X0102342Y0212018D02*
X0107642Y0212018D01*
X0107642Y0210420D02*
X0102342Y0210420D01*
X0102342Y0208821D02*
X0107642Y0208821D01*
X0107642Y0207223D02*
X0102342Y0207223D01*
X0102342Y0205624D02*
X0107642Y0205624D01*
X0107642Y0204026D02*
X0102342Y0204026D01*
X0102342Y0202427D02*
X0107642Y0202427D01*
X0107642Y0200829D02*
X0102342Y0200829D01*
X0102342Y0199230D02*
X0107642Y0199230D01*
X0107642Y0197632D02*
X0102342Y0197632D01*
X0102342Y0196033D02*
X0107642Y0196033D01*
X0107642Y0194435D02*
X0102342Y0194435D01*
X0102342Y0192836D02*
X0107642Y0192836D01*
X0107642Y0191238D02*
X0102342Y0191238D01*
X0102342Y0189639D02*
X0107642Y0189639D01*
X0107642Y0188041D02*
X0102342Y0188041D01*
X0102342Y0186442D02*
X0107642Y0186442D01*
X0107642Y0184844D02*
X0102342Y0184844D01*
X0102342Y0183245D02*
X0107642Y0183245D01*
X0107642Y0181647D02*
X0102342Y0181647D01*
X0101863Y0180048D02*
X0107642Y0180048D01*
X0107642Y0178450D02*
X0100223Y0178450D01*
X0107642Y0176851D02*
X0043142Y0176851D01*
X0043142Y0175253D02*
X0107642Y0175253D01*
X0107642Y0173654D02*
X0043142Y0173654D01*
X0043142Y0172056D02*
X0075942Y0172056D01*
X0076854Y0172300D02*
X0073980Y0171530D01*
X0071403Y0170042D01*
X0069300Y0167938D01*
X0067812Y0165362D01*
X0067042Y0162488D01*
X0067042Y0159512D01*
X0067812Y0156638D01*
X0069300Y0154062D01*
X0071403Y0151958D01*
X0073980Y0150470D01*
X0076854Y0149700D01*
X0079829Y0149700D01*
X0082703Y0150470D01*
X0085280Y0151958D01*
X0087384Y0154062D01*
X0088872Y0156638D01*
X0089642Y0159512D01*
X0089642Y0162488D01*
X0088872Y0165362D01*
X0087384Y0167938D01*
X0085280Y0170042D01*
X0082703Y0171530D01*
X0079829Y0172300D01*
X0076854Y0172300D01*
X0080742Y0172056D02*
X0107642Y0172056D01*
X0107642Y0170457D02*
X0084562Y0170457D01*
X0086464Y0168859D02*
X0107642Y0168859D01*
X0107642Y0167260D02*
X0087776Y0167260D01*
X0088699Y0165662D02*
X0107642Y0165662D01*
X0107642Y0164063D02*
X0089220Y0164063D01*
X0089642Y0162465D02*
X0107642Y0162465D01*
X0107642Y0160866D02*
X0089642Y0160866D01*
X0089576Y0159268D02*
X0107642Y0159268D01*
X0107642Y0157669D02*
X0089148Y0157669D01*
X0088544Y0156070D02*
X0107642Y0156070D01*
X0107642Y0154472D02*
X0087621Y0154472D01*
X0086196Y0152873D02*
X0107642Y0152873D01*
X0107642Y0151275D02*
X0084098Y0151275D01*
X0072586Y0151275D02*
X0043142Y0151275D01*
X0043142Y0152873D02*
X0070488Y0152873D01*
X0069063Y0154472D02*
X0043142Y0154472D01*
X0043142Y0156070D02*
X0068140Y0156070D01*
X0067536Y0157669D02*
X0043142Y0157669D01*
X0043142Y0159268D02*
X0067107Y0159268D01*
X0067042Y0160866D02*
X0043142Y0160866D01*
X0043142Y0162465D02*
X0067042Y0162465D01*
X0067464Y0164063D02*
X0043142Y0164063D01*
X0043142Y0165662D02*
X0067985Y0165662D01*
X0068908Y0167260D02*
X0043142Y0167260D01*
X0043142Y0168859D02*
X0070220Y0168859D01*
X0072122Y0170457D02*
X0043142Y0170457D01*
X0043142Y0178450D02*
X0056461Y0178450D01*
X0054821Y0180048D02*
X0043142Y0180048D01*
X0043142Y0181647D02*
X0054342Y0181647D01*
X0054342Y0183245D02*
X0043142Y0183245D01*
X0043142Y0184844D02*
X0054342Y0184844D01*
X0054342Y0186442D02*
X0043142Y0186442D01*
X0043142Y0188041D02*
X0054342Y0188041D01*
X0054342Y0189639D02*
X0043142Y0189639D01*
X0043142Y0191238D02*
X0054342Y0191238D01*
X0054342Y0192836D02*
X0043142Y0192836D01*
X0043142Y0194435D02*
X0054342Y0194435D01*
X0054342Y0196033D02*
X0043142Y0196033D01*
X0043142Y0197632D02*
X0054342Y0197632D01*
X0054342Y0199230D02*
X0043142Y0199230D01*
X0043142Y0200829D02*
X0054342Y0200829D01*
X0054342Y0202427D02*
X0043142Y0202427D01*
X0043142Y0204026D02*
X0054342Y0204026D01*
X0054342Y0205624D02*
X0043142Y0205624D01*
X0043142Y0207223D02*
X0054342Y0207223D01*
X0054342Y0208821D02*
X0043142Y0208821D01*
X0043142Y0210420D02*
X0054342Y0210420D01*
X0054342Y0212018D02*
X0043142Y0212018D01*
X0043142Y0213617D02*
X0054342Y0213617D01*
X0054342Y0215215D02*
X0043142Y0215215D01*
X0043142Y0216814D02*
X0054342Y0216814D01*
X0054342Y0218412D02*
X0043142Y0218412D01*
X0043142Y0220011D02*
X0054342Y0220011D01*
X0054342Y0221609D02*
X0043142Y0221609D01*
X0043142Y0223208D02*
X0054342Y0223208D01*
X0054342Y0224806D02*
X0043142Y0224806D01*
X0043142Y0226405D02*
X0054342Y0226405D01*
X0054342Y0228003D02*
X0043142Y0228003D01*
X0043142Y0229602D02*
X0054342Y0229602D01*
X0054342Y0231201D02*
X0043142Y0231201D01*
X0043142Y0232799D02*
X0054342Y0232799D01*
X0054342Y0234398D02*
X0043142Y0234398D01*
X0043142Y0235996D02*
X0054342Y0235996D01*
X0054342Y0237595D02*
X0043142Y0237595D01*
X0043142Y0239193D02*
X0054342Y0239193D01*
X0054342Y0240792D02*
X0043142Y0240792D01*
X0043142Y0242390D02*
X0054342Y0242390D01*
X0054342Y0243989D02*
X0043142Y0243989D01*
X0043142Y0245587D02*
X0054342Y0245587D01*
X0054342Y0247186D02*
X0043142Y0247186D01*
X0043142Y0248784D02*
X0054751Y0248784D01*
X0056068Y0250383D02*
X0043142Y0250383D01*
X0043142Y0251981D02*
X0062018Y0251981D01*
X0061842Y0253580D02*
X0043142Y0253580D01*
X0043142Y0255178D02*
X0061842Y0255178D01*
X0061842Y0256777D02*
X0043142Y0256777D01*
X0043142Y0258375D02*
X0061842Y0258375D01*
X0061842Y0259974D02*
X0043142Y0259974D01*
X0043142Y0261572D02*
X0061842Y0261572D01*
X0062495Y0263171D02*
X0043142Y0263171D01*
X0043142Y0264769D02*
X0063319Y0264769D01*
X0064649Y0266368D02*
X0043142Y0266368D01*
X0043142Y0267966D02*
X0066247Y0267966D01*
X0065113Y0266832D02*
X0065113Y0266832D01*
X0067846Y0269565D02*
X0043142Y0269565D01*
X0043142Y0271163D02*
X0069444Y0271163D01*
X0071043Y0272762D02*
X0043142Y0272762D01*
X0043142Y0274360D02*
X0072641Y0274360D01*
X0074240Y0275959D02*
X0043142Y0275959D01*
X0043142Y0277557D02*
X0069299Y0277557D01*
X0067701Y0279156D02*
X0043142Y0279156D01*
X0043142Y0280754D02*
X0067342Y0280754D01*
X0067342Y0282353D02*
X0058044Y0282353D01*
X0060433Y0283951D02*
X0067342Y0283951D01*
X0068406Y0285550D02*
X0061979Y0285550D01*
X0062902Y0287148D02*
X0070005Y0287148D01*
X0070089Y0288747D02*
X0063553Y0288747D01*
X0063982Y0290345D02*
X0068742Y0290345D01*
X0068742Y0291944D02*
X0064047Y0291944D01*
X0064012Y0293542D02*
X0068742Y0293542D01*
X0069977Y0295141D02*
X0063583Y0295141D01*
X0062967Y0296739D02*
X0097642Y0296739D01*
X0097642Y0295141D02*
X0076706Y0295141D01*
X0077942Y0293542D02*
X0097642Y0293542D01*
X0097642Y0291944D02*
X0077942Y0291944D01*
X0077942Y0290345D02*
X0090182Y0290345D01*
X0088742Y0288747D02*
X0076594Y0288747D01*
X0076679Y0287148D02*
X0088742Y0287148D01*
X0088742Y0285550D02*
X0078277Y0285550D01*
X0079342Y0283951D02*
X0089885Y0283951D01*
X0093342Y0287000D02*
X0093342Y0287000D01*
X0093342Y0287148D02*
X0093342Y0287148D01*
X0093342Y0288747D02*
X0093342Y0288747D01*
X0093342Y0290345D02*
X0093342Y0290345D01*
X0096502Y0290345D02*
X0097642Y0290345D01*
X0097993Y0298338D02*
X0062044Y0298338D01*
X0060545Y0299937D02*
X0098861Y0299937D01*
X0109042Y0290345D02*
X0309935Y0290345D01*
X0311534Y0288747D02*
X0109342Y0288747D01*
X0109342Y0287148D02*
X0313132Y0287148D01*
X0312267Y0285550D02*
X0314731Y0285550D01*
X0314798Y0283951D02*
X0313866Y0283951D01*
X0318158Y0279156D02*
X0318526Y0279156D01*
X0318526Y0277557D02*
X0318158Y0277557D01*
X0318158Y0275959D02*
X0318526Y0275959D01*
X0321796Y0275959D02*
X0322908Y0275959D01*
X0324506Y0274360D02*
X0312177Y0274360D01*
X0313776Y0275959D02*
X0314888Y0275959D01*
X0307043Y0272762D02*
X0351842Y0272762D01*
X0351842Y0272288D02*
X0337354Y0257800D01*
X0335939Y0257800D01*
X0332542Y0254402D01*
X0332542Y0249598D01*
X0335939Y0246200D01*
X0340744Y0246200D01*
X0344142Y0249598D01*
X0344142Y0251012D01*
X0358630Y0265500D01*
X0361034Y0265500D01*
X0364332Y0268798D01*
X0366229Y0266900D01*
X0368342Y0266900D01*
X0370454Y0266900D01*
X0373442Y0269888D01*
X0373442Y0272000D01*
X0373442Y0274112D01*
X0370454Y0277100D01*
X0368342Y0277100D01*
X0368342Y0272000D01*
X0373442Y0272000D01*
X0368342Y0272000D01*
X0368342Y0272000D01*
X0368342Y0272000D01*
X0368342Y0266900D01*
X0368342Y0272000D01*
X0368342Y0272000D01*
X0368342Y0277100D01*
X0366229Y0277100D01*
X0364332Y0275202D01*
X0361034Y0278500D01*
X0355649Y0278500D01*
X0351842Y0274692D01*
X0351842Y0272288D01*
X0350717Y0271163D02*
X0305445Y0271163D01*
X0303846Y0269565D02*
X0349118Y0269565D01*
X0347520Y0267966D02*
X0302248Y0267966D01*
X0300649Y0266368D02*
X0345921Y0266368D01*
X0344323Y0264769D02*
X0299051Y0264769D01*
X0298902Y0264621D02*
X0298902Y0264621D01*
X0301768Y0256777D02*
X0334916Y0256777D01*
X0333318Y0255178D02*
X0303366Y0255178D01*
X0304142Y0253580D02*
X0332542Y0253580D01*
X0332542Y0251981D02*
X0304142Y0251981D01*
X0304142Y0250383D02*
X0332542Y0250383D01*
X0333355Y0248784D02*
X0303328Y0248784D01*
X0301730Y0247186D02*
X0334954Y0247186D01*
X0341730Y0247186D02*
X0353964Y0247186D01*
X0352365Y0248784D02*
X0343328Y0248784D01*
X0344142Y0250383D02*
X0351842Y0250383D01*
X0351842Y0251981D02*
X0345111Y0251981D01*
X0346710Y0253580D02*
X0351842Y0253580D01*
X0352328Y0255178D02*
X0348308Y0255178D01*
X0349907Y0256777D02*
X0353926Y0256777D01*
X0355525Y0258375D02*
X0351505Y0258375D01*
X0353104Y0259974D02*
X0383463Y0259974D01*
X0383463Y0261572D02*
X0354702Y0261572D01*
X0356301Y0263171D02*
X0383463Y0263171D01*
X0383463Y0264769D02*
X0357899Y0264769D01*
X0361902Y0266368D02*
X0383463Y0266368D01*
X0383463Y0267966D02*
X0371521Y0267966D01*
X0373119Y0269565D02*
X0383463Y0269565D01*
X0383463Y0271163D02*
X0373442Y0271163D01*
X0373442Y0272762D02*
X0383463Y0272762D01*
X0383463Y0274360D02*
X0373194Y0274360D01*
X0371595Y0275959D02*
X0383463Y0275959D01*
X0383463Y0277557D02*
X0361977Y0277557D01*
X0363575Y0275959D02*
X0365088Y0275959D01*
X0368342Y0275959D02*
X0368342Y0275959D01*
X0368342Y0274360D02*
X0368342Y0274360D01*
X0368342Y0272762D02*
X0368342Y0272762D01*
X0368342Y0271163D02*
X0368342Y0271163D01*
X0368342Y0269565D02*
X0368342Y0269565D01*
X0368342Y0267966D02*
X0368342Y0267966D01*
X0365163Y0267966D02*
X0363500Y0267966D01*
X0354707Y0277557D02*
X0344582Y0277557D01*
X0345042Y0279156D02*
X0383463Y0279156D01*
X0383463Y0280754D02*
X0345042Y0280754D01*
X0344619Y0282353D02*
X0368640Y0282353D01*
X0366251Y0283951D02*
X0343866Y0283951D01*
X0342267Y0285550D02*
X0364704Y0285550D01*
X0363781Y0287148D02*
X0329254Y0287148D01*
X0327656Y0288747D02*
X0363130Y0288747D01*
X0362702Y0290345D02*
X0326057Y0290345D01*
X0324459Y0291944D02*
X0362636Y0291944D01*
X0362672Y0293542D02*
X0322860Y0293542D01*
X0321262Y0295141D02*
X0363100Y0295141D01*
X0363716Y0296739D02*
X0319663Y0296739D01*
X0318065Y0298338D02*
X0364639Y0298338D01*
X0366138Y0299937D02*
X0316466Y0299937D01*
X0304416Y0285550D02*
X0302267Y0285550D01*
X0294416Y0285550D02*
X0292267Y0285550D01*
X0284416Y0285550D02*
X0282267Y0285550D01*
X0274416Y0285550D02*
X0272267Y0285550D01*
X0264416Y0285550D02*
X0262267Y0285550D01*
X0254416Y0285550D02*
X0109342Y0285550D01*
X0108778Y0283951D02*
X0252818Y0283951D01*
X0252064Y0282353D02*
X0246191Y0282353D01*
X0247790Y0280754D02*
X0251642Y0280754D01*
X0251642Y0279156D02*
X0249142Y0279156D01*
X0249142Y0277557D02*
X0252102Y0277557D01*
X0252908Y0275959D02*
X0249142Y0275959D01*
X0248905Y0274360D02*
X0254506Y0274360D01*
X0247306Y0272762D02*
X0295164Y0272762D01*
X0294506Y0274360D02*
X0292177Y0274360D01*
X0284506Y0274360D02*
X0282177Y0274360D01*
X0274506Y0274360D02*
X0272177Y0274360D01*
X0264506Y0274360D02*
X0262177Y0274360D01*
X0226552Y0247186D02*
X0225131Y0247186D01*
X0216552Y0247186D02*
X0215131Y0247186D01*
X0206552Y0247186D02*
X0205131Y0247186D01*
X0196552Y0247186D02*
X0195131Y0247186D01*
X0176934Y0245587D02*
X0176608Y0245587D01*
X0167829Y0235996D02*
X0163855Y0235996D01*
X0157829Y0235996D02*
X0134462Y0235996D01*
X0138355Y0248784D02*
X0122349Y0248784D01*
X0122349Y0250383D02*
X0137542Y0250383D01*
X0137542Y0251981D02*
X0122349Y0251981D01*
X0122349Y0253580D02*
X0137542Y0253580D01*
X0138318Y0255178D02*
X0122349Y0255178D01*
X0122349Y0256777D02*
X0139142Y0256777D01*
X0139142Y0258375D02*
X0122349Y0258375D01*
X0122349Y0259974D02*
X0139142Y0259974D01*
X0139142Y0261572D02*
X0132494Y0261572D01*
X0133408Y0261951D02*
X0131219Y0261044D01*
X0128850Y0261044D01*
X0126661Y0261951D01*
X0124986Y0263626D01*
X0124079Y0265815D01*
X0124079Y0268185D01*
X0124986Y0270374D01*
X0126661Y0272049D01*
X0128850Y0272956D01*
X0131219Y0272956D01*
X0133408Y0272049D01*
X0135084Y0270374D01*
X0135991Y0268185D01*
X0135991Y0265815D01*
X0135084Y0263626D01*
X0133408Y0261951D01*
X0134628Y0263171D02*
X0139281Y0263171D01*
X0140171Y0264769D02*
X0135557Y0264769D01*
X0135991Y0266368D02*
X0141770Y0266368D01*
X0142542Y0267966D02*
X0135991Y0267966D01*
X0135419Y0269565D02*
X0142704Y0269565D01*
X0144303Y0271163D02*
X0134294Y0271163D01*
X0131688Y0272762D02*
X0145901Y0272762D01*
X0150782Y0272762D02*
X0171043Y0272762D01*
X0169444Y0271163D02*
X0152381Y0271163D01*
X0153979Y0269565D02*
X0167846Y0269565D01*
X0166247Y0267966D02*
X0154142Y0267966D01*
X0154142Y0266368D02*
X0164649Y0266368D01*
X0163050Y0264769D02*
X0154142Y0264769D01*
X0152715Y0263171D02*
X0161452Y0263171D01*
X0159853Y0261572D02*
X0151116Y0261572D01*
X0147542Y0259974D02*
X0158255Y0259974D01*
X0156656Y0258375D02*
X0147542Y0258375D01*
X0147542Y0256777D02*
X0155615Y0256777D01*
X0155142Y0255178D02*
X0148366Y0255178D01*
X0149142Y0253580D02*
X0155142Y0253580D01*
X0155142Y0251981D02*
X0149142Y0251981D01*
X0149142Y0250383D02*
X0155142Y0250383D01*
X0155142Y0248784D02*
X0148328Y0248784D01*
X0127575Y0261572D02*
X0122349Y0261572D01*
X0122349Y0263171D02*
X0125441Y0263171D01*
X0124512Y0264769D02*
X0122349Y0264769D01*
X0122605Y0266368D02*
X0124079Y0266368D01*
X0124079Y0267966D02*
X0122605Y0267966D01*
X0122033Y0269565D02*
X0124650Y0269565D01*
X0125775Y0271163D02*
X0120909Y0271163D01*
X0118302Y0272762D02*
X0128381Y0272762D01*
X0110949Y0263171D02*
X0092560Y0263171D01*
X0093291Y0261572D02*
X0110949Y0261572D01*
X0110949Y0259974D02*
X0093442Y0259974D01*
X0085880Y0264769D02*
X0083065Y0264769D01*
X0081370Y0282353D02*
X0079342Y0282353D01*
X0073342Y0292000D02*
X0073342Y0292000D01*
X0073342Y0293542D02*
X0073342Y0293542D01*
X0073342Y0295141D02*
X0073342Y0295141D01*
X0048640Y0282353D02*
X0043142Y0282353D01*
X0043142Y0283951D02*
X0046251Y0283951D01*
X0044704Y0285550D02*
X0043142Y0285550D01*
X0043142Y0287148D02*
X0043781Y0287148D01*
X0103559Y0279156D02*
X0177437Y0279156D01*
X0179035Y0280754D02*
X0105157Y0280754D01*
X0107180Y0282353D02*
X0181370Y0282353D01*
X0215042Y0235996D02*
X0217829Y0235996D01*
X0223855Y0235996D02*
X0227829Y0235996D01*
X0236673Y0207223D02*
X0240011Y0207223D01*
X0246673Y0207223D02*
X0250011Y0207223D01*
X0283192Y0205624D02*
X0283492Y0205624D01*
X0283492Y0204026D02*
X0283192Y0204026D01*
X0283192Y0202427D02*
X0283492Y0202427D01*
X0286349Y0205624D02*
X0288339Y0205624D01*
X0337600Y0197632D02*
X0339083Y0197632D01*
X0347600Y0197632D02*
X0349083Y0197632D01*
X0357600Y0197632D02*
X0359083Y0197632D01*
X0367600Y0197632D02*
X0369083Y0197632D01*
X0372075Y0148078D02*
X0364608Y0148078D01*
X0362075Y0148078D02*
X0354608Y0148078D01*
X0352075Y0148078D02*
X0344608Y0148078D01*
X0342075Y0148078D02*
X0334608Y0148078D01*
X0332075Y0148078D02*
X0324608Y0148078D01*
X0322075Y0148078D02*
X0314608Y0148078D01*
X0312075Y0148078D02*
X0304608Y0148078D01*
X0302075Y0148078D02*
X0294608Y0148078D01*
X0297489Y0146479D02*
X0299195Y0146479D01*
X0307489Y0146479D02*
X0309195Y0146479D01*
X0317489Y0146479D02*
X0319195Y0146479D01*
X0327489Y0146479D02*
X0329195Y0146479D01*
X0337489Y0146479D02*
X0339195Y0146479D01*
X0347489Y0146479D02*
X0349195Y0146479D01*
X0357489Y0146479D02*
X0359195Y0146479D01*
X0367489Y0146479D02*
X0369195Y0146479D01*
X0376342Y0130494D02*
X0383463Y0130494D01*
X0383463Y0128896D02*
X0378353Y0128896D01*
X0379201Y0127297D02*
X0383463Y0127297D01*
X0383463Y0125699D02*
X0379550Y0125699D01*
X0379526Y0124100D02*
X0383463Y0124100D01*
X0383463Y0122502D02*
X0379475Y0122502D01*
X0379311Y0120903D02*
X0383463Y0120903D01*
X0383463Y0119305D02*
X0378649Y0119305D01*
X0377109Y0117706D02*
X0383463Y0117706D01*
X0383463Y0116108D02*
X0375511Y0116108D01*
X0373912Y0114509D02*
X0383463Y0114509D01*
X0383463Y0112911D02*
X0372314Y0112911D01*
X0370715Y0111312D02*
X0383463Y0111312D01*
X0383463Y0109714D02*
X0369116Y0109714D01*
X0367518Y0108115D02*
X0383463Y0108115D01*
X0383463Y0106517D02*
X0365919Y0106517D01*
X0364321Y0104918D02*
X0383463Y0104918D01*
X0383463Y0103320D02*
X0362722Y0103320D01*
X0361124Y0101721D02*
X0383463Y0101721D01*
X0383463Y0100123D02*
X0359525Y0100123D01*
X0359042Y0098524D02*
X0383463Y0098524D01*
X0383463Y0096926D02*
X0359042Y0096926D01*
X0359042Y0095327D02*
X0383463Y0095327D01*
X0383463Y0093729D02*
X0359042Y0093729D01*
X0359042Y0092130D02*
X0383463Y0092130D01*
X0383463Y0090532D02*
X0359042Y0090532D01*
X0359042Y0088933D02*
X0383463Y0088933D01*
X0383463Y0087334D02*
X0359042Y0087334D01*
X0359042Y0085736D02*
X0383463Y0085736D01*
X0383463Y0084137D02*
X0359342Y0084137D01*
X0359342Y0082539D02*
X0383463Y0082539D01*
X0383463Y0080940D02*
X0359342Y0080940D01*
X0359169Y0079342D02*
X0383463Y0079342D01*
X0383463Y0077743D02*
X0359042Y0077743D01*
X0359042Y0076145D02*
X0383463Y0076145D01*
X0383463Y0074546D02*
X0359042Y0074546D01*
X0359042Y0072948D02*
X0383463Y0072948D01*
X0383463Y0071349D02*
X0359042Y0071349D01*
X0359042Y0069751D02*
X0383463Y0069751D01*
X0383463Y0068152D02*
X0359042Y0068152D01*
X0359042Y0066554D02*
X0383463Y0066554D01*
X0383463Y0064955D02*
X0359042Y0064955D01*
X0359342Y0063357D02*
X0383463Y0063357D01*
X0383463Y0061758D02*
X0359342Y0061758D01*
X0359342Y0060160D02*
X0383463Y0060160D01*
X0383463Y0058561D02*
X0358388Y0058561D01*
X0356790Y0056963D02*
X0383463Y0056963D01*
X0383463Y0042576D02*
X0378058Y0042576D01*
X0379079Y0040978D02*
X0383463Y0040978D01*
X0383463Y0039379D02*
X0379550Y0039379D01*
X0379550Y0037781D02*
X0383463Y0037781D01*
X0383463Y0036182D02*
X0378985Y0036182D01*
X0377832Y0034584D02*
X0383463Y0034584D01*
X0383463Y0029788D02*
X0189085Y0029788D01*
X0188233Y0028190D02*
X0383463Y0028190D01*
X0383463Y0026591D02*
X0378141Y0026591D01*
X0380489Y0024993D02*
X0383463Y0024993D01*
X0383463Y0023394D02*
X0382012Y0023394D01*
X0382935Y0021796D02*
X0383463Y0021796D01*
X0368543Y0026591D02*
X0186361Y0026591D01*
X0224923Y0036182D02*
X0226760Y0036182D01*
X0234923Y0036182D02*
X0236760Y0036182D01*
X0235976Y0063357D02*
X0235921Y0063357D01*
X0237520Y0064955D02*
X0237575Y0064955D01*
X0237742Y0066554D02*
X0239173Y0066554D01*
X0237742Y0068152D02*
X0240772Y0068152D01*
X0242370Y0069751D02*
X0236813Y0069751D01*
X0296857Y0136888D02*
X0299827Y0136888D01*
X0306857Y0136888D02*
X0309827Y0136888D01*
X0347189Y0079342D02*
X0347515Y0079342D01*
X0347642Y0064955D02*
X0346892Y0064955D01*
X0199465Y0164063D02*
X0192501Y0164063D01*
X0192742Y0162465D02*
X0197867Y0162465D01*
X0196268Y0160866D02*
X0192742Y0160866D01*
X0191832Y0159268D02*
X0194735Y0159268D01*
X0189083Y0197632D02*
X0187600Y0197632D01*
X0179083Y0197632D02*
X0177600Y0197632D01*
X0169083Y0197632D02*
X0167600Y0197632D01*
X0166673Y0207223D02*
X0170011Y0207223D01*
X0176673Y0207223D02*
X0180011Y0207223D01*
X0186673Y0207223D02*
X0190011Y0207223D01*
X0196673Y0207223D02*
X0200011Y0207223D01*
X0144142Y0194435D02*
X0119042Y0194435D01*
X0119042Y0196033D02*
X0141807Y0196033D01*
X0139083Y0197632D02*
X0119042Y0197632D01*
X0119042Y0199230D02*
X0137886Y0199230D01*
X0136452Y0200829D02*
X0119042Y0200829D01*
X0119042Y0202427D02*
X0134853Y0202427D01*
X0133255Y0204026D02*
X0119042Y0204026D01*
X0119042Y0205624D02*
X0131656Y0205624D01*
X0130058Y0207223D02*
X0119042Y0207223D01*
X0119042Y0208821D02*
X0128459Y0208821D01*
X0126861Y0210420D02*
X0119042Y0210420D01*
X0119042Y0212018D02*
X0125262Y0212018D01*
X0123664Y0213617D02*
X0119042Y0213617D01*
X0119042Y0215215D02*
X0122065Y0215215D01*
X0120467Y0216814D02*
X0119042Y0216814D01*
X0119042Y0192836D02*
X0144142Y0192836D01*
X0144142Y0191238D02*
X0119042Y0191238D01*
X0119042Y0189639D02*
X0144142Y0189639D01*
X0144142Y0188041D02*
X0119042Y0188041D01*
X0119042Y0186442D02*
X0144142Y0186442D01*
X0144142Y0184844D02*
X0119042Y0184844D01*
X0119042Y0183245D02*
X0144142Y0183245D01*
X0144142Y0181647D02*
X0119042Y0181647D01*
X0119042Y0180048D02*
X0144142Y0180048D01*
X0144142Y0178450D02*
X0119042Y0178450D01*
X0119042Y0176851D02*
X0144142Y0176851D01*
X0144142Y0175253D02*
X0119042Y0175253D01*
X0119042Y0173654D02*
X0144142Y0173654D01*
X0144142Y0172056D02*
X0119042Y0172056D01*
X0119042Y0170457D02*
X0144142Y0170457D01*
X0144142Y0168859D02*
X0119042Y0168859D01*
X0119042Y0167260D02*
X0144142Y0167260D01*
X0143801Y0165662D02*
X0119042Y0165662D01*
X0119042Y0164063D02*
X0142542Y0164063D01*
X0142542Y0162465D02*
X0119042Y0162465D01*
X0119042Y0160866D02*
X0142542Y0160866D01*
X0142872Y0159268D02*
X0119042Y0159268D01*
X0119042Y0157669D02*
X0120808Y0157669D01*
X0119210Y0156070D02*
X0119042Y0156070D01*
X0125875Y0157669D02*
X0144470Y0157669D01*
X0119061Y0148078D02*
X0119042Y0148078D01*
X0107642Y0148078D02*
X0043142Y0148078D01*
X0043142Y0149676D02*
X0107642Y0149676D01*
X0107642Y0146479D02*
X0043142Y0146479D01*
X0043142Y0144881D02*
X0107642Y0144881D01*
X0107642Y0143282D02*
X0043142Y0143282D01*
X0043142Y0141684D02*
X0107642Y0141684D01*
X0107642Y0140085D02*
X0043142Y0140085D01*
X0043142Y0138487D02*
X0107642Y0138487D01*
X0107642Y0136888D02*
X0043142Y0136888D01*
X0043142Y0135290D02*
X0107642Y0135290D01*
X0107642Y0133691D02*
X0043142Y0133691D01*
X0043142Y0132093D02*
X0107642Y0132093D01*
X0107642Y0130494D02*
X0043142Y0130494D01*
X0043142Y0128896D02*
X0107642Y0128896D01*
X0107642Y0127297D02*
X0043142Y0127297D01*
X0043142Y0125699D02*
X0107642Y0125699D01*
X0107642Y0124100D02*
X0043142Y0124100D01*
X0043142Y0122502D02*
X0107642Y0122502D01*
X0107642Y0120903D02*
X0043142Y0120903D01*
X0043142Y0119305D02*
X0107642Y0119305D01*
X0107642Y0117706D02*
X0043142Y0117706D01*
X0043142Y0116108D02*
X0107642Y0116108D01*
X0107642Y0114509D02*
X0043142Y0114509D01*
X0043142Y0112911D02*
X0107642Y0112911D01*
X0107642Y0111312D02*
X0090812Y0111312D01*
X0093121Y0109714D02*
X0107642Y0109714D01*
X0107642Y0108115D02*
X0094211Y0108115D01*
X0094842Y0106517D02*
X0107642Y0106517D01*
X0107642Y0104918D02*
X0094842Y0104918D01*
X0094842Y0103320D02*
X0107642Y0103320D01*
X0107642Y0101721D02*
X0094842Y0101721D01*
X0094842Y0100123D02*
X0107950Y0100123D01*
X0108757Y0098524D02*
X0094842Y0098524D01*
X0094642Y0096926D02*
X0095206Y0096926D01*
X0087642Y0085736D02*
X0076111Y0085736D01*
X0077710Y0084137D02*
X0087342Y0084137D01*
X0087342Y0082539D02*
X0077942Y0082539D01*
X0077942Y0080940D02*
X0087342Y0080940D01*
X0087515Y0079342D02*
X0077189Y0079342D01*
X0095972Y0076145D02*
X0107642Y0076145D01*
X0107642Y0077743D02*
X0105591Y0077743D01*
X0103342Y0077743D02*
X0103342Y0077743D01*
X0103342Y0077400D02*
X0103342Y0082000D01*
X0103342Y0082000D01*
X0103342Y0077400D01*
X0103342Y0079342D02*
X0103342Y0079342D01*
X0103342Y0080940D02*
X0103342Y0080940D01*
X0101093Y0077743D02*
X0097570Y0077743D01*
X0099169Y0079342D02*
X0099494Y0079342D01*
X0107189Y0079342D02*
X0107642Y0079342D01*
X0119042Y0079342D02*
X0122797Y0079342D01*
X0122542Y0080940D02*
X0119042Y0080940D01*
X0119042Y0082539D02*
X0122542Y0082539D01*
X0122542Y0084137D02*
X0119042Y0084137D01*
X0119042Y0085736D02*
X0123875Y0085736D01*
X0124342Y0087334D02*
X0119042Y0087334D01*
X0120299Y0088933D02*
X0124342Y0088933D01*
X0124008Y0090532D02*
X0122676Y0090532D01*
X0122825Y0103320D02*
X0123859Y0103320D01*
X0126025Y0104918D02*
X0120659Y0104918D01*
X0119042Y0077743D02*
X0124396Y0077743D01*
X0074502Y0095327D02*
X0073980Y0095327D01*
X0073121Y0109714D02*
X0075770Y0109714D01*
X0332177Y0274360D02*
X0334506Y0274360D01*
X0342177Y0274360D02*
X0351842Y0274360D01*
X0353108Y0275959D02*
X0343776Y0275959D01*
X0334416Y0285550D02*
X0332267Y0285550D01*
X0378044Y0282353D02*
X0383463Y0282353D01*
X0383463Y0283951D02*
X0380433Y0283951D01*
X0381979Y0285550D02*
X0383463Y0285550D01*
X0383463Y0287148D02*
X0382902Y0287148D01*
D27*
X0160842Y0242000D02*
X0160342Y0242000D01*
D28*
X0183342Y0032000D03*
D29*
X0323342Y0137000D02*
X0323342Y0142000D01*
X0323342Y0137000D02*
X0328342Y0132000D01*
X0338342Y0132000D01*
X0342279Y0128063D01*
X0342279Y0125307D01*
X0358027Y0125307D02*
X0358027Y0126685D01*
X0373342Y0142000D01*
X0338342Y0252000D02*
X0358342Y0272000D01*
M02*
