G75*
%MOIN*%
%OFA0B0*%
%FSLAX25Y25*%
%IPPOS*%
%LPD*%
%AMOC8*
5,1,8,0,0,1.08239X$1,22.5*
%
%ADD10C,0.00000*%
%ADD11C,0.00512*%
%ADD12C,0.00600*%
%ADD13C,0.00500*%
D10*
X0038342Y0002000D02*
X0038342Y0305701D01*
X0388263Y0305701D01*
X0388263Y0002000D01*
X0038342Y0002000D01*
X0047436Y0017000D02*
X0047438Y0017153D01*
X0047444Y0017307D01*
X0047454Y0017460D01*
X0047468Y0017612D01*
X0047486Y0017765D01*
X0047508Y0017916D01*
X0047533Y0018067D01*
X0047563Y0018218D01*
X0047597Y0018368D01*
X0047634Y0018516D01*
X0047675Y0018664D01*
X0047720Y0018810D01*
X0047769Y0018956D01*
X0047822Y0019100D01*
X0047878Y0019242D01*
X0047938Y0019383D01*
X0048002Y0019523D01*
X0048069Y0019661D01*
X0048140Y0019797D01*
X0048215Y0019931D01*
X0048292Y0020063D01*
X0048374Y0020193D01*
X0048458Y0020321D01*
X0048546Y0020447D01*
X0048637Y0020570D01*
X0048731Y0020691D01*
X0048829Y0020809D01*
X0048929Y0020925D01*
X0049033Y0021038D01*
X0049139Y0021149D01*
X0049248Y0021257D01*
X0049360Y0021362D01*
X0049474Y0021463D01*
X0049592Y0021562D01*
X0049711Y0021658D01*
X0049833Y0021751D01*
X0049958Y0021840D01*
X0050085Y0021927D01*
X0050214Y0022009D01*
X0050345Y0022089D01*
X0050478Y0022165D01*
X0050613Y0022238D01*
X0050750Y0022307D01*
X0050889Y0022372D01*
X0051029Y0022434D01*
X0051171Y0022492D01*
X0051314Y0022547D01*
X0051459Y0022598D01*
X0051605Y0022645D01*
X0051752Y0022688D01*
X0051900Y0022727D01*
X0052049Y0022763D01*
X0052199Y0022794D01*
X0052350Y0022822D01*
X0052501Y0022846D01*
X0052654Y0022866D01*
X0052806Y0022882D01*
X0052959Y0022894D01*
X0053112Y0022902D01*
X0053265Y0022906D01*
X0053419Y0022906D01*
X0053572Y0022902D01*
X0053725Y0022894D01*
X0053878Y0022882D01*
X0054030Y0022866D01*
X0054183Y0022846D01*
X0054334Y0022822D01*
X0054485Y0022794D01*
X0054635Y0022763D01*
X0054784Y0022727D01*
X0054932Y0022688D01*
X0055079Y0022645D01*
X0055225Y0022598D01*
X0055370Y0022547D01*
X0055513Y0022492D01*
X0055655Y0022434D01*
X0055795Y0022372D01*
X0055934Y0022307D01*
X0056071Y0022238D01*
X0056206Y0022165D01*
X0056339Y0022089D01*
X0056470Y0022009D01*
X0056599Y0021927D01*
X0056726Y0021840D01*
X0056851Y0021751D01*
X0056973Y0021658D01*
X0057092Y0021562D01*
X0057210Y0021463D01*
X0057324Y0021362D01*
X0057436Y0021257D01*
X0057545Y0021149D01*
X0057651Y0021038D01*
X0057755Y0020925D01*
X0057855Y0020809D01*
X0057953Y0020691D01*
X0058047Y0020570D01*
X0058138Y0020447D01*
X0058226Y0020321D01*
X0058310Y0020193D01*
X0058392Y0020063D01*
X0058469Y0019931D01*
X0058544Y0019797D01*
X0058615Y0019661D01*
X0058682Y0019523D01*
X0058746Y0019383D01*
X0058806Y0019242D01*
X0058862Y0019100D01*
X0058915Y0018956D01*
X0058964Y0018810D01*
X0059009Y0018664D01*
X0059050Y0018516D01*
X0059087Y0018368D01*
X0059121Y0018218D01*
X0059151Y0018067D01*
X0059176Y0017916D01*
X0059198Y0017765D01*
X0059216Y0017612D01*
X0059230Y0017460D01*
X0059240Y0017307D01*
X0059246Y0017153D01*
X0059248Y0017000D01*
X0059246Y0016847D01*
X0059240Y0016693D01*
X0059230Y0016540D01*
X0059216Y0016388D01*
X0059198Y0016235D01*
X0059176Y0016084D01*
X0059151Y0015933D01*
X0059121Y0015782D01*
X0059087Y0015632D01*
X0059050Y0015484D01*
X0059009Y0015336D01*
X0058964Y0015190D01*
X0058915Y0015044D01*
X0058862Y0014900D01*
X0058806Y0014758D01*
X0058746Y0014617D01*
X0058682Y0014477D01*
X0058615Y0014339D01*
X0058544Y0014203D01*
X0058469Y0014069D01*
X0058392Y0013937D01*
X0058310Y0013807D01*
X0058226Y0013679D01*
X0058138Y0013553D01*
X0058047Y0013430D01*
X0057953Y0013309D01*
X0057855Y0013191D01*
X0057755Y0013075D01*
X0057651Y0012962D01*
X0057545Y0012851D01*
X0057436Y0012743D01*
X0057324Y0012638D01*
X0057210Y0012537D01*
X0057092Y0012438D01*
X0056973Y0012342D01*
X0056851Y0012249D01*
X0056726Y0012160D01*
X0056599Y0012073D01*
X0056470Y0011991D01*
X0056339Y0011911D01*
X0056206Y0011835D01*
X0056071Y0011762D01*
X0055934Y0011693D01*
X0055795Y0011628D01*
X0055655Y0011566D01*
X0055513Y0011508D01*
X0055370Y0011453D01*
X0055225Y0011402D01*
X0055079Y0011355D01*
X0054932Y0011312D01*
X0054784Y0011273D01*
X0054635Y0011237D01*
X0054485Y0011206D01*
X0054334Y0011178D01*
X0054183Y0011154D01*
X0054030Y0011134D01*
X0053878Y0011118D01*
X0053725Y0011106D01*
X0053572Y0011098D01*
X0053419Y0011094D01*
X0053265Y0011094D01*
X0053112Y0011098D01*
X0052959Y0011106D01*
X0052806Y0011118D01*
X0052654Y0011134D01*
X0052501Y0011154D01*
X0052350Y0011178D01*
X0052199Y0011206D01*
X0052049Y0011237D01*
X0051900Y0011273D01*
X0051752Y0011312D01*
X0051605Y0011355D01*
X0051459Y0011402D01*
X0051314Y0011453D01*
X0051171Y0011508D01*
X0051029Y0011566D01*
X0050889Y0011628D01*
X0050750Y0011693D01*
X0050613Y0011762D01*
X0050478Y0011835D01*
X0050345Y0011911D01*
X0050214Y0011991D01*
X0050085Y0012073D01*
X0049958Y0012160D01*
X0049833Y0012249D01*
X0049711Y0012342D01*
X0049592Y0012438D01*
X0049474Y0012537D01*
X0049360Y0012638D01*
X0049248Y0012743D01*
X0049139Y0012851D01*
X0049033Y0012962D01*
X0048929Y0013075D01*
X0048829Y0013191D01*
X0048731Y0013309D01*
X0048637Y0013430D01*
X0048546Y0013553D01*
X0048458Y0013679D01*
X0048374Y0013807D01*
X0048292Y0013937D01*
X0048215Y0014069D01*
X0048140Y0014203D01*
X0048069Y0014339D01*
X0048002Y0014477D01*
X0047938Y0014617D01*
X0047878Y0014758D01*
X0047822Y0014900D01*
X0047769Y0015044D01*
X0047720Y0015190D01*
X0047675Y0015336D01*
X0047634Y0015484D01*
X0047597Y0015632D01*
X0047563Y0015782D01*
X0047533Y0015933D01*
X0047508Y0016084D01*
X0047486Y0016235D01*
X0047468Y0016388D01*
X0047454Y0016540D01*
X0047444Y0016693D01*
X0047438Y0016847D01*
X0047436Y0017000D01*
X0071842Y0161000D02*
X0071844Y0161161D01*
X0071850Y0161321D01*
X0071860Y0161482D01*
X0071874Y0161642D01*
X0071892Y0161802D01*
X0071913Y0161961D01*
X0071939Y0162120D01*
X0071969Y0162278D01*
X0072002Y0162435D01*
X0072040Y0162592D01*
X0072081Y0162747D01*
X0072126Y0162901D01*
X0072175Y0163054D01*
X0072228Y0163206D01*
X0072284Y0163357D01*
X0072345Y0163506D01*
X0072408Y0163654D01*
X0072476Y0163800D01*
X0072547Y0163944D01*
X0072621Y0164086D01*
X0072699Y0164227D01*
X0072781Y0164365D01*
X0072866Y0164502D01*
X0072954Y0164636D01*
X0073046Y0164768D01*
X0073141Y0164898D01*
X0073239Y0165026D01*
X0073340Y0165151D01*
X0073444Y0165273D01*
X0073551Y0165393D01*
X0073661Y0165510D01*
X0073774Y0165625D01*
X0073890Y0165736D01*
X0074009Y0165845D01*
X0074130Y0165950D01*
X0074254Y0166053D01*
X0074380Y0166153D01*
X0074508Y0166249D01*
X0074639Y0166342D01*
X0074773Y0166432D01*
X0074908Y0166519D01*
X0075046Y0166602D01*
X0075185Y0166682D01*
X0075327Y0166758D01*
X0075470Y0166831D01*
X0075615Y0166900D01*
X0075762Y0166966D01*
X0075910Y0167028D01*
X0076060Y0167086D01*
X0076211Y0167141D01*
X0076364Y0167192D01*
X0076518Y0167239D01*
X0076673Y0167282D01*
X0076829Y0167321D01*
X0076985Y0167357D01*
X0077143Y0167388D01*
X0077301Y0167416D01*
X0077460Y0167440D01*
X0077620Y0167460D01*
X0077780Y0167476D01*
X0077940Y0167488D01*
X0078101Y0167496D01*
X0078262Y0167500D01*
X0078422Y0167500D01*
X0078583Y0167496D01*
X0078744Y0167488D01*
X0078904Y0167476D01*
X0079064Y0167460D01*
X0079224Y0167440D01*
X0079383Y0167416D01*
X0079541Y0167388D01*
X0079699Y0167357D01*
X0079855Y0167321D01*
X0080011Y0167282D01*
X0080166Y0167239D01*
X0080320Y0167192D01*
X0080473Y0167141D01*
X0080624Y0167086D01*
X0080774Y0167028D01*
X0080922Y0166966D01*
X0081069Y0166900D01*
X0081214Y0166831D01*
X0081357Y0166758D01*
X0081499Y0166682D01*
X0081638Y0166602D01*
X0081776Y0166519D01*
X0081911Y0166432D01*
X0082045Y0166342D01*
X0082176Y0166249D01*
X0082304Y0166153D01*
X0082430Y0166053D01*
X0082554Y0165950D01*
X0082675Y0165845D01*
X0082794Y0165736D01*
X0082910Y0165625D01*
X0083023Y0165510D01*
X0083133Y0165393D01*
X0083240Y0165273D01*
X0083344Y0165151D01*
X0083445Y0165026D01*
X0083543Y0164898D01*
X0083638Y0164768D01*
X0083730Y0164636D01*
X0083818Y0164502D01*
X0083903Y0164365D01*
X0083985Y0164227D01*
X0084063Y0164086D01*
X0084137Y0163944D01*
X0084208Y0163800D01*
X0084276Y0163654D01*
X0084339Y0163506D01*
X0084400Y0163357D01*
X0084456Y0163206D01*
X0084509Y0163054D01*
X0084558Y0162901D01*
X0084603Y0162747D01*
X0084644Y0162592D01*
X0084682Y0162435D01*
X0084715Y0162278D01*
X0084745Y0162120D01*
X0084771Y0161961D01*
X0084792Y0161802D01*
X0084810Y0161642D01*
X0084824Y0161482D01*
X0084834Y0161321D01*
X0084840Y0161161D01*
X0084842Y0161000D01*
X0084840Y0160839D01*
X0084834Y0160679D01*
X0084824Y0160518D01*
X0084810Y0160358D01*
X0084792Y0160198D01*
X0084771Y0160039D01*
X0084745Y0159880D01*
X0084715Y0159722D01*
X0084682Y0159565D01*
X0084644Y0159408D01*
X0084603Y0159253D01*
X0084558Y0159099D01*
X0084509Y0158946D01*
X0084456Y0158794D01*
X0084400Y0158643D01*
X0084339Y0158494D01*
X0084276Y0158346D01*
X0084208Y0158200D01*
X0084137Y0158056D01*
X0084063Y0157914D01*
X0083985Y0157773D01*
X0083903Y0157635D01*
X0083818Y0157498D01*
X0083730Y0157364D01*
X0083638Y0157232D01*
X0083543Y0157102D01*
X0083445Y0156974D01*
X0083344Y0156849D01*
X0083240Y0156727D01*
X0083133Y0156607D01*
X0083023Y0156490D01*
X0082910Y0156375D01*
X0082794Y0156264D01*
X0082675Y0156155D01*
X0082554Y0156050D01*
X0082430Y0155947D01*
X0082304Y0155847D01*
X0082176Y0155751D01*
X0082045Y0155658D01*
X0081911Y0155568D01*
X0081776Y0155481D01*
X0081638Y0155398D01*
X0081499Y0155318D01*
X0081357Y0155242D01*
X0081214Y0155169D01*
X0081069Y0155100D01*
X0080922Y0155034D01*
X0080774Y0154972D01*
X0080624Y0154914D01*
X0080473Y0154859D01*
X0080320Y0154808D01*
X0080166Y0154761D01*
X0080011Y0154718D01*
X0079855Y0154679D01*
X0079699Y0154643D01*
X0079541Y0154612D01*
X0079383Y0154584D01*
X0079224Y0154560D01*
X0079064Y0154540D01*
X0078904Y0154524D01*
X0078744Y0154512D01*
X0078583Y0154504D01*
X0078422Y0154500D01*
X0078262Y0154500D01*
X0078101Y0154504D01*
X0077940Y0154512D01*
X0077780Y0154524D01*
X0077620Y0154540D01*
X0077460Y0154560D01*
X0077301Y0154584D01*
X0077143Y0154612D01*
X0076985Y0154643D01*
X0076829Y0154679D01*
X0076673Y0154718D01*
X0076518Y0154761D01*
X0076364Y0154808D01*
X0076211Y0154859D01*
X0076060Y0154914D01*
X0075910Y0154972D01*
X0075762Y0155034D01*
X0075615Y0155100D01*
X0075470Y0155169D01*
X0075327Y0155242D01*
X0075185Y0155318D01*
X0075046Y0155398D01*
X0074908Y0155481D01*
X0074773Y0155568D01*
X0074639Y0155658D01*
X0074508Y0155751D01*
X0074380Y0155847D01*
X0074254Y0155947D01*
X0074130Y0156050D01*
X0074009Y0156155D01*
X0073890Y0156264D01*
X0073774Y0156375D01*
X0073661Y0156490D01*
X0073551Y0156607D01*
X0073444Y0156727D01*
X0073340Y0156849D01*
X0073239Y0156974D01*
X0073141Y0157102D01*
X0073046Y0157232D01*
X0072954Y0157364D01*
X0072866Y0157498D01*
X0072781Y0157635D01*
X0072699Y0157773D01*
X0072621Y0157914D01*
X0072547Y0158056D01*
X0072476Y0158200D01*
X0072408Y0158346D01*
X0072345Y0158494D01*
X0072284Y0158643D01*
X0072228Y0158794D01*
X0072175Y0158946D01*
X0072126Y0159099D01*
X0072081Y0159253D01*
X0072040Y0159408D01*
X0072002Y0159565D01*
X0071969Y0159722D01*
X0071939Y0159880D01*
X0071913Y0160039D01*
X0071892Y0160198D01*
X0071874Y0160358D01*
X0071860Y0160518D01*
X0071850Y0160679D01*
X0071844Y0160839D01*
X0071842Y0161000D01*
X0071842Y0198000D02*
X0071844Y0198161D01*
X0071850Y0198321D01*
X0071860Y0198482D01*
X0071874Y0198642D01*
X0071892Y0198802D01*
X0071913Y0198961D01*
X0071939Y0199120D01*
X0071969Y0199278D01*
X0072002Y0199435D01*
X0072040Y0199592D01*
X0072081Y0199747D01*
X0072126Y0199901D01*
X0072175Y0200054D01*
X0072228Y0200206D01*
X0072284Y0200357D01*
X0072345Y0200506D01*
X0072408Y0200654D01*
X0072476Y0200800D01*
X0072547Y0200944D01*
X0072621Y0201086D01*
X0072699Y0201227D01*
X0072781Y0201365D01*
X0072866Y0201502D01*
X0072954Y0201636D01*
X0073046Y0201768D01*
X0073141Y0201898D01*
X0073239Y0202026D01*
X0073340Y0202151D01*
X0073444Y0202273D01*
X0073551Y0202393D01*
X0073661Y0202510D01*
X0073774Y0202625D01*
X0073890Y0202736D01*
X0074009Y0202845D01*
X0074130Y0202950D01*
X0074254Y0203053D01*
X0074380Y0203153D01*
X0074508Y0203249D01*
X0074639Y0203342D01*
X0074773Y0203432D01*
X0074908Y0203519D01*
X0075046Y0203602D01*
X0075185Y0203682D01*
X0075327Y0203758D01*
X0075470Y0203831D01*
X0075615Y0203900D01*
X0075762Y0203966D01*
X0075910Y0204028D01*
X0076060Y0204086D01*
X0076211Y0204141D01*
X0076364Y0204192D01*
X0076518Y0204239D01*
X0076673Y0204282D01*
X0076829Y0204321D01*
X0076985Y0204357D01*
X0077143Y0204388D01*
X0077301Y0204416D01*
X0077460Y0204440D01*
X0077620Y0204460D01*
X0077780Y0204476D01*
X0077940Y0204488D01*
X0078101Y0204496D01*
X0078262Y0204500D01*
X0078422Y0204500D01*
X0078583Y0204496D01*
X0078744Y0204488D01*
X0078904Y0204476D01*
X0079064Y0204460D01*
X0079224Y0204440D01*
X0079383Y0204416D01*
X0079541Y0204388D01*
X0079699Y0204357D01*
X0079855Y0204321D01*
X0080011Y0204282D01*
X0080166Y0204239D01*
X0080320Y0204192D01*
X0080473Y0204141D01*
X0080624Y0204086D01*
X0080774Y0204028D01*
X0080922Y0203966D01*
X0081069Y0203900D01*
X0081214Y0203831D01*
X0081357Y0203758D01*
X0081499Y0203682D01*
X0081638Y0203602D01*
X0081776Y0203519D01*
X0081911Y0203432D01*
X0082045Y0203342D01*
X0082176Y0203249D01*
X0082304Y0203153D01*
X0082430Y0203053D01*
X0082554Y0202950D01*
X0082675Y0202845D01*
X0082794Y0202736D01*
X0082910Y0202625D01*
X0083023Y0202510D01*
X0083133Y0202393D01*
X0083240Y0202273D01*
X0083344Y0202151D01*
X0083445Y0202026D01*
X0083543Y0201898D01*
X0083638Y0201768D01*
X0083730Y0201636D01*
X0083818Y0201502D01*
X0083903Y0201365D01*
X0083985Y0201227D01*
X0084063Y0201086D01*
X0084137Y0200944D01*
X0084208Y0200800D01*
X0084276Y0200654D01*
X0084339Y0200506D01*
X0084400Y0200357D01*
X0084456Y0200206D01*
X0084509Y0200054D01*
X0084558Y0199901D01*
X0084603Y0199747D01*
X0084644Y0199592D01*
X0084682Y0199435D01*
X0084715Y0199278D01*
X0084745Y0199120D01*
X0084771Y0198961D01*
X0084792Y0198802D01*
X0084810Y0198642D01*
X0084824Y0198482D01*
X0084834Y0198321D01*
X0084840Y0198161D01*
X0084842Y0198000D01*
X0084840Y0197839D01*
X0084834Y0197679D01*
X0084824Y0197518D01*
X0084810Y0197358D01*
X0084792Y0197198D01*
X0084771Y0197039D01*
X0084745Y0196880D01*
X0084715Y0196722D01*
X0084682Y0196565D01*
X0084644Y0196408D01*
X0084603Y0196253D01*
X0084558Y0196099D01*
X0084509Y0195946D01*
X0084456Y0195794D01*
X0084400Y0195643D01*
X0084339Y0195494D01*
X0084276Y0195346D01*
X0084208Y0195200D01*
X0084137Y0195056D01*
X0084063Y0194914D01*
X0083985Y0194773D01*
X0083903Y0194635D01*
X0083818Y0194498D01*
X0083730Y0194364D01*
X0083638Y0194232D01*
X0083543Y0194102D01*
X0083445Y0193974D01*
X0083344Y0193849D01*
X0083240Y0193727D01*
X0083133Y0193607D01*
X0083023Y0193490D01*
X0082910Y0193375D01*
X0082794Y0193264D01*
X0082675Y0193155D01*
X0082554Y0193050D01*
X0082430Y0192947D01*
X0082304Y0192847D01*
X0082176Y0192751D01*
X0082045Y0192658D01*
X0081911Y0192568D01*
X0081776Y0192481D01*
X0081638Y0192398D01*
X0081499Y0192318D01*
X0081357Y0192242D01*
X0081214Y0192169D01*
X0081069Y0192100D01*
X0080922Y0192034D01*
X0080774Y0191972D01*
X0080624Y0191914D01*
X0080473Y0191859D01*
X0080320Y0191808D01*
X0080166Y0191761D01*
X0080011Y0191718D01*
X0079855Y0191679D01*
X0079699Y0191643D01*
X0079541Y0191612D01*
X0079383Y0191584D01*
X0079224Y0191560D01*
X0079064Y0191540D01*
X0078904Y0191524D01*
X0078744Y0191512D01*
X0078583Y0191504D01*
X0078422Y0191500D01*
X0078262Y0191500D01*
X0078101Y0191504D01*
X0077940Y0191512D01*
X0077780Y0191524D01*
X0077620Y0191540D01*
X0077460Y0191560D01*
X0077301Y0191584D01*
X0077143Y0191612D01*
X0076985Y0191643D01*
X0076829Y0191679D01*
X0076673Y0191718D01*
X0076518Y0191761D01*
X0076364Y0191808D01*
X0076211Y0191859D01*
X0076060Y0191914D01*
X0075910Y0191972D01*
X0075762Y0192034D01*
X0075615Y0192100D01*
X0075470Y0192169D01*
X0075327Y0192242D01*
X0075185Y0192318D01*
X0075046Y0192398D01*
X0074908Y0192481D01*
X0074773Y0192568D01*
X0074639Y0192658D01*
X0074508Y0192751D01*
X0074380Y0192847D01*
X0074254Y0192947D01*
X0074130Y0193050D01*
X0074009Y0193155D01*
X0073890Y0193264D01*
X0073774Y0193375D01*
X0073661Y0193490D01*
X0073551Y0193607D01*
X0073444Y0193727D01*
X0073340Y0193849D01*
X0073239Y0193974D01*
X0073141Y0194102D01*
X0073046Y0194232D01*
X0072954Y0194364D01*
X0072866Y0194498D01*
X0072781Y0194635D01*
X0072699Y0194773D01*
X0072621Y0194914D01*
X0072547Y0195056D01*
X0072476Y0195200D01*
X0072408Y0195346D01*
X0072345Y0195494D01*
X0072284Y0195643D01*
X0072228Y0195794D01*
X0072175Y0195946D01*
X0072126Y0196099D01*
X0072081Y0196253D01*
X0072040Y0196408D01*
X0072002Y0196565D01*
X0071969Y0196722D01*
X0071939Y0196880D01*
X0071913Y0197039D01*
X0071892Y0197198D01*
X0071874Y0197358D01*
X0071860Y0197518D01*
X0071850Y0197679D01*
X0071844Y0197839D01*
X0071842Y0198000D01*
X0047436Y0292000D02*
X0047438Y0292153D01*
X0047444Y0292307D01*
X0047454Y0292460D01*
X0047468Y0292612D01*
X0047486Y0292765D01*
X0047508Y0292916D01*
X0047533Y0293067D01*
X0047563Y0293218D01*
X0047597Y0293368D01*
X0047634Y0293516D01*
X0047675Y0293664D01*
X0047720Y0293810D01*
X0047769Y0293956D01*
X0047822Y0294100D01*
X0047878Y0294242D01*
X0047938Y0294383D01*
X0048002Y0294523D01*
X0048069Y0294661D01*
X0048140Y0294797D01*
X0048215Y0294931D01*
X0048292Y0295063D01*
X0048374Y0295193D01*
X0048458Y0295321D01*
X0048546Y0295447D01*
X0048637Y0295570D01*
X0048731Y0295691D01*
X0048829Y0295809D01*
X0048929Y0295925D01*
X0049033Y0296038D01*
X0049139Y0296149D01*
X0049248Y0296257D01*
X0049360Y0296362D01*
X0049474Y0296463D01*
X0049592Y0296562D01*
X0049711Y0296658D01*
X0049833Y0296751D01*
X0049958Y0296840D01*
X0050085Y0296927D01*
X0050214Y0297009D01*
X0050345Y0297089D01*
X0050478Y0297165D01*
X0050613Y0297238D01*
X0050750Y0297307D01*
X0050889Y0297372D01*
X0051029Y0297434D01*
X0051171Y0297492D01*
X0051314Y0297547D01*
X0051459Y0297598D01*
X0051605Y0297645D01*
X0051752Y0297688D01*
X0051900Y0297727D01*
X0052049Y0297763D01*
X0052199Y0297794D01*
X0052350Y0297822D01*
X0052501Y0297846D01*
X0052654Y0297866D01*
X0052806Y0297882D01*
X0052959Y0297894D01*
X0053112Y0297902D01*
X0053265Y0297906D01*
X0053419Y0297906D01*
X0053572Y0297902D01*
X0053725Y0297894D01*
X0053878Y0297882D01*
X0054030Y0297866D01*
X0054183Y0297846D01*
X0054334Y0297822D01*
X0054485Y0297794D01*
X0054635Y0297763D01*
X0054784Y0297727D01*
X0054932Y0297688D01*
X0055079Y0297645D01*
X0055225Y0297598D01*
X0055370Y0297547D01*
X0055513Y0297492D01*
X0055655Y0297434D01*
X0055795Y0297372D01*
X0055934Y0297307D01*
X0056071Y0297238D01*
X0056206Y0297165D01*
X0056339Y0297089D01*
X0056470Y0297009D01*
X0056599Y0296927D01*
X0056726Y0296840D01*
X0056851Y0296751D01*
X0056973Y0296658D01*
X0057092Y0296562D01*
X0057210Y0296463D01*
X0057324Y0296362D01*
X0057436Y0296257D01*
X0057545Y0296149D01*
X0057651Y0296038D01*
X0057755Y0295925D01*
X0057855Y0295809D01*
X0057953Y0295691D01*
X0058047Y0295570D01*
X0058138Y0295447D01*
X0058226Y0295321D01*
X0058310Y0295193D01*
X0058392Y0295063D01*
X0058469Y0294931D01*
X0058544Y0294797D01*
X0058615Y0294661D01*
X0058682Y0294523D01*
X0058746Y0294383D01*
X0058806Y0294242D01*
X0058862Y0294100D01*
X0058915Y0293956D01*
X0058964Y0293810D01*
X0059009Y0293664D01*
X0059050Y0293516D01*
X0059087Y0293368D01*
X0059121Y0293218D01*
X0059151Y0293067D01*
X0059176Y0292916D01*
X0059198Y0292765D01*
X0059216Y0292612D01*
X0059230Y0292460D01*
X0059240Y0292307D01*
X0059246Y0292153D01*
X0059248Y0292000D01*
X0059246Y0291847D01*
X0059240Y0291693D01*
X0059230Y0291540D01*
X0059216Y0291388D01*
X0059198Y0291235D01*
X0059176Y0291084D01*
X0059151Y0290933D01*
X0059121Y0290782D01*
X0059087Y0290632D01*
X0059050Y0290484D01*
X0059009Y0290336D01*
X0058964Y0290190D01*
X0058915Y0290044D01*
X0058862Y0289900D01*
X0058806Y0289758D01*
X0058746Y0289617D01*
X0058682Y0289477D01*
X0058615Y0289339D01*
X0058544Y0289203D01*
X0058469Y0289069D01*
X0058392Y0288937D01*
X0058310Y0288807D01*
X0058226Y0288679D01*
X0058138Y0288553D01*
X0058047Y0288430D01*
X0057953Y0288309D01*
X0057855Y0288191D01*
X0057755Y0288075D01*
X0057651Y0287962D01*
X0057545Y0287851D01*
X0057436Y0287743D01*
X0057324Y0287638D01*
X0057210Y0287537D01*
X0057092Y0287438D01*
X0056973Y0287342D01*
X0056851Y0287249D01*
X0056726Y0287160D01*
X0056599Y0287073D01*
X0056470Y0286991D01*
X0056339Y0286911D01*
X0056206Y0286835D01*
X0056071Y0286762D01*
X0055934Y0286693D01*
X0055795Y0286628D01*
X0055655Y0286566D01*
X0055513Y0286508D01*
X0055370Y0286453D01*
X0055225Y0286402D01*
X0055079Y0286355D01*
X0054932Y0286312D01*
X0054784Y0286273D01*
X0054635Y0286237D01*
X0054485Y0286206D01*
X0054334Y0286178D01*
X0054183Y0286154D01*
X0054030Y0286134D01*
X0053878Y0286118D01*
X0053725Y0286106D01*
X0053572Y0286098D01*
X0053419Y0286094D01*
X0053265Y0286094D01*
X0053112Y0286098D01*
X0052959Y0286106D01*
X0052806Y0286118D01*
X0052654Y0286134D01*
X0052501Y0286154D01*
X0052350Y0286178D01*
X0052199Y0286206D01*
X0052049Y0286237D01*
X0051900Y0286273D01*
X0051752Y0286312D01*
X0051605Y0286355D01*
X0051459Y0286402D01*
X0051314Y0286453D01*
X0051171Y0286508D01*
X0051029Y0286566D01*
X0050889Y0286628D01*
X0050750Y0286693D01*
X0050613Y0286762D01*
X0050478Y0286835D01*
X0050345Y0286911D01*
X0050214Y0286991D01*
X0050085Y0287073D01*
X0049958Y0287160D01*
X0049833Y0287249D01*
X0049711Y0287342D01*
X0049592Y0287438D01*
X0049474Y0287537D01*
X0049360Y0287638D01*
X0049248Y0287743D01*
X0049139Y0287851D01*
X0049033Y0287962D01*
X0048929Y0288075D01*
X0048829Y0288191D01*
X0048731Y0288309D01*
X0048637Y0288430D01*
X0048546Y0288553D01*
X0048458Y0288679D01*
X0048374Y0288807D01*
X0048292Y0288937D01*
X0048215Y0289069D01*
X0048140Y0289203D01*
X0048069Y0289339D01*
X0048002Y0289477D01*
X0047938Y0289617D01*
X0047878Y0289758D01*
X0047822Y0289900D01*
X0047769Y0290044D01*
X0047720Y0290190D01*
X0047675Y0290336D01*
X0047634Y0290484D01*
X0047597Y0290632D01*
X0047563Y0290782D01*
X0047533Y0290933D01*
X0047508Y0291084D01*
X0047486Y0291235D01*
X0047468Y0291388D01*
X0047454Y0291540D01*
X0047444Y0291693D01*
X0047438Y0291847D01*
X0047436Y0292000D01*
X0367436Y0292000D02*
X0367438Y0292153D01*
X0367444Y0292307D01*
X0367454Y0292460D01*
X0367468Y0292612D01*
X0367486Y0292765D01*
X0367508Y0292916D01*
X0367533Y0293067D01*
X0367563Y0293218D01*
X0367597Y0293368D01*
X0367634Y0293516D01*
X0367675Y0293664D01*
X0367720Y0293810D01*
X0367769Y0293956D01*
X0367822Y0294100D01*
X0367878Y0294242D01*
X0367938Y0294383D01*
X0368002Y0294523D01*
X0368069Y0294661D01*
X0368140Y0294797D01*
X0368215Y0294931D01*
X0368292Y0295063D01*
X0368374Y0295193D01*
X0368458Y0295321D01*
X0368546Y0295447D01*
X0368637Y0295570D01*
X0368731Y0295691D01*
X0368829Y0295809D01*
X0368929Y0295925D01*
X0369033Y0296038D01*
X0369139Y0296149D01*
X0369248Y0296257D01*
X0369360Y0296362D01*
X0369474Y0296463D01*
X0369592Y0296562D01*
X0369711Y0296658D01*
X0369833Y0296751D01*
X0369958Y0296840D01*
X0370085Y0296927D01*
X0370214Y0297009D01*
X0370345Y0297089D01*
X0370478Y0297165D01*
X0370613Y0297238D01*
X0370750Y0297307D01*
X0370889Y0297372D01*
X0371029Y0297434D01*
X0371171Y0297492D01*
X0371314Y0297547D01*
X0371459Y0297598D01*
X0371605Y0297645D01*
X0371752Y0297688D01*
X0371900Y0297727D01*
X0372049Y0297763D01*
X0372199Y0297794D01*
X0372350Y0297822D01*
X0372501Y0297846D01*
X0372654Y0297866D01*
X0372806Y0297882D01*
X0372959Y0297894D01*
X0373112Y0297902D01*
X0373265Y0297906D01*
X0373419Y0297906D01*
X0373572Y0297902D01*
X0373725Y0297894D01*
X0373878Y0297882D01*
X0374030Y0297866D01*
X0374183Y0297846D01*
X0374334Y0297822D01*
X0374485Y0297794D01*
X0374635Y0297763D01*
X0374784Y0297727D01*
X0374932Y0297688D01*
X0375079Y0297645D01*
X0375225Y0297598D01*
X0375370Y0297547D01*
X0375513Y0297492D01*
X0375655Y0297434D01*
X0375795Y0297372D01*
X0375934Y0297307D01*
X0376071Y0297238D01*
X0376206Y0297165D01*
X0376339Y0297089D01*
X0376470Y0297009D01*
X0376599Y0296927D01*
X0376726Y0296840D01*
X0376851Y0296751D01*
X0376973Y0296658D01*
X0377092Y0296562D01*
X0377210Y0296463D01*
X0377324Y0296362D01*
X0377436Y0296257D01*
X0377545Y0296149D01*
X0377651Y0296038D01*
X0377755Y0295925D01*
X0377855Y0295809D01*
X0377953Y0295691D01*
X0378047Y0295570D01*
X0378138Y0295447D01*
X0378226Y0295321D01*
X0378310Y0295193D01*
X0378392Y0295063D01*
X0378469Y0294931D01*
X0378544Y0294797D01*
X0378615Y0294661D01*
X0378682Y0294523D01*
X0378746Y0294383D01*
X0378806Y0294242D01*
X0378862Y0294100D01*
X0378915Y0293956D01*
X0378964Y0293810D01*
X0379009Y0293664D01*
X0379050Y0293516D01*
X0379087Y0293368D01*
X0379121Y0293218D01*
X0379151Y0293067D01*
X0379176Y0292916D01*
X0379198Y0292765D01*
X0379216Y0292612D01*
X0379230Y0292460D01*
X0379240Y0292307D01*
X0379246Y0292153D01*
X0379248Y0292000D01*
X0379246Y0291847D01*
X0379240Y0291693D01*
X0379230Y0291540D01*
X0379216Y0291388D01*
X0379198Y0291235D01*
X0379176Y0291084D01*
X0379151Y0290933D01*
X0379121Y0290782D01*
X0379087Y0290632D01*
X0379050Y0290484D01*
X0379009Y0290336D01*
X0378964Y0290190D01*
X0378915Y0290044D01*
X0378862Y0289900D01*
X0378806Y0289758D01*
X0378746Y0289617D01*
X0378682Y0289477D01*
X0378615Y0289339D01*
X0378544Y0289203D01*
X0378469Y0289069D01*
X0378392Y0288937D01*
X0378310Y0288807D01*
X0378226Y0288679D01*
X0378138Y0288553D01*
X0378047Y0288430D01*
X0377953Y0288309D01*
X0377855Y0288191D01*
X0377755Y0288075D01*
X0377651Y0287962D01*
X0377545Y0287851D01*
X0377436Y0287743D01*
X0377324Y0287638D01*
X0377210Y0287537D01*
X0377092Y0287438D01*
X0376973Y0287342D01*
X0376851Y0287249D01*
X0376726Y0287160D01*
X0376599Y0287073D01*
X0376470Y0286991D01*
X0376339Y0286911D01*
X0376206Y0286835D01*
X0376071Y0286762D01*
X0375934Y0286693D01*
X0375795Y0286628D01*
X0375655Y0286566D01*
X0375513Y0286508D01*
X0375370Y0286453D01*
X0375225Y0286402D01*
X0375079Y0286355D01*
X0374932Y0286312D01*
X0374784Y0286273D01*
X0374635Y0286237D01*
X0374485Y0286206D01*
X0374334Y0286178D01*
X0374183Y0286154D01*
X0374030Y0286134D01*
X0373878Y0286118D01*
X0373725Y0286106D01*
X0373572Y0286098D01*
X0373419Y0286094D01*
X0373265Y0286094D01*
X0373112Y0286098D01*
X0372959Y0286106D01*
X0372806Y0286118D01*
X0372654Y0286134D01*
X0372501Y0286154D01*
X0372350Y0286178D01*
X0372199Y0286206D01*
X0372049Y0286237D01*
X0371900Y0286273D01*
X0371752Y0286312D01*
X0371605Y0286355D01*
X0371459Y0286402D01*
X0371314Y0286453D01*
X0371171Y0286508D01*
X0371029Y0286566D01*
X0370889Y0286628D01*
X0370750Y0286693D01*
X0370613Y0286762D01*
X0370478Y0286835D01*
X0370345Y0286911D01*
X0370214Y0286991D01*
X0370085Y0287073D01*
X0369958Y0287160D01*
X0369833Y0287249D01*
X0369711Y0287342D01*
X0369592Y0287438D01*
X0369474Y0287537D01*
X0369360Y0287638D01*
X0369248Y0287743D01*
X0369139Y0287851D01*
X0369033Y0287962D01*
X0368929Y0288075D01*
X0368829Y0288191D01*
X0368731Y0288309D01*
X0368637Y0288430D01*
X0368546Y0288553D01*
X0368458Y0288679D01*
X0368374Y0288807D01*
X0368292Y0288937D01*
X0368215Y0289069D01*
X0368140Y0289203D01*
X0368069Y0289339D01*
X0368002Y0289477D01*
X0367938Y0289617D01*
X0367878Y0289758D01*
X0367822Y0289900D01*
X0367769Y0290044D01*
X0367720Y0290190D01*
X0367675Y0290336D01*
X0367634Y0290484D01*
X0367597Y0290632D01*
X0367563Y0290782D01*
X0367533Y0290933D01*
X0367508Y0291084D01*
X0367486Y0291235D01*
X0367468Y0291388D01*
X0367454Y0291540D01*
X0367444Y0291693D01*
X0367438Y0291847D01*
X0367436Y0292000D01*
X0367436Y0017000D02*
X0367438Y0017153D01*
X0367444Y0017307D01*
X0367454Y0017460D01*
X0367468Y0017612D01*
X0367486Y0017765D01*
X0367508Y0017916D01*
X0367533Y0018067D01*
X0367563Y0018218D01*
X0367597Y0018368D01*
X0367634Y0018516D01*
X0367675Y0018664D01*
X0367720Y0018810D01*
X0367769Y0018956D01*
X0367822Y0019100D01*
X0367878Y0019242D01*
X0367938Y0019383D01*
X0368002Y0019523D01*
X0368069Y0019661D01*
X0368140Y0019797D01*
X0368215Y0019931D01*
X0368292Y0020063D01*
X0368374Y0020193D01*
X0368458Y0020321D01*
X0368546Y0020447D01*
X0368637Y0020570D01*
X0368731Y0020691D01*
X0368829Y0020809D01*
X0368929Y0020925D01*
X0369033Y0021038D01*
X0369139Y0021149D01*
X0369248Y0021257D01*
X0369360Y0021362D01*
X0369474Y0021463D01*
X0369592Y0021562D01*
X0369711Y0021658D01*
X0369833Y0021751D01*
X0369958Y0021840D01*
X0370085Y0021927D01*
X0370214Y0022009D01*
X0370345Y0022089D01*
X0370478Y0022165D01*
X0370613Y0022238D01*
X0370750Y0022307D01*
X0370889Y0022372D01*
X0371029Y0022434D01*
X0371171Y0022492D01*
X0371314Y0022547D01*
X0371459Y0022598D01*
X0371605Y0022645D01*
X0371752Y0022688D01*
X0371900Y0022727D01*
X0372049Y0022763D01*
X0372199Y0022794D01*
X0372350Y0022822D01*
X0372501Y0022846D01*
X0372654Y0022866D01*
X0372806Y0022882D01*
X0372959Y0022894D01*
X0373112Y0022902D01*
X0373265Y0022906D01*
X0373419Y0022906D01*
X0373572Y0022902D01*
X0373725Y0022894D01*
X0373878Y0022882D01*
X0374030Y0022866D01*
X0374183Y0022846D01*
X0374334Y0022822D01*
X0374485Y0022794D01*
X0374635Y0022763D01*
X0374784Y0022727D01*
X0374932Y0022688D01*
X0375079Y0022645D01*
X0375225Y0022598D01*
X0375370Y0022547D01*
X0375513Y0022492D01*
X0375655Y0022434D01*
X0375795Y0022372D01*
X0375934Y0022307D01*
X0376071Y0022238D01*
X0376206Y0022165D01*
X0376339Y0022089D01*
X0376470Y0022009D01*
X0376599Y0021927D01*
X0376726Y0021840D01*
X0376851Y0021751D01*
X0376973Y0021658D01*
X0377092Y0021562D01*
X0377210Y0021463D01*
X0377324Y0021362D01*
X0377436Y0021257D01*
X0377545Y0021149D01*
X0377651Y0021038D01*
X0377755Y0020925D01*
X0377855Y0020809D01*
X0377953Y0020691D01*
X0378047Y0020570D01*
X0378138Y0020447D01*
X0378226Y0020321D01*
X0378310Y0020193D01*
X0378392Y0020063D01*
X0378469Y0019931D01*
X0378544Y0019797D01*
X0378615Y0019661D01*
X0378682Y0019523D01*
X0378746Y0019383D01*
X0378806Y0019242D01*
X0378862Y0019100D01*
X0378915Y0018956D01*
X0378964Y0018810D01*
X0379009Y0018664D01*
X0379050Y0018516D01*
X0379087Y0018368D01*
X0379121Y0018218D01*
X0379151Y0018067D01*
X0379176Y0017916D01*
X0379198Y0017765D01*
X0379216Y0017612D01*
X0379230Y0017460D01*
X0379240Y0017307D01*
X0379246Y0017153D01*
X0379248Y0017000D01*
X0379246Y0016847D01*
X0379240Y0016693D01*
X0379230Y0016540D01*
X0379216Y0016388D01*
X0379198Y0016235D01*
X0379176Y0016084D01*
X0379151Y0015933D01*
X0379121Y0015782D01*
X0379087Y0015632D01*
X0379050Y0015484D01*
X0379009Y0015336D01*
X0378964Y0015190D01*
X0378915Y0015044D01*
X0378862Y0014900D01*
X0378806Y0014758D01*
X0378746Y0014617D01*
X0378682Y0014477D01*
X0378615Y0014339D01*
X0378544Y0014203D01*
X0378469Y0014069D01*
X0378392Y0013937D01*
X0378310Y0013807D01*
X0378226Y0013679D01*
X0378138Y0013553D01*
X0378047Y0013430D01*
X0377953Y0013309D01*
X0377855Y0013191D01*
X0377755Y0013075D01*
X0377651Y0012962D01*
X0377545Y0012851D01*
X0377436Y0012743D01*
X0377324Y0012638D01*
X0377210Y0012537D01*
X0377092Y0012438D01*
X0376973Y0012342D01*
X0376851Y0012249D01*
X0376726Y0012160D01*
X0376599Y0012073D01*
X0376470Y0011991D01*
X0376339Y0011911D01*
X0376206Y0011835D01*
X0376071Y0011762D01*
X0375934Y0011693D01*
X0375795Y0011628D01*
X0375655Y0011566D01*
X0375513Y0011508D01*
X0375370Y0011453D01*
X0375225Y0011402D01*
X0375079Y0011355D01*
X0374932Y0011312D01*
X0374784Y0011273D01*
X0374635Y0011237D01*
X0374485Y0011206D01*
X0374334Y0011178D01*
X0374183Y0011154D01*
X0374030Y0011134D01*
X0373878Y0011118D01*
X0373725Y0011106D01*
X0373572Y0011098D01*
X0373419Y0011094D01*
X0373265Y0011094D01*
X0373112Y0011098D01*
X0372959Y0011106D01*
X0372806Y0011118D01*
X0372654Y0011134D01*
X0372501Y0011154D01*
X0372350Y0011178D01*
X0372199Y0011206D01*
X0372049Y0011237D01*
X0371900Y0011273D01*
X0371752Y0011312D01*
X0371605Y0011355D01*
X0371459Y0011402D01*
X0371314Y0011453D01*
X0371171Y0011508D01*
X0371029Y0011566D01*
X0370889Y0011628D01*
X0370750Y0011693D01*
X0370613Y0011762D01*
X0370478Y0011835D01*
X0370345Y0011911D01*
X0370214Y0011991D01*
X0370085Y0012073D01*
X0369958Y0012160D01*
X0369833Y0012249D01*
X0369711Y0012342D01*
X0369592Y0012438D01*
X0369474Y0012537D01*
X0369360Y0012638D01*
X0369248Y0012743D01*
X0369139Y0012851D01*
X0369033Y0012962D01*
X0368929Y0013075D01*
X0368829Y0013191D01*
X0368731Y0013309D01*
X0368637Y0013430D01*
X0368546Y0013553D01*
X0368458Y0013679D01*
X0368374Y0013807D01*
X0368292Y0013937D01*
X0368215Y0014069D01*
X0368140Y0014203D01*
X0368069Y0014339D01*
X0368002Y0014477D01*
X0367938Y0014617D01*
X0367878Y0014758D01*
X0367822Y0014900D01*
X0367769Y0015044D01*
X0367720Y0015190D01*
X0367675Y0015336D01*
X0367634Y0015484D01*
X0367597Y0015632D01*
X0367563Y0015782D01*
X0367533Y0015933D01*
X0367508Y0016084D01*
X0367486Y0016235D01*
X0367468Y0016388D01*
X0367454Y0016540D01*
X0367444Y0016693D01*
X0367438Y0016847D01*
X0367436Y0017000D01*
D11*
X0038342Y0002000D02*
X0005665Y0002000D01*
X0013342Y0002256D02*
X0014365Y0012236D01*
X0014599Y0012236D02*
X0013342Y0002256D01*
X0012318Y0012236D01*
X0012085Y0012236D02*
X0014599Y0012236D01*
X0013854Y0012236D02*
X0013342Y0002256D01*
X0012830Y0012236D01*
X0012085Y0012236D02*
X0013342Y0002256D01*
X0013342Y0306744D01*
X0014365Y0296764D01*
X0014599Y0296764D02*
X0013342Y0306744D01*
X0012318Y0296764D01*
X0012085Y0296764D02*
X0014599Y0296764D01*
X0013854Y0296764D02*
X0013342Y0306744D01*
X0012830Y0296764D01*
X0012085Y0296764D02*
X0013342Y0306744D01*
X0005665Y0307000D02*
X0038342Y0307000D01*
X0038342Y0334677D01*
X0038598Y0327000D02*
X0048578Y0325976D01*
X0048578Y0325743D02*
X0038598Y0327000D01*
X0048578Y0328024D01*
X0048578Y0328257D02*
X0048578Y0325743D01*
X0048578Y0326488D02*
X0038598Y0327000D01*
X0048578Y0327512D01*
X0048578Y0328257D02*
X0038598Y0327000D01*
X0388086Y0327000D01*
X0378106Y0325976D01*
X0378106Y0325743D02*
X0388086Y0327000D01*
X0378106Y0328024D01*
X0378106Y0328257D02*
X0378106Y0325743D01*
X0378106Y0326488D02*
X0388086Y0327000D01*
X0378106Y0327512D01*
X0378106Y0328257D02*
X0388086Y0327000D01*
X0388342Y0334677D02*
X0388342Y0307000D01*
D12*
X0222571Y0330451D02*
X0222511Y0330578D01*
X0222455Y0330707D01*
X0222402Y0330837D01*
X0222352Y0330969D01*
X0222306Y0331102D01*
X0222264Y0331236D01*
X0222225Y0331371D01*
X0222189Y0331508D01*
X0222158Y0331645D01*
X0222130Y0331783D01*
X0222105Y0331921D01*
X0222085Y0332060D01*
X0222068Y0332200D01*
X0222055Y0332340D01*
X0222046Y0332481D01*
X0222040Y0332621D01*
X0222038Y0332762D01*
X0225593Y0332762D02*
X0225591Y0332903D01*
X0225585Y0333043D01*
X0225576Y0333184D01*
X0225563Y0333324D01*
X0225546Y0333464D01*
X0225526Y0333603D01*
X0225501Y0333741D01*
X0225473Y0333879D01*
X0225442Y0334016D01*
X0225406Y0334153D01*
X0225367Y0334288D01*
X0225325Y0334422D01*
X0225279Y0334555D01*
X0225229Y0334687D01*
X0225176Y0334817D01*
X0225120Y0334946D01*
X0225060Y0335073D01*
X0225238Y0334540D02*
X0222393Y0330984D01*
X0223815Y0329561D02*
X0223886Y0329563D01*
X0223957Y0329569D01*
X0224027Y0329578D01*
X0224097Y0329592D01*
X0224166Y0329609D01*
X0224233Y0329629D01*
X0224300Y0329654D01*
X0224365Y0329682D01*
X0224429Y0329713D01*
X0224491Y0329748D01*
X0224551Y0329786D01*
X0224608Y0329827D01*
X0224664Y0329871D01*
X0224717Y0329919D01*
X0224767Y0329969D01*
X0224815Y0330021D01*
X0224860Y0330076D01*
X0224901Y0330134D01*
X0224940Y0330194D01*
X0224975Y0330255D01*
X0225007Y0330319D01*
X0225035Y0330384D01*
X0225060Y0330450D01*
X0223815Y0329561D02*
X0223744Y0329563D01*
X0223673Y0329569D01*
X0223603Y0329578D01*
X0223533Y0329592D01*
X0223464Y0329609D01*
X0223397Y0329629D01*
X0223330Y0329654D01*
X0223265Y0329682D01*
X0223201Y0329713D01*
X0223139Y0329748D01*
X0223079Y0329786D01*
X0223021Y0329827D01*
X0222966Y0329871D01*
X0222913Y0329919D01*
X0222863Y0329969D01*
X0222815Y0330021D01*
X0222770Y0330076D01*
X0222729Y0330134D01*
X0222690Y0330194D01*
X0222655Y0330255D01*
X0222623Y0330319D01*
X0222595Y0330384D01*
X0222570Y0330450D01*
X0225060Y0330451D02*
X0225120Y0330578D01*
X0225176Y0330707D01*
X0225229Y0330837D01*
X0225279Y0330969D01*
X0225325Y0331102D01*
X0225367Y0331236D01*
X0225406Y0331371D01*
X0225442Y0331508D01*
X0225473Y0331645D01*
X0225501Y0331783D01*
X0225526Y0331921D01*
X0225546Y0332060D01*
X0225563Y0332200D01*
X0225576Y0332340D01*
X0225585Y0332481D01*
X0225591Y0332621D01*
X0225593Y0332762D01*
X0222038Y0332762D02*
X0222040Y0332903D01*
X0222046Y0333043D01*
X0222055Y0333184D01*
X0222068Y0333324D01*
X0222085Y0333464D01*
X0222105Y0333603D01*
X0222130Y0333741D01*
X0222158Y0333879D01*
X0222189Y0334016D01*
X0222225Y0334153D01*
X0222264Y0334288D01*
X0222306Y0334422D01*
X0222352Y0334555D01*
X0222402Y0334687D01*
X0222455Y0334817D01*
X0222511Y0334946D01*
X0222571Y0335073D01*
X0222570Y0335073D02*
X0222595Y0335139D01*
X0222623Y0335204D01*
X0222655Y0335268D01*
X0222690Y0335329D01*
X0222729Y0335389D01*
X0222770Y0335447D01*
X0222815Y0335502D01*
X0222863Y0335554D01*
X0222913Y0335604D01*
X0222966Y0335652D01*
X0223021Y0335696D01*
X0223079Y0335737D01*
X0223139Y0335775D01*
X0223201Y0335810D01*
X0223265Y0335841D01*
X0223330Y0335869D01*
X0223397Y0335894D01*
X0223464Y0335914D01*
X0223533Y0335931D01*
X0223603Y0335945D01*
X0223673Y0335954D01*
X0223744Y0335960D01*
X0223815Y0335962D01*
X0223886Y0335960D01*
X0223957Y0335954D01*
X0224027Y0335945D01*
X0224097Y0335931D01*
X0224166Y0335914D01*
X0224233Y0335894D01*
X0224300Y0335869D01*
X0224365Y0335841D01*
X0224429Y0335810D01*
X0224491Y0335775D01*
X0224551Y0335737D01*
X0224609Y0335696D01*
X0224664Y0335652D01*
X0224717Y0335604D01*
X0224767Y0335554D01*
X0224815Y0335502D01*
X0224860Y0335447D01*
X0224901Y0335389D01*
X0224940Y0335329D01*
X0224975Y0335268D01*
X0225007Y0335204D01*
X0225035Y0335139D01*
X0225060Y0335073D01*
X0219439Y0334184D02*
X0219439Y0332406D01*
X0217306Y0332406D01*
X0219439Y0332406D02*
X0219437Y0332302D01*
X0219431Y0332198D01*
X0219422Y0332095D01*
X0219409Y0331992D01*
X0219392Y0331889D01*
X0219371Y0331788D01*
X0219347Y0331687D01*
X0219318Y0331587D01*
X0219287Y0331488D01*
X0219251Y0331390D01*
X0219212Y0331294D01*
X0219170Y0331199D01*
X0219124Y0331106D01*
X0219075Y0331014D01*
X0219023Y0330924D01*
X0218967Y0330837D01*
X0218908Y0330751D01*
X0218846Y0330668D01*
X0218781Y0330587D01*
X0218713Y0330508D01*
X0218642Y0330432D01*
X0218569Y0330359D01*
X0218493Y0330288D01*
X0218414Y0330220D01*
X0218333Y0330155D01*
X0218250Y0330093D01*
X0218164Y0330034D01*
X0218077Y0329978D01*
X0217987Y0329926D01*
X0217895Y0329877D01*
X0217802Y0329831D01*
X0217707Y0329789D01*
X0217611Y0329750D01*
X0217513Y0329714D01*
X0217414Y0329683D01*
X0217314Y0329654D01*
X0217213Y0329630D01*
X0217112Y0329609D01*
X0217009Y0329592D01*
X0216906Y0329579D01*
X0216803Y0329570D01*
X0216699Y0329564D01*
X0216595Y0329562D01*
X0213531Y0329562D02*
X0213176Y0329562D01*
X0213176Y0329917D01*
X0213531Y0329917D01*
X0213531Y0329562D01*
X0210824Y0331340D02*
X0210822Y0331257D01*
X0210816Y0331174D01*
X0210806Y0331091D01*
X0210793Y0331008D01*
X0210775Y0330927D01*
X0210754Y0330846D01*
X0210729Y0330767D01*
X0210700Y0330689D01*
X0210668Y0330612D01*
X0210632Y0330537D01*
X0210593Y0330463D01*
X0210550Y0330392D01*
X0210504Y0330322D01*
X0210454Y0330255D01*
X0210402Y0330190D01*
X0210347Y0330128D01*
X0210288Y0330068D01*
X0210227Y0330011D01*
X0210164Y0329957D01*
X0210098Y0329906D01*
X0210029Y0329859D01*
X0209959Y0329814D01*
X0209886Y0329773D01*
X0209812Y0329736D01*
X0209736Y0329701D01*
X0209658Y0329671D01*
X0209580Y0329644D01*
X0209499Y0329621D01*
X0209418Y0329601D01*
X0209336Y0329586D01*
X0209254Y0329574D01*
X0209171Y0329566D01*
X0209088Y0329562D01*
X0209004Y0329562D01*
X0208921Y0329566D01*
X0208838Y0329574D01*
X0208756Y0329586D01*
X0208674Y0329601D01*
X0208593Y0329621D01*
X0208512Y0329644D01*
X0208434Y0329671D01*
X0208356Y0329701D01*
X0208280Y0329736D01*
X0208206Y0329773D01*
X0208133Y0329814D01*
X0208063Y0329859D01*
X0207994Y0329906D01*
X0207928Y0329957D01*
X0207865Y0330011D01*
X0207804Y0330068D01*
X0207745Y0330128D01*
X0207690Y0330190D01*
X0207638Y0330255D01*
X0207588Y0330322D01*
X0207542Y0330392D01*
X0207499Y0330463D01*
X0207460Y0330537D01*
X0207424Y0330612D01*
X0207392Y0330689D01*
X0207363Y0330767D01*
X0207338Y0330846D01*
X0207317Y0330927D01*
X0207299Y0331008D01*
X0207286Y0331091D01*
X0207276Y0331174D01*
X0207270Y0331257D01*
X0207268Y0331340D01*
X0207270Y0331423D01*
X0207276Y0331506D01*
X0207286Y0331589D01*
X0207299Y0331672D01*
X0207317Y0331753D01*
X0207338Y0331834D01*
X0207363Y0331913D01*
X0207392Y0331991D01*
X0207424Y0332068D01*
X0207460Y0332143D01*
X0207499Y0332217D01*
X0207542Y0332288D01*
X0207588Y0332358D01*
X0207638Y0332425D01*
X0207690Y0332490D01*
X0207745Y0332552D01*
X0207804Y0332612D01*
X0207865Y0332669D01*
X0207928Y0332723D01*
X0207994Y0332774D01*
X0208063Y0332821D01*
X0208133Y0332866D01*
X0208206Y0332907D01*
X0208280Y0332944D01*
X0208356Y0332979D01*
X0208434Y0333009D01*
X0208512Y0333036D01*
X0208593Y0333059D01*
X0208674Y0333079D01*
X0208756Y0333094D01*
X0208838Y0333106D01*
X0208921Y0333114D01*
X0209004Y0333118D01*
X0209088Y0333118D01*
X0209171Y0333114D01*
X0209254Y0333106D01*
X0209336Y0333094D01*
X0209418Y0333079D01*
X0209499Y0333059D01*
X0209580Y0333036D01*
X0209658Y0333009D01*
X0209736Y0332979D01*
X0209812Y0332944D01*
X0209886Y0332907D01*
X0209959Y0332866D01*
X0210029Y0332821D01*
X0210098Y0332774D01*
X0210164Y0332723D01*
X0210227Y0332669D01*
X0210288Y0332612D01*
X0210347Y0332552D01*
X0210402Y0332490D01*
X0210454Y0332425D01*
X0210504Y0332358D01*
X0210550Y0332288D01*
X0210593Y0332217D01*
X0210632Y0332143D01*
X0210668Y0332068D01*
X0210700Y0331991D01*
X0210729Y0331913D01*
X0210754Y0331834D01*
X0210775Y0331753D01*
X0210793Y0331672D01*
X0210806Y0331589D01*
X0210816Y0331506D01*
X0210822Y0331423D01*
X0210824Y0331340D01*
X0210468Y0334540D02*
X0210466Y0334466D01*
X0210460Y0334391D01*
X0210450Y0334318D01*
X0210437Y0334244D01*
X0210420Y0334172D01*
X0210398Y0334101D01*
X0210374Y0334030D01*
X0210345Y0333962D01*
X0210313Y0333894D01*
X0210277Y0333829D01*
X0210239Y0333766D01*
X0210196Y0333704D01*
X0210151Y0333645D01*
X0210103Y0333588D01*
X0210052Y0333534D01*
X0209998Y0333483D01*
X0209941Y0333435D01*
X0209882Y0333390D01*
X0209820Y0333347D01*
X0209757Y0333309D01*
X0209692Y0333273D01*
X0209624Y0333241D01*
X0209556Y0333212D01*
X0209485Y0333188D01*
X0209414Y0333166D01*
X0209342Y0333149D01*
X0209268Y0333136D01*
X0209195Y0333126D01*
X0209120Y0333120D01*
X0209046Y0333118D01*
X0208972Y0333120D01*
X0208897Y0333126D01*
X0208824Y0333136D01*
X0208750Y0333149D01*
X0208678Y0333166D01*
X0208607Y0333188D01*
X0208536Y0333212D01*
X0208468Y0333241D01*
X0208400Y0333273D01*
X0208335Y0333309D01*
X0208272Y0333347D01*
X0208210Y0333390D01*
X0208151Y0333435D01*
X0208094Y0333483D01*
X0208040Y0333534D01*
X0207989Y0333588D01*
X0207941Y0333645D01*
X0207896Y0333704D01*
X0207853Y0333766D01*
X0207815Y0333829D01*
X0207779Y0333894D01*
X0207747Y0333962D01*
X0207718Y0334030D01*
X0207694Y0334101D01*
X0207672Y0334172D01*
X0207655Y0334244D01*
X0207642Y0334318D01*
X0207632Y0334391D01*
X0207626Y0334466D01*
X0207624Y0334540D01*
X0207626Y0334614D01*
X0207632Y0334689D01*
X0207642Y0334762D01*
X0207655Y0334836D01*
X0207672Y0334908D01*
X0207694Y0334979D01*
X0207718Y0335050D01*
X0207747Y0335118D01*
X0207779Y0335186D01*
X0207815Y0335251D01*
X0207853Y0335314D01*
X0207896Y0335376D01*
X0207941Y0335435D01*
X0207989Y0335492D01*
X0208040Y0335546D01*
X0208094Y0335597D01*
X0208151Y0335645D01*
X0208210Y0335690D01*
X0208272Y0335733D01*
X0208335Y0335771D01*
X0208400Y0335807D01*
X0208468Y0335839D01*
X0208536Y0335868D01*
X0208607Y0335892D01*
X0208678Y0335914D01*
X0208750Y0335931D01*
X0208824Y0335944D01*
X0208897Y0335954D01*
X0208972Y0335960D01*
X0209046Y0335962D01*
X0209120Y0335960D01*
X0209195Y0335954D01*
X0209268Y0335944D01*
X0209342Y0335931D01*
X0209414Y0335914D01*
X0209485Y0335892D01*
X0209556Y0335868D01*
X0209624Y0335839D01*
X0209692Y0335807D01*
X0209757Y0335771D01*
X0209820Y0335733D01*
X0209882Y0335690D01*
X0209941Y0335645D01*
X0209998Y0335597D01*
X0210052Y0335546D01*
X0210103Y0335492D01*
X0210151Y0335435D01*
X0210196Y0335376D01*
X0210239Y0335314D01*
X0210277Y0335251D01*
X0210313Y0335186D01*
X0210345Y0335118D01*
X0210374Y0335050D01*
X0210398Y0334979D01*
X0210420Y0334908D01*
X0210437Y0334836D01*
X0210450Y0334762D01*
X0210460Y0334689D01*
X0210466Y0334614D01*
X0210468Y0334540D01*
X0215884Y0334184D02*
X0215884Y0333828D01*
X0215886Y0333754D01*
X0215892Y0333679D01*
X0215902Y0333606D01*
X0215915Y0333532D01*
X0215932Y0333460D01*
X0215954Y0333389D01*
X0215978Y0333318D01*
X0216007Y0333250D01*
X0216039Y0333182D01*
X0216075Y0333117D01*
X0216113Y0333054D01*
X0216156Y0332992D01*
X0216201Y0332933D01*
X0216249Y0332876D01*
X0216300Y0332822D01*
X0216354Y0332771D01*
X0216411Y0332723D01*
X0216470Y0332678D01*
X0216532Y0332635D01*
X0216595Y0332597D01*
X0216660Y0332561D01*
X0216728Y0332529D01*
X0216796Y0332500D01*
X0216867Y0332476D01*
X0216938Y0332454D01*
X0217010Y0332437D01*
X0217084Y0332424D01*
X0217157Y0332414D01*
X0217232Y0332408D01*
X0217306Y0332406D01*
X0215883Y0334184D02*
X0215885Y0334267D01*
X0215891Y0334350D01*
X0215901Y0334433D01*
X0215914Y0334516D01*
X0215932Y0334597D01*
X0215953Y0334678D01*
X0215978Y0334757D01*
X0216007Y0334835D01*
X0216039Y0334912D01*
X0216075Y0334987D01*
X0216114Y0335061D01*
X0216157Y0335132D01*
X0216203Y0335202D01*
X0216253Y0335269D01*
X0216305Y0335334D01*
X0216360Y0335396D01*
X0216419Y0335456D01*
X0216480Y0335513D01*
X0216543Y0335567D01*
X0216609Y0335618D01*
X0216678Y0335665D01*
X0216748Y0335710D01*
X0216821Y0335751D01*
X0216895Y0335788D01*
X0216971Y0335823D01*
X0217049Y0335853D01*
X0217127Y0335880D01*
X0217208Y0335903D01*
X0217289Y0335923D01*
X0217371Y0335938D01*
X0217453Y0335950D01*
X0217536Y0335958D01*
X0217619Y0335962D01*
X0217703Y0335962D01*
X0217786Y0335958D01*
X0217869Y0335950D01*
X0217951Y0335938D01*
X0218033Y0335923D01*
X0218114Y0335903D01*
X0218195Y0335880D01*
X0218273Y0335853D01*
X0218351Y0335823D01*
X0218427Y0335788D01*
X0218501Y0335751D01*
X0218574Y0335710D01*
X0218644Y0335665D01*
X0218713Y0335618D01*
X0218779Y0335567D01*
X0218842Y0335513D01*
X0218903Y0335456D01*
X0218962Y0335396D01*
X0219017Y0335334D01*
X0219069Y0335269D01*
X0219119Y0335202D01*
X0219165Y0335132D01*
X0219208Y0335061D01*
X0219247Y0334987D01*
X0219283Y0334912D01*
X0219315Y0334835D01*
X0219344Y0334757D01*
X0219369Y0334678D01*
X0219390Y0334597D01*
X0219408Y0334516D01*
X0219421Y0334433D01*
X0219431Y0334350D01*
X0219437Y0334267D01*
X0219439Y0334184D01*
X0204314Y0334540D02*
X0204312Y0334466D01*
X0204306Y0334391D01*
X0204296Y0334318D01*
X0204283Y0334244D01*
X0204266Y0334172D01*
X0204244Y0334101D01*
X0204220Y0334030D01*
X0204191Y0333962D01*
X0204159Y0333894D01*
X0204123Y0333829D01*
X0204085Y0333766D01*
X0204042Y0333704D01*
X0203997Y0333645D01*
X0203949Y0333588D01*
X0203898Y0333534D01*
X0203844Y0333483D01*
X0203787Y0333435D01*
X0203728Y0333390D01*
X0203666Y0333347D01*
X0203603Y0333309D01*
X0203538Y0333273D01*
X0203470Y0333241D01*
X0203402Y0333212D01*
X0203331Y0333188D01*
X0203260Y0333166D01*
X0203188Y0333149D01*
X0203114Y0333136D01*
X0203041Y0333126D01*
X0202966Y0333120D01*
X0202892Y0333118D01*
X0202818Y0333120D01*
X0202743Y0333126D01*
X0202670Y0333136D01*
X0202596Y0333149D01*
X0202524Y0333166D01*
X0202453Y0333188D01*
X0202382Y0333212D01*
X0202314Y0333241D01*
X0202246Y0333273D01*
X0202181Y0333309D01*
X0202118Y0333347D01*
X0202056Y0333390D01*
X0201997Y0333435D01*
X0201940Y0333483D01*
X0201886Y0333534D01*
X0201835Y0333588D01*
X0201787Y0333645D01*
X0201742Y0333704D01*
X0201699Y0333766D01*
X0201661Y0333829D01*
X0201625Y0333894D01*
X0201593Y0333962D01*
X0201564Y0334030D01*
X0201540Y0334101D01*
X0201518Y0334172D01*
X0201501Y0334244D01*
X0201488Y0334318D01*
X0201478Y0334391D01*
X0201472Y0334466D01*
X0201470Y0334540D01*
X0201472Y0334614D01*
X0201478Y0334689D01*
X0201488Y0334762D01*
X0201501Y0334836D01*
X0201518Y0334908D01*
X0201540Y0334979D01*
X0201564Y0335050D01*
X0201593Y0335118D01*
X0201625Y0335186D01*
X0201661Y0335251D01*
X0201699Y0335314D01*
X0201742Y0335376D01*
X0201787Y0335435D01*
X0201835Y0335492D01*
X0201886Y0335546D01*
X0201940Y0335597D01*
X0201997Y0335645D01*
X0202056Y0335690D01*
X0202118Y0335733D01*
X0202181Y0335771D01*
X0202246Y0335807D01*
X0202314Y0335839D01*
X0202382Y0335868D01*
X0202453Y0335892D01*
X0202524Y0335914D01*
X0202596Y0335931D01*
X0202670Y0335944D01*
X0202743Y0335954D01*
X0202818Y0335960D01*
X0202892Y0335962D01*
X0202966Y0335960D01*
X0203041Y0335954D01*
X0203114Y0335944D01*
X0203188Y0335931D01*
X0203260Y0335914D01*
X0203331Y0335892D01*
X0203402Y0335868D01*
X0203470Y0335839D01*
X0203538Y0335807D01*
X0203603Y0335771D01*
X0203666Y0335733D01*
X0203728Y0335690D01*
X0203787Y0335645D01*
X0203844Y0335597D01*
X0203898Y0335546D01*
X0203949Y0335492D01*
X0203997Y0335435D01*
X0204042Y0335376D01*
X0204085Y0335314D01*
X0204123Y0335251D01*
X0204159Y0335186D01*
X0204191Y0335118D01*
X0204220Y0335050D01*
X0204244Y0334979D01*
X0204266Y0334908D01*
X0204283Y0334836D01*
X0204296Y0334762D01*
X0204306Y0334689D01*
X0204312Y0334614D01*
X0204314Y0334540D01*
X0204670Y0331340D02*
X0204668Y0331257D01*
X0204662Y0331174D01*
X0204652Y0331091D01*
X0204639Y0331008D01*
X0204621Y0330927D01*
X0204600Y0330846D01*
X0204575Y0330767D01*
X0204546Y0330689D01*
X0204514Y0330612D01*
X0204478Y0330537D01*
X0204439Y0330463D01*
X0204396Y0330392D01*
X0204350Y0330322D01*
X0204300Y0330255D01*
X0204248Y0330190D01*
X0204193Y0330128D01*
X0204134Y0330068D01*
X0204073Y0330011D01*
X0204010Y0329957D01*
X0203944Y0329906D01*
X0203875Y0329859D01*
X0203805Y0329814D01*
X0203732Y0329773D01*
X0203658Y0329736D01*
X0203582Y0329701D01*
X0203504Y0329671D01*
X0203426Y0329644D01*
X0203345Y0329621D01*
X0203264Y0329601D01*
X0203182Y0329586D01*
X0203100Y0329574D01*
X0203017Y0329566D01*
X0202934Y0329562D01*
X0202850Y0329562D01*
X0202767Y0329566D01*
X0202684Y0329574D01*
X0202602Y0329586D01*
X0202520Y0329601D01*
X0202439Y0329621D01*
X0202358Y0329644D01*
X0202280Y0329671D01*
X0202202Y0329701D01*
X0202126Y0329736D01*
X0202052Y0329773D01*
X0201979Y0329814D01*
X0201909Y0329859D01*
X0201840Y0329906D01*
X0201774Y0329957D01*
X0201711Y0330011D01*
X0201650Y0330068D01*
X0201591Y0330128D01*
X0201536Y0330190D01*
X0201484Y0330255D01*
X0201434Y0330322D01*
X0201388Y0330392D01*
X0201345Y0330463D01*
X0201306Y0330537D01*
X0201270Y0330612D01*
X0201238Y0330689D01*
X0201209Y0330767D01*
X0201184Y0330846D01*
X0201163Y0330927D01*
X0201145Y0331008D01*
X0201132Y0331091D01*
X0201122Y0331174D01*
X0201116Y0331257D01*
X0201114Y0331340D01*
X0201116Y0331423D01*
X0201122Y0331506D01*
X0201132Y0331589D01*
X0201145Y0331672D01*
X0201163Y0331753D01*
X0201184Y0331834D01*
X0201209Y0331913D01*
X0201238Y0331991D01*
X0201270Y0332068D01*
X0201306Y0332143D01*
X0201345Y0332217D01*
X0201388Y0332288D01*
X0201434Y0332358D01*
X0201484Y0332425D01*
X0201536Y0332490D01*
X0201591Y0332552D01*
X0201650Y0332612D01*
X0201711Y0332669D01*
X0201774Y0332723D01*
X0201840Y0332774D01*
X0201909Y0332821D01*
X0201979Y0332866D01*
X0202052Y0332907D01*
X0202126Y0332944D01*
X0202202Y0332979D01*
X0202280Y0333009D01*
X0202358Y0333036D01*
X0202439Y0333059D01*
X0202520Y0333079D01*
X0202602Y0333094D01*
X0202684Y0333106D01*
X0202767Y0333114D01*
X0202850Y0333118D01*
X0202934Y0333118D01*
X0203017Y0333114D01*
X0203100Y0333106D01*
X0203182Y0333094D01*
X0203264Y0333079D01*
X0203345Y0333059D01*
X0203426Y0333036D01*
X0203504Y0333009D01*
X0203582Y0332979D01*
X0203658Y0332944D01*
X0203732Y0332907D01*
X0203805Y0332866D01*
X0203875Y0332821D01*
X0203944Y0332774D01*
X0204010Y0332723D01*
X0204073Y0332669D01*
X0204134Y0332612D01*
X0204193Y0332552D01*
X0204248Y0332490D01*
X0204300Y0332425D01*
X0204350Y0332358D01*
X0204396Y0332288D01*
X0204439Y0332217D01*
X0204478Y0332143D01*
X0204514Y0332068D01*
X0204546Y0331991D01*
X0204575Y0331913D01*
X0204600Y0331834D01*
X0204621Y0331753D01*
X0204639Y0331672D01*
X0204652Y0331589D01*
X0204662Y0331506D01*
X0204668Y0331423D01*
X0204670Y0331340D01*
X0010780Y0164974D02*
X0004380Y0166751D01*
X0004380Y0163196D01*
X0005091Y0163196D01*
X0007936Y0159531D02*
X0010780Y0159531D01*
X0009358Y0160597D02*
X0009358Y0157042D01*
X0004380Y0158464D01*
X0010424Y0154690D02*
X0010780Y0154690D01*
X0010780Y0154334D01*
X0010424Y0154334D01*
X0010424Y0154690D01*
X0010780Y0150204D02*
X0004380Y0151982D01*
X0004380Y0148426D01*
X0005091Y0148426D01*
X0004380Y0145828D02*
X0010780Y0144050D01*
X0005091Y0142272D02*
X0004380Y0142272D01*
X0004380Y0145828D01*
D13*
X0285948Y0287450D02*
X0285948Y0290150D01*
X0285948Y0288950D02*
X0287448Y0288950D01*
X0287448Y0290150D02*
X0287448Y0287450D01*
X0288786Y0287150D02*
X0289986Y0287150D01*
X0291132Y0288050D02*
X0291134Y0288003D01*
X0291139Y0287956D01*
X0291149Y0287910D01*
X0291161Y0287865D01*
X0291178Y0287820D01*
X0291197Y0287778D01*
X0291220Y0287737D01*
X0291247Y0287697D01*
X0291276Y0287660D01*
X0291308Y0287626D01*
X0291342Y0287594D01*
X0291379Y0287565D01*
X0291419Y0287538D01*
X0291460Y0287515D01*
X0291502Y0287496D01*
X0291547Y0287479D01*
X0291592Y0287467D01*
X0291638Y0287457D01*
X0291685Y0287452D01*
X0291732Y0287450D01*
X0291132Y0288050D02*
X0291134Y0288099D01*
X0291140Y0288147D01*
X0291149Y0288195D01*
X0291163Y0288241D01*
X0291180Y0288287D01*
X0291201Y0288331D01*
X0291225Y0288373D01*
X0291252Y0288413D01*
X0291283Y0288451D01*
X0291316Y0288486D01*
X0291352Y0288519D01*
X0291391Y0288548D01*
X0291432Y0288575D01*
X0292257Y0289025D01*
X0291957Y0290150D02*
X0291891Y0290148D01*
X0291826Y0290142D01*
X0291761Y0290133D01*
X0291696Y0290119D01*
X0291633Y0290102D01*
X0291570Y0290081D01*
X0291509Y0290057D01*
X0291450Y0290029D01*
X0291392Y0289998D01*
X0291336Y0289963D01*
X0291282Y0289925D01*
X0292256Y0289025D02*
X0292297Y0289052D01*
X0292336Y0289081D01*
X0292372Y0289114D01*
X0292405Y0289149D01*
X0292436Y0289187D01*
X0292463Y0289227D01*
X0292487Y0289269D01*
X0292508Y0289313D01*
X0292525Y0289359D01*
X0292539Y0289405D01*
X0292548Y0289453D01*
X0292554Y0289501D01*
X0292556Y0289550D01*
X0292557Y0289550D02*
X0292555Y0289597D01*
X0292550Y0289644D01*
X0292540Y0289690D01*
X0292528Y0289735D01*
X0292511Y0289780D01*
X0292492Y0289822D01*
X0292469Y0289863D01*
X0292442Y0289903D01*
X0292413Y0289940D01*
X0292381Y0289974D01*
X0292347Y0290006D01*
X0292310Y0290035D01*
X0292270Y0290062D01*
X0292229Y0290085D01*
X0292187Y0290104D01*
X0292142Y0290121D01*
X0292097Y0290133D01*
X0292051Y0290143D01*
X0292004Y0290148D01*
X0291957Y0290150D01*
X0292632Y0287825D02*
X0292583Y0287779D01*
X0292533Y0287735D01*
X0292480Y0287694D01*
X0292425Y0287657D01*
X0292369Y0287622D01*
X0292310Y0287590D01*
X0292250Y0287561D01*
X0292188Y0287535D01*
X0292126Y0287513D01*
X0292062Y0287494D01*
X0291997Y0287478D01*
X0291931Y0287466D01*
X0291865Y0287457D01*
X0291799Y0287452D01*
X0291732Y0287450D01*
X0294507Y0288650D02*
X0295257Y0288650D01*
X0294507Y0288650D02*
X0294453Y0288652D01*
X0294400Y0288658D01*
X0294348Y0288667D01*
X0294296Y0288680D01*
X0294245Y0288697D01*
X0294195Y0288718D01*
X0294148Y0288742D01*
X0294102Y0288769D01*
X0294058Y0288800D01*
X0294016Y0288833D01*
X0293977Y0288870D01*
X0293940Y0288909D01*
X0293907Y0288951D01*
X0293876Y0288995D01*
X0293849Y0289041D01*
X0293825Y0289088D01*
X0293804Y0289138D01*
X0293787Y0289189D01*
X0293774Y0289241D01*
X0293765Y0289293D01*
X0293759Y0289346D01*
X0293757Y0289400D01*
X0293759Y0289454D01*
X0293765Y0289507D01*
X0293774Y0289559D01*
X0293787Y0289611D01*
X0293804Y0289662D01*
X0293825Y0289712D01*
X0293849Y0289759D01*
X0293876Y0289805D01*
X0293907Y0289849D01*
X0293940Y0289891D01*
X0293977Y0289930D01*
X0294016Y0289967D01*
X0294058Y0290000D01*
X0294102Y0290031D01*
X0294148Y0290058D01*
X0294195Y0290082D01*
X0294245Y0290103D01*
X0294296Y0290120D01*
X0294348Y0290133D01*
X0294400Y0290142D01*
X0294453Y0290148D01*
X0294507Y0290150D01*
X0295257Y0290150D01*
X0295257Y0287450D01*
X0296892Y0287450D02*
X0297792Y0287450D01*
X0297839Y0287452D01*
X0297886Y0287457D01*
X0297932Y0287467D01*
X0297977Y0287479D01*
X0298022Y0287496D01*
X0298064Y0287515D01*
X0298105Y0287538D01*
X0298145Y0287565D01*
X0298182Y0287594D01*
X0298216Y0287626D01*
X0298248Y0287660D01*
X0298277Y0287697D01*
X0298304Y0287737D01*
X0298327Y0287778D01*
X0298346Y0287820D01*
X0298363Y0287865D01*
X0298375Y0287910D01*
X0298385Y0287956D01*
X0298390Y0288003D01*
X0298392Y0288050D01*
X0298392Y0289550D01*
X0298390Y0289597D01*
X0298385Y0289644D01*
X0298375Y0289690D01*
X0298363Y0289735D01*
X0298346Y0289780D01*
X0298327Y0289822D01*
X0298304Y0289863D01*
X0298277Y0289903D01*
X0298248Y0289940D01*
X0298216Y0289974D01*
X0298182Y0290006D01*
X0298145Y0290035D01*
X0298105Y0290062D01*
X0298064Y0290085D01*
X0298022Y0290104D01*
X0297977Y0290121D01*
X0297932Y0290133D01*
X0297886Y0290143D01*
X0297839Y0290148D01*
X0297792Y0290150D01*
X0296892Y0290150D01*
X0296892Y0288950D02*
X0296892Y0287450D01*
X0296892Y0288950D02*
X0297342Y0288950D01*
M02*
